<?xml version="1.0" encoding="utf-8"?>
<!-- Generator: Adobe Illustrator 19.2.0, SVG Export Plug-In . SVG Version: 6.00 Build 0)  -->
<svg version="1.1" id="Layer_1" xmlns="http://www.w3.org/2000/svg" xmlns:xlink="http://www.w3.org/1999/xlink" x="0px" y="0px"
	 viewBox="0 0 100 100" style="enable-background:new 0 0 100 100;" xml:space="preserve">
<path d="M50,0C22.4,0,0,22.4,0,50c0,27.6,22.4,50,50,50s50-22.4,50-50C100,22.4,77.6,0,50,0z M53.2,78.1c-1.1,1-2.5,1.5-4.2,1.5
	c-1.6,0-3-0.5-4.1-1.5c-1.1-1-1.7-2.3-1.7-3.8c0-1.6,0.6-3,1.7-4c1.1-1,2.5-1.5,4.1-1.5c1.6,0,3,0.5,4.2,1.5c1.1,1,1.7,2.3,1.7,4
	C54.9,75.8,54.4,77.1,53.2,78.1z M65.4,39.2c-0.8,1.5-1.7,3-2.9,4.3c-1.1,1.4-2.3,2.7-3.6,4c-1.3,1.3-2.4,2.7-3.5,4.1
	c-1.1,1.4-1.9,2.9-2.5,4.6c-0.6,1.6-0.7,3.4-0.5,5.4h-7c-0.4-2.2-0.3-4.2,0.2-6c0.6-1.8,1.3-3.4,2.3-4.9c1-1.5,2.1-2.9,3.4-4.2
	c1.3-1.3,2.5-2.6,3.6-3.9c1.1-1.3,2-2.6,2.8-3.9c0.7-1.3,1.1-2.7,1.1-4.3c0-2.3-0.8-4.2-2.4-5.8c-1.6-1.6-4-2.4-7.1-2.4
	c-2.1,0-4.2,0.4-6.1,1.3c-1.9,0.9-3.6,2.1-5.1,3.6l-4.6-3.7c2.1-2,4.5-3.7,7.3-5.1c2.8-1.3,5.9-2,9.5-2c4.9,0,8.9,1.2,11.9,3.6
	c3,2.4,4.4,5.7,4.4,10C66.6,36,66.2,37.7,65.4,39.2z"/>
</svg>
