<?xml version="1.0" encoding="utf-8"?>
<!-- Generator: Adobe Illustrator 24.0.2, SVG Export Plug-In . SVG Version: 6.00 Build 0)  -->
<svg version="1.1" id="Layer_1" xmlns="http://www.w3.org/2000/svg" xmlns:xlink="http://www.w3.org/1999/xlink" x="0px" y="0px"
	 viewBox="0 0 1180 1200" style="enable-background:new 0 0 1180 1200;" xml:space="preserve">
<style type="text/css">
	.st0{fill:none;stroke:#AB8B62;stroke-width:2;stroke-linecap:round;stroke-linejoin:round;}
</style>
<g>
	<g>
		<g>
			<g>
				<g>
					<path class="st0" d="M878.7,22.9h-46.5V-38h33.7l6.4,6.4l6.4,6.4L878.7,22.9L878.7,22.9z"/>
					<g>
						<path class="st0" d="M872.2,29.4L872.2,29.4h-46.5v-60.9h6.5"/>
						<line class="st0" x1="872.2" y1="29.4" x2="872.2" y2="22.9"/>
					</g>
					<g>
						<path class="st0" d="M865.7,35.8L865.7,35.8h-46.5v-60.9h6.5"/>
						<line class="st0" x1="865.7" y1="35.8" x2="865.7" y2="29.4"/>
					</g>
				</g>
				<g>
					<path class="st0" d="M944.5,22.9H898V-38h33.7l6.4,6.4l6.4,6.4L944.5,22.9L944.5,22.9z"/>
					<g>
						<path class="st0" d="M938.1,29.4L938.1,29.4h-46.5v-60.9h6.5"/>
						<line class="st0" x1="938.1" y1="29.4" x2="938.1" y2="22.9"/>
					</g>
					<g>
						<path class="st0" d="M931.6,35.8L931.6,35.8h-46.5v-60.9h6.5"/>
						<line class="st0" x1="931.6" y1="35.8" x2="931.6" y2="29.4"/>
					</g>
				</g>
				<g>
					<path class="st0" d="M878.7,103.2h-46.5V42.3h33.7l6.4,6.4l6.4,6.4L878.7,103.2L878.7,103.2z"/>
					<path class="st0" d="M878.6,55.1h-12.9V42.2"/>
					<g>
						<path class="st0" d="M872.2,109.6L872.2,109.6h-46.5V48.7h6.5"/>
						<line class="st0" x1="872.2" y1="109.6" x2="872.2" y2="103.2"/>
					</g>
					<g>
						<path class="st0" d="M865.7,116.1L865.7,116.1h-46.5v-61h6.5"/>
						<line class="st0" x1="865.7" y1="116.1" x2="865.7" y2="109.6"/>
					</g>
				</g>
				<g>
					<path class="st0" d="M944.5,103.2H898V42.3h33.7l6.4,6.4l6.4,6.4L944.5,103.2L944.5,103.2z"/>
					<path class="st0" d="M944.5,55.1h-12.9V42.2"/>
					<g>
						<path class="st0" d="M938.1,109.6L938.1,109.6h-46.5V48.7h6.5"/>
						<line class="st0" x1="938.1" y1="109.6" x2="938.1" y2="103.2"/>
					</g>
					<g>
						<path class="st0" d="M931.6,116.1L931.6,116.1h-46.5v-61h6.5"/>
						<line class="st0" x1="931.6" y1="116.1" x2="931.6" y2="109.6"/>
					</g>
				</g>
			</g>
			<g>
				<g>
					<path class="st0" d="M1010.4,22.9h-46.5V-38h33.7l6.4,6.4l6.4,6.4L1010.4,22.9L1010.4,22.9z"/>
					<g>
						<path class="st0" d="M1004,29.4L1004,29.4h-46.5v-60.9h6.5"/>
						<line class="st0" x1="1004" y1="29.4" x2="1004" y2="22.9"/>
					</g>
					<g>
						<path class="st0" d="M997.5,35.8L997.5,35.8H951v-60.9h6.5"/>
						<line class="st0" x1="997.5" y1="35.8" x2="997.5" y2="29.4"/>
					</g>
				</g>
				<g>
					<path class="st0" d="M1076.3,22.9h-46.5V-38h33.7l6.4,6.4l6.4,6.4V22.9L1076.3,22.9z"/>
					<g>
						<path class="st0" d="M1069.9,29.4L1069.9,29.4h-46.5v-60.9h6.5"/>
						<line class="st0" x1="1069.9" y1="29.4" x2="1069.9" y2="22.9"/>
					</g>
					<g>
						<path class="st0" d="M1063.4,35.8L1063.4,35.8h-46.5v-60.9h6.5"/>
						<line class="st0" x1="1063.4" y1="35.8" x2="1063.4" y2="29.4"/>
					</g>
				</g>
				<g>
					<path class="st0" d="M1010.4,103.2h-46.5V42.3h33.7l6.4,6.4l6.4,6.4L1010.4,103.2L1010.4,103.2z"/>
					<path class="st0" d="M1010.4,55.1h-12.9V42.2"/>
					<g>
						<path class="st0" d="M1004,109.6L1004,109.6h-46.5V48.7h6.5"/>
						<line class="st0" x1="1004" y1="109.6" x2="1004" y2="103.2"/>
					</g>
					<g>
						<path class="st0" d="M997.5,116.1L997.5,116.1H951v-61h6.5"/>
						<line class="st0" x1="997.5" y1="116.1" x2="997.5" y2="109.6"/>
					</g>
				</g>
				<g>
					<path class="st0" d="M1076.3,103.2h-46.5V42.3h33.7l6.4,6.4l6.4,6.4V103.2L1076.3,103.2z"/>
					<path class="st0" d="M1076.3,55.1h-12.9V42.2"/>
					<g>
						<path class="st0" d="M1069.9,109.6L1069.9,109.6h-46.5V48.7h6.5"/>
						<line class="st0" x1="1069.9" y1="109.6" x2="1069.9" y2="103.2"/>
					</g>
					<g>
						<path class="st0" d="M1063.4,116.1L1063.4,116.1h-46.5v-61h6.5"/>
						<line class="st0" x1="1063.4" y1="116.1" x2="1063.4" y2="109.6"/>
					</g>
				</g>
			</g>
			<g>
				<g>
					<path class="st0" d="M878.3,183.4h-46.5v-60.9h33.7l6.4,6.4l6.4,6.4L878.3,183.4L878.3,183.4z"/>
					<path class="st0" d="M878.3,135.4h-12.9v-12.9"/>
					<g>
						<path class="st0" d="M871.9,189.9L871.9,189.9h-46.5V129h6.5"/>
						<line class="st0" x1="871.9" y1="189.9" x2="871.9" y2="183.4"/>
					</g>
					<g>
						<path class="st0" d="M865.4,196.3L865.4,196.3h-46.5v-60.9h6.5"/>
						<line class="st0" x1="865.4" y1="196.3" x2="865.4" y2="189.9"/>
					</g>
				</g>
				<g>
					<path class="st0" d="M944.2,183.4h-46.5v-60.9h33.7l6.4,6.4l6.4,6.4L944.2,183.4L944.2,183.4z"/>
					<path class="st0" d="M944.2,135.4h-12.9v-12.9"/>
					<g>
						<path class="st0" d="M937.8,189.9L937.8,189.9h-46.5V129h6.5"/>
						<line class="st0" x1="937.8" y1="189.9" x2="937.8" y2="183.4"/>
					</g>
					<g>
						<path class="st0" d="M931.3,196.3L931.3,196.3h-46.5v-60.9h6.5"/>
						<line class="st0" x1="931.3" y1="196.3" x2="931.3" y2="189.9"/>
					</g>
				</g>
				<g>
					<path class="st0" d="M878.3,263.7h-46.5v-60.9h33.7l6.4,6.4l6.4,6.4L878.3,263.7L878.3,263.7z"/>
					<path class="st0" d="M878.3,215.6h-12.9v-12.9"/>
					<g>
						<path class="st0" d="M871.9,270.1L871.9,270.1h-46.5v-60.9h6.5"/>
						<line class="st0" x1="871.9" y1="270.1" x2="871.9" y2="263.7"/>
					</g>
					<g>
						<path class="st0" d="M865.4,276.6L865.4,276.6h-46.5v-60.9h6.5"/>
						<line class="st0" x1="865.4" y1="276.6" x2="865.4" y2="270.1"/>
					</g>
				</g>
				<g>
					<path class="st0" d="M944.2,263.7h-46.5v-60.9h33.7l6.4,6.4l6.4,6.4L944.2,263.7L944.2,263.7z"/>
					<path class="st0" d="M944.2,215.6h-12.9v-12.9"/>
					<g>
						<path class="st0" d="M937.8,270.1L937.8,270.1h-46.5v-60.9h6.5"/>
						<line class="st0" x1="937.8" y1="270.1" x2="937.8" y2="263.7"/>
					</g>
					<g>
						<path class="st0" d="M931.3,276.6L931.3,276.6h-46.5v-60.9h6.5"/>
						<line class="st0" x1="931.3" y1="276.6" x2="931.3" y2="270.1"/>
					</g>
				</g>
			</g>
			<g>
				<g>
					<path class="st0" d="M1010.1,183.4h-46.5v-60.9h33.7l6.4,6.4l6.4,6.4L1010.1,183.4L1010.1,183.4z"/>
					<path class="st0" d="M1010.1,135.4h-12.9v-12.9"/>
					<g>
						<path class="st0" d="M1003.7,189.9L1003.7,189.9h-46.5V129h6.5"/>
						<line class="st0" x1="1003.7" y1="189.9" x2="1003.7" y2="183.4"/>
					</g>
					<g>
						<path class="st0" d="M997.2,196.3L997.2,196.3h-46.5v-60.9h6.5"/>
						<line class="st0" x1="997.2" y1="196.3" x2="997.2" y2="189.9"/>
					</g>
				</g>
				<g>
					<path class="st0" d="M1076,183.4h-46.5v-60.9h33.7l6.4,6.4l6.4,6.4V183.4L1076,183.4z"/>
					<path class="st0" d="M1076,135.4h-12.9v-12.9"/>
					<g>
						<path class="st0" d="M1069.6,189.9L1069.6,189.9h-46.5V129h6.5"/>
						<line class="st0" x1="1069.6" y1="189.9" x2="1069.6" y2="183.4"/>
					</g>
					<g>
						<path class="st0" d="M1063.1,196.3L1063.1,196.3h-46.5v-60.9h6.5"/>
						<line class="st0" x1="1063.1" y1="196.3" x2="1063.1" y2="189.9"/>
					</g>
				</g>
				<g>
					<path class="st0" d="M1010.1,263.7h-46.5v-60.9h33.7l6.4,6.4l6.4,6.4L1010.1,263.7L1010.1,263.7z"/>
					<path class="st0" d="M1010.1,215.6h-12.9v-12.9"/>
					<g>
						<path class="st0" d="M1003.7,270.1L1003.7,270.1h-46.5v-60.9h6.5"/>
						<line class="st0" x1="1003.7" y1="270.1" x2="1003.7" y2="263.7"/>
					</g>
					<g>
						<path class="st0" d="M997.2,276.6L997.2,276.6h-46.5v-60.9h6.5"/>
						<line class="st0" x1="997.2" y1="276.6" x2="997.2" y2="270.1"/>
					</g>
				</g>
				<g>
					<path class="st0" d="M1076,263.7h-46.5v-60.9h33.7l6.4,6.4l6.4,6.4V263.7L1076,263.7z"/>
					<path class="st0" d="M1076,215.6h-12.9v-12.9"/>
					<g>
						<path class="st0" d="M1069.6,270.1L1069.6,270.1h-46.5v-60.9h6.5"/>
						<line class="st0" x1="1069.6" y1="270.1" x2="1069.6" y2="263.7"/>
					</g>
					<g>
						<path class="st0" d="M1063.1,276.6L1063.1,276.6h-46.5v-60.9h6.5"/>
						<line class="st0" x1="1063.1" y1="276.6" x2="1063.1" y2="270.1"/>
					</g>
				</g>
			</g>
		</g>
		<g>
			<g>
				<g>
					<path class="st0" d="M1142.6,22.9H1096V-38h33.7l6.4,6.4l6.4,6.4L1142.6,22.9L1142.6,22.9z"/>
					<g>
						<path class="st0" d="M1136.1,29.4L1136.1,29.4h-46.5v-60.9h6.5"/>
						<line class="st0" x1="1136.1" y1="29.4" x2="1136.1" y2="22.9"/>
					</g>
					<g>
						<path class="st0" d="M1129.6,35.8L1129.6,35.8h-46.5v-60.9h6.5"/>
						<line class="st0" x1="1129.6" y1="35.8" x2="1129.6" y2="29.4"/>
					</g>
				</g>
				<g>
					<path class="st0" d="M1208.4,22.9h-46.5V-38h33.7l6.4,6.4l6.4,6.4V22.9L1208.4,22.9z"/>
					<g>
						<path class="st0" d="M1202,29.4L1202,29.4h-46.5v-60.9h6.5"/>
					</g>
					<g>
						<path class="st0" d="M1195.5,35.8L1195.5,35.8H1149v-60.9h6.5"/>
					</g>
				</g>
				<g>
					<path class="st0" d="M1142.6,103.2H1096V42.3h33.7l6.4,6.4l6.4,6.4L1142.6,103.2L1142.6,103.2z"/>
					<path class="st0" d="M1142.6,55.1h-12.9V42.2"/>
					<g>
						<path class="st0" d="M1136.1,109.6L1136.1,109.6h-46.5V48.7h6.5"/>
						<line class="st0" x1="1136.1" y1="109.6" x2="1136.1" y2="103.2"/>
					</g>
					<g>
						<path class="st0" d="M1129.6,116.1L1129.6,116.1h-46.5v-61h6.5"/>
						<line class="st0" x1="1129.6" y1="116.1" x2="1129.6" y2="109.6"/>
					</g>
				</g>
				<g>
					<path class="st0" d="M1208.4,103.2h-46.5V42.3h33.7l6.4,6.4l6.4,6.4V103.2L1208.4,103.2z"/>
					<g>
						<path class="st0" d="M1202,109.6L1202,109.6h-46.5V48.7h6.5"/>
					</g>
					<g>
						<path class="st0" d="M1195.5,116.1L1195.5,116.1H1149v-61h6.5"/>
					</g>
				</g>
			</g>
			<g>
				<g>
					<path class="st0" d="M1142.2,183.4h-46.5v-60.9h33.7l6.4,6.4l6.4,6.4V183.4L1142.2,183.4z"/>
					<path class="st0" d="M1142.2,135.4h-12.9v-12.9"/>
					<g>
						<path class="st0" d="M1135.8,189.9L1135.8,189.9h-46.5V129h6.5"/>
						<line class="st0" x1="1135.8" y1="189.9" x2="1135.8" y2="183.4"/>
					</g>
					<g>
						<path class="st0" d="M1129.3,196.3L1129.3,196.3h-46.5v-60.9h6.5"/>
						<line class="st0" x1="1129.3" y1="196.3" x2="1129.3" y2="189.9"/>
					</g>
				</g>
				<g>
					<path class="st0" d="M1208.1,183.4h-46.5v-60.9h33.7l6.4,6.4l6.4,6.4V183.4L1208.1,183.4z"/>
					<g>
						<path class="st0" d="M1201.7,189.9L1201.7,189.9h-46.5V129h6.5"/>
					</g>
					<g>
						<path class="st0" d="M1195.2,196.3L1195.2,196.3h-46.5v-60.9h6.5"/>
					</g>
				</g>
				<g>
					<path class="st0" d="M1142.2,263.7h-46.5v-60.9h33.7l6.4,6.4l6.4,6.4V263.7L1142.2,263.7z"/>
					<path class="st0" d="M1142.2,215.6h-12.9v-12.9"/>
					<g>
						<path class="st0" d="M1135.8,270.1L1135.8,270.1h-46.5v-60.9h6.5"/>
						<line class="st0" x1="1135.8" y1="270.1" x2="1135.8" y2="263.7"/>
					</g>
					<g>
						<path class="st0" d="M1129.3,276.6L1129.3,276.6h-46.5v-60.9h6.5"/>
						<line class="st0" x1="1129.3" y1="276.6" x2="1129.3" y2="270.1"/>
					</g>
				</g>
				<g>
					<path class="st0" d="M1208.1,263.7h-46.5v-60.9h33.7l6.4,6.4l6.4,6.4V263.7L1208.1,263.7z"/>
					<g>
						<path class="st0" d="M1201.7,270.1L1201.7,270.1h-46.5v-60.9h6.5"/>
					</g>
					<g>
						<path class="st0" d="M1195.2,276.6L1195.2,276.6h-46.5v-60.9h6.5"/>
					</g>
				</g>
			</g>
		</g>
		<g>
			<g>
				<g>
					<path class="st0" d="M879,344.1h-46.5v-60.9h33.7l6.4,6.4l6.4,6.4L879,344.1L879,344.1z"/>
					<path class="st0" d="M879,296.1h-12.9v-12.9"/>
					<g>
						<path class="st0" d="M872.5,350.6L872.5,350.6H826v-60.9h6.5"/>
						<line class="st0" x1="872.5" y1="350.6" x2="872.5" y2="344.1"/>
					</g>
					<g>
						<path class="st0" d="M866.1,357L866.1,357h-46.5v-60.9h6.5"/>
						<line class="st0" x1="866.1" y1="357" x2="866.1" y2="350.6"/>
					</g>
				</g>
				<g>
					<path class="st0" d="M944.9,344.1h-46.5v-60.9H932l6.4,6.4l6.4,6.4L944.9,344.1L944.9,344.1z"/>
					<path class="st0" d="M944.9,296.1H932v-12.9"/>
					<g>
						<path class="st0" d="M938.4,350.6L938.4,350.6h-46.5v-60.9h6.5"/>
						<line class="st0" x1="938.4" y1="350.6" x2="938.4" y2="344.1"/>
					</g>
					<g>
						<path class="st0" d="M932,357L932,357h-46.5v-60.9h6.5"/>
						<line class="st0" x1="932" y1="357" x2="932" y2="350.6"/>
					</g>
				</g>
				<g>
					<path class="st0" d="M879,424.4h-46.5v-60.9h33.7l6.4,6.4l6.4,6.4L879,424.4L879,424.4z"/>
					<path class="st0" d="M879,376.3h-12.9v-12.9"/>
					<g>
						<path class="st0" d="M872.5,430.8L872.5,430.8H826v-60.9h6.5"/>
						<line class="st0" x1="872.5" y1="430.8" x2="872.5" y2="424.4"/>
					</g>
					<g>
						<path class="st0" d="M866.1,437.3L866.1,437.3h-46.5v-60.9h6.5"/>
						<line class="st0" x1="866.1" y1="437.3" x2="866.1" y2="430.8"/>
					</g>
				</g>
				<g>
					<path class="st0" d="M944.9,424.4h-46.5v-60.9H932l6.4,6.4l6.4,6.4L944.9,424.4L944.9,424.4z"/>
					<path class="st0" d="M944.9,376.3H932v-12.9"/>
					<g>
						<path class="st0" d="M938.4,430.8L938.4,430.8h-46.5v-60.9h6.5"/>
						<line class="st0" x1="938.4" y1="430.8" x2="938.4" y2="424.4"/>
					</g>
					<g>
						<path class="st0" d="M932,437.3L932,437.3h-46.5v-60.9h6.5"/>
						<line class="st0" x1="932" y1="437.3" x2="932" y2="430.8"/>
					</g>
				</g>
			</g>
			<g>
				<g>
					<path class="st0" d="M1010.8,344.1h-46.5v-60.9H998l6.4,6.4l6.4,6.4L1010.8,344.1L1010.8,344.1z"/>
					<path class="st0" d="M1010.8,296.1h-12.9v-12.9"/>
					<g>
						<path class="st0" d="M1004.3,350.6L1004.3,350.6h-46.5v-60.9h6.5"/>
						<line class="st0" x1="1004.3" y1="350.6" x2="1004.3" y2="344.1"/>
					</g>
					<g>
						<path class="st0" d="M997.9,357L997.9,357h-46.5v-60.9h6.5"/>
						<line class="st0" x1="997.9" y1="357" x2="997.9" y2="350.6"/>
					</g>
				</g>
				<g>
					<path class="st0" d="M1076.7,344.1h-46.5v-60.9h33.7l6.4,6.4l6.4,6.4V344.1L1076.7,344.1z"/>
					<path class="st0" d="M1076.7,296.1h-12.9v-12.9"/>
					<g>
						<path class="st0" d="M1070.2,350.6L1070.2,350.6h-46.5v-60.9h6.5"/>
						<line class="st0" x1="1070.2" y1="350.6" x2="1070.2" y2="344.1"/>
					</g>
					<g>
						<path class="st0" d="M1063.8,357L1063.8,357h-46.5v-60.9h6.5"/>
						<line class="st0" x1="1063.8" y1="357" x2="1063.8" y2="350.6"/>
					</g>
				</g>
				<g>
					<path class="st0" d="M1010.8,424.4h-46.5v-60.9H998l6.4,6.4l6.4,6.4L1010.8,424.4L1010.8,424.4z"/>
					<path class="st0" d="M1010.8,376.3h-12.9v-12.9"/>
					<g>
						<path class="st0" d="M1004.3,430.8L1004.3,430.8h-46.5v-60.9h6.5"/>
						<line class="st0" x1="1004.3" y1="430.8" x2="1004.3" y2="424.4"/>
					</g>
					<g>
						<path class="st0" d="M997.9,437.3L997.9,437.3h-46.5v-60.9h6.5"/>
						<line class="st0" x1="997.9" y1="437.3" x2="997.9" y2="430.8"/>
					</g>
				</g>
				<g>
					<path class="st0" d="M1076.7,424.4h-46.5v-60.9h33.7l6.4,6.4l6.4,6.4V424.4L1076.7,424.4z"/>
					<path class="st0" d="M1076.7,376.3h-12.9v-12.9"/>
					<g>
						<path class="st0" d="M1070.2,430.8L1070.2,430.8h-46.5v-60.9h6.5"/>
						<line class="st0" x1="1070.2" y1="430.8" x2="1070.2" y2="424.4"/>
					</g>
					<g>
						<path class="st0" d="M1063.8,437.3L1063.8,437.3h-46.5v-60.9h6.5"/>
						<line class="st0" x1="1063.8" y1="437.3" x2="1063.8" y2="430.8"/>
					</g>
				</g>
			</g>
			<g>
				<g>
					<path class="st0" d="M878.7,504.6h-46.5v-60.9h33.7l6.4,6.4l6.4,6.4L878.7,504.6L878.7,504.6z"/>
					<path class="st0" d="M878.7,456.6h-12.9v-12.9"/>
					<g>
						<path class="st0" d="M872.2,511.1L872.2,511.1h-46.5v-60.9h6.5"/>
						<line class="st0" x1="872.2" y1="511.1" x2="872.2" y2="504.6"/>
					</g>
					<g>
						<path class="st0" d="M865.7,517.5L865.7,517.5h-46.5v-60.9h6.5"/>
						<line class="st0" x1="865.7" y1="517.5" x2="865.7" y2="511.1"/>
					</g>
				</g>
				<g>
					<path class="st0" d="M944.5,504.6H898v-60.9h33.7l6.4,6.4l6.4,6.4L944.5,504.6L944.5,504.6z"/>
					<path class="st0" d="M944.5,456.6h-12.9v-12.9"/>
					<g>
						<path class="st0" d="M938.1,511.1L938.1,511.1h-46.5v-60.9h6.5"/>
						<line class="st0" x1="938.1" y1="511.1" x2="938.1" y2="504.6"/>
					</g>
					<g>
						<path class="st0" d="M931.6,517.5L931.6,517.5h-46.5v-60.9h6.5"/>
						<line class="st0" x1="931.6" y1="517.5" x2="931.6" y2="511.1"/>
					</g>
				</g>
				<g>
					<path class="st0" d="M878.7,584.9h-46.5V524h33.7l6.4,6.4l6.4,6.4L878.7,584.9L878.7,584.9z"/>
					<path class="st0" d="M878.6,536.9h-12.9V524"/>
					<g>
						<path class="st0" d="M872.2,591.3L872.2,591.3h-46.5v-60.9h6.5"/>
						<line class="st0" x1="872.2" y1="591.3" x2="872.2" y2="584.9"/>
					</g>
					<g>
						<path class="st0" d="M865.7,597.8L865.7,597.8h-46.5v-60.9h6.5"/>
						<line class="st0" x1="865.7" y1="597.8" x2="865.7" y2="591.3"/>
					</g>
				</g>
				<g>
					<path class="st0" d="M944.5,584.9H898V524h33.7l6.4,6.4l6.4,6.4L944.5,584.9L944.5,584.9z"/>
					<path class="st0" d="M944.5,536.9h-12.9V524"/>
					<g>
						<path class="st0" d="M938.1,591.3L938.1,591.3h-46.5v-60.9h6.5"/>
						<line class="st0" x1="938.1" y1="591.3" x2="938.1" y2="584.9"/>
					</g>
					<g>
						<path class="st0" d="M931.6,597.8L931.6,597.8h-46.5v-60.9h6.5"/>
						<line class="st0" x1="931.6" y1="597.8" x2="931.6" y2="591.3"/>
					</g>
				</g>
			</g>
			<g>
				<g>
					<path class="st0" d="M1010.4,504.6h-46.5v-60.9h33.7l6.4,6.4l6.4,6.4L1010.4,504.6L1010.4,504.6z"/>
					<path class="st0" d="M1010.4,456.6h-12.9v-12.9"/>
					<g>
						<path class="st0" d="M1004,511.1L1004,511.1h-46.5v-60.9h6.5"/>
						<line class="st0" x1="1004" y1="511.1" x2="1004" y2="504.6"/>
					</g>
					<g>
						<path class="st0" d="M997.5,517.5L997.5,517.5H951v-60.9h6.5"/>
						<line class="st0" x1="997.5" y1="517.5" x2="997.5" y2="511.1"/>
					</g>
				</g>
				<g>
					<path class="st0" d="M1076.3,504.6h-46.5v-60.9h33.7l6.4,6.4l6.4,6.4V504.6L1076.3,504.6z"/>
					<path class="st0" d="M1076.3,456.6h-12.9v-12.9"/>
					<g>
						<path class="st0" d="M1069.9,511.1L1069.9,511.1h-46.5v-60.9h6.5"/>
						<line class="st0" x1="1069.9" y1="511.1" x2="1069.9" y2="504.6"/>
					</g>
					<g>
						<path class="st0" d="M1063.4,517.5L1063.4,517.5h-46.5v-60.9h6.5"/>
						<line class="st0" x1="1063.4" y1="517.5" x2="1063.4" y2="511.1"/>
					</g>
				</g>
				<g>
					<path class="st0" d="M1010.4,584.9h-46.5V524h33.7l6.4,6.4l6.4,6.4L1010.4,584.9L1010.4,584.9z"/>
					<path class="st0" d="M1010.4,536.9h-12.9V524"/>
					<g>
						<path class="st0" d="M1004,591.3L1004,591.3h-46.5v-60.9h6.5"/>
						<line class="st0" x1="1004" y1="591.3" x2="1004" y2="584.9"/>
					</g>
					<g>
						<path class="st0" d="M997.5,597.8L997.5,597.8H951v-60.9h6.5"/>
						<line class="st0" x1="997.5" y1="597.8" x2="997.5" y2="591.3"/>
					</g>
				</g>
				<g>
					<path class="st0" d="M1076.3,584.9h-46.5V524h33.7l6.4,6.4l6.4,6.4V584.9L1076.3,584.9z"/>
					<path class="st0" d="M1076.3,536.9h-12.9V524"/>
					<g>
						<path class="st0" d="M1069.9,591.3L1069.9,591.3h-46.5v-60.9h6.5"/>
						<line class="st0" x1="1069.9" y1="591.3" x2="1069.9" y2="584.9"/>
					</g>
					<g>
						<path class="st0" d="M1063.4,597.8L1063.4,597.8h-46.5v-60.9h6.5"/>
						<line class="st0" x1="1063.4" y1="597.8" x2="1063.4" y2="591.3"/>
					</g>
				</g>
			</g>
		</g>
		<g>
			<g>
				<g>
					<path class="st0" d="M1142.9,344.1h-46.5v-60.9h33.7l6.4,6.4l6.4,6.4V344.1L1142.9,344.1z"/>
					<path class="st0" d="M1142.9,296.1H1130v-12.9"/>
					<g>
						<path class="st0" d="M1136.4,350.6L1136.4,350.6h-46.5v-60.9h6.5"/>
						<line class="st0" x1="1136.4" y1="350.6" x2="1136.4" y2="344.1"/>
					</g>
					<g>
						<path class="st0" d="M1130,357L1130,357h-46.5v-60.9h6.5"/>
						<line class="st0" x1="1130" y1="357" x2="1130" y2="350.6"/>
					</g>
				</g>
				<g>
					<path class="st0" d="M1208.8,344.1h-46.5v-60.9h33.7l6.4,6.4l6.4,6.4V344.1L1208.8,344.1z"/>
					<g>
						<path class="st0" d="M1202.3,350.6L1202.3,350.6h-46.5v-60.9h6.5"/>
					</g>
					<g>
						<path class="st0" d="M1195.9,357L1195.9,357h-46.5v-60.9h6.5"/>
					</g>
				</g>
				<g>
					<path class="st0" d="M1142.9,424.4h-46.5v-60.9h33.7l6.4,6.4l6.4,6.4V424.4L1142.9,424.4z"/>
					<path class="st0" d="M1142.9,376.3H1130v-12.9"/>
					<g>
						<path class="st0" d="M1136.4,430.8L1136.4,430.8h-46.5v-60.9h6.5"/>
						<line class="st0" x1="1136.4" y1="430.8" x2="1136.4" y2="424.4"/>
					</g>
					<g>
						<path class="st0" d="M1130,437.3L1130,437.3h-46.5v-60.9h6.5"/>
						<line class="st0" x1="1130" y1="437.3" x2="1130" y2="430.8"/>
					</g>
				</g>
				<g>
					<path class="st0" d="M1208.8,424.4h-46.5v-60.9h33.7l6.4,6.4l6.4,6.4V424.4L1208.8,424.4z"/>
					<g>
						<path class="st0" d="M1202.3,430.8L1202.3,430.8h-46.5v-60.9h6.5"/>
					</g>
					<g>
						<path class="st0" d="M1195.9,437.3L1195.9,437.3h-46.5v-60.9h6.5"/>
					</g>
				</g>
			</g>
			<g>
				<g>
					<path class="st0" d="M1142.6,504.6H1096v-60.9h33.7l6.4,6.4l6.4,6.4L1142.6,504.6L1142.6,504.6z"/>
					<path class="st0" d="M1142.6,456.6h-12.9v-12.9"/>
					<g>
						<path class="st0" d="M1136.1,511.1L1136.1,511.1h-46.5v-60.9h6.5"/>
						<line class="st0" x1="1136.1" y1="511.1" x2="1136.1" y2="504.6"/>
					</g>
					<g>
						<path class="st0" d="M1129.6,517.5L1129.6,517.5h-46.5v-60.9h6.5"/>
						<line class="st0" x1="1129.6" y1="517.5" x2="1129.6" y2="511.1"/>
					</g>
				</g>
				<g>
					<path class="st0" d="M1208.4,504.6h-46.5v-60.9h33.7l6.4,6.4l6.4,6.4V504.6L1208.4,504.6z"/>
					<g>
						<path class="st0" d="M1202,511.1L1202,511.1h-46.5v-60.9h6.5"/>
					</g>
					<g>
						<path class="st0" d="M1195.5,517.5L1195.5,517.5H1149v-60.9h6.5"/>
					</g>
				</g>
				<g>
					<path class="st0" d="M1142.6,584.9H1096V524h33.7l6.4,6.4l6.4,6.4L1142.6,584.9L1142.6,584.9z"/>
					<path class="st0" d="M1142.6,536.9h-12.9V524"/>
					<g>
						<path class="st0" d="M1136.1,591.3L1136.1,591.3h-46.5v-60.9h6.5"/>
						<line class="st0" x1="1136.1" y1="591.3" x2="1136.1" y2="584.9"/>
					</g>
					<g>
						<path class="st0" d="M1129.6,597.8L1129.6,597.8h-46.5v-60.9h6.5"/>
						<line class="st0" x1="1129.6" y1="597.8" x2="1129.6" y2="591.3"/>
					</g>
				</g>
				<g>
					<path class="st0" d="M1208.4,584.9h-46.5V524h33.7l6.4,6.4l6.4,6.4V584.9L1208.4,584.9z"/>
					<g>
						<path class="st0" d="M1202,591.3L1202,591.3h-46.5v-60.9h6.5"/>
					</g>
					<g>
						<path class="st0" d="M1195.5,597.8L1195.5,597.8H1149v-60.9h6.5"/>
					</g>
				</g>
			</g>
		</g>
	</g>
	<g>
		<g>
			<g>
				<g>
					<path class="st0" d="M879,665.1h-46.5v-60.9h33.7l6.4,6.4l6.4,6.4L879,665.1L879,665.1z"/>
					<path class="st0" d="M879,617.1h-12.9v-12.9"/>
					<g>
						<path class="st0" d="M872.5,671.6L872.5,671.6H826v-60.9h6.5"/>
						<line class="st0" x1="872.5" y1="671.6" x2="872.5" y2="665.1"/>
					</g>
					<g>
						<path class="st0" d="M866.1,678L866.1,678h-46.5v-60.9h6.5"/>
						<line class="st0" x1="866.1" y1="678" x2="866.1" y2="671.6"/>
					</g>
				</g>
				<g>
					<path class="st0" d="M944.9,665.1h-46.5v-60.9H932l6.4,6.4l6.4,6.4L944.9,665.1L944.9,665.1z"/>
					<path class="st0" d="M944.9,617.1H932v-12.9"/>
					<g>
						<path class="st0" d="M938.4,671.6L938.4,671.6h-46.5v-60.9h6.5"/>
						<line class="st0" x1="938.4" y1="671.6" x2="938.4" y2="665.1"/>
					</g>
					<g>
						<path class="st0" d="M932,678L932,678h-46.5v-60.9h6.5"/>
						<line class="st0" x1="932" y1="678" x2="932" y2="671.6"/>
					</g>
				</g>
				<g>
					<path class="st0" d="M879,745.4h-46.5v-60.9h33.7l6.4,6.4l6.4,6.4L879,745.4L879,745.4z"/>
					<path class="st0" d="M879,697.4h-12.9v-12.9"/>
					<g>
						<path class="st0" d="M872.5,751.8L872.5,751.8H826v-60.9h6.5"/>
						<line class="st0" x1="872.5" y1="751.8" x2="872.5" y2="745.4"/>
					</g>
					<g>
						<path class="st0" d="M866.1,758.3L866.1,758.3h-46.5v-60.9h6.5"/>
						<line class="st0" x1="866.1" y1="758.3" x2="866.1" y2="751.8"/>
					</g>
				</g>
				<g>
					<path class="st0" d="M944.9,745.4h-46.5v-60.9H932l6.4,6.4l6.4,6.4L944.9,745.4L944.9,745.4z"/>
					<path class="st0" d="M944.9,697.4H932v-12.9"/>
					<g>
						<path class="st0" d="M938.4,751.8L938.4,751.8h-46.5v-60.9h6.5"/>
						<line class="st0" x1="938.4" y1="751.8" x2="938.4" y2="745.4"/>
					</g>
					<g>
						<path class="st0" d="M932,758.3L932,758.3h-46.5v-60.9h6.5"/>
						<line class="st0" x1="932" y1="758.3" x2="932" y2="751.8"/>
					</g>
				</g>
			</g>
			<g>
				<g>
					<path class="st0" d="M1010.8,665.1h-46.5v-60.9H998l6.4,6.4l6.4,6.4L1010.8,665.1L1010.8,665.1z"/>
					<path class="st0" d="M1010.8,617.1h-12.9v-12.9"/>
					<g>
						<path class="st0" d="M1004.3,671.6L1004.3,671.6h-46.5v-60.9h6.5"/>
						<line class="st0" x1="1004.3" y1="671.6" x2="1004.3" y2="665.1"/>
					</g>
					<g>
						<path class="st0" d="M997.9,678L997.9,678h-46.5v-60.9h6.5"/>
						<line class="st0" x1="997.9" y1="678" x2="997.9" y2="671.6"/>
					</g>
				</g>
				<g>
					<path class="st0" d="M1076.7,665.1h-46.5v-60.9h33.7l6.4,6.4l6.4,6.4V665.1L1076.7,665.1z"/>
					<path class="st0" d="M1076.7,617.1h-12.9v-12.9"/>
					<g>
						<path class="st0" d="M1070.2,671.6L1070.2,671.6h-46.5v-60.9h6.5"/>
						<line class="st0" x1="1070.2" y1="671.6" x2="1070.2" y2="665.1"/>
					</g>
					<g>
						<path class="st0" d="M1063.8,678L1063.8,678h-46.5v-60.9h6.5"/>
						<line class="st0" x1="1063.8" y1="678" x2="1063.8" y2="671.6"/>
					</g>
				</g>
				<g>
					<path class="st0" d="M1010.8,745.4h-46.5v-60.9H998l6.4,6.4l6.4,6.4L1010.8,745.4L1010.8,745.4z"/>
					<path class="st0" d="M1010.8,697.4h-12.9v-12.9"/>
					<g>
						<path class="st0" d="M1004.3,751.8L1004.3,751.8h-46.5v-60.9h6.5"/>
						<line class="st0" x1="1004.3" y1="751.8" x2="1004.3" y2="745.4"/>
					</g>
					<g>
						<path class="st0" d="M997.9,758.3L997.9,758.3h-46.5v-60.9h6.5"/>
						<line class="st0" x1="997.9" y1="758.3" x2="997.9" y2="751.8"/>
					</g>
				</g>
				<g>
					<path class="st0" d="M1076.7,745.4h-46.5v-60.9h33.7l6.4,6.4l6.4,6.4V745.4L1076.7,745.4z"/>
					<path class="st0" d="M1076.7,697.4h-12.9v-12.9"/>
					<g>
						<path class="st0" d="M1070.2,751.8L1070.2,751.8h-46.5v-60.9h6.5"/>
						<line class="st0" x1="1070.2" y1="751.8" x2="1070.2" y2="745.4"/>
					</g>
					<g>
						<path class="st0" d="M1063.8,758.3L1063.8,758.3h-46.5v-60.9h6.5"/>
						<line class="st0" x1="1063.8" y1="758.3" x2="1063.8" y2="751.8"/>
					</g>
				</g>
			</g>
			<g>
				<g>
					<path class="st0" d="M878.7,825.7h-46.5v-60.9h33.7l6.4,6.4l6.4,6.4L878.7,825.7L878.7,825.7z"/>
					<path class="st0" d="M878.7,777.6h-12.9v-12.9"/>
					<g>
						<path class="st0" d="M872.2,832.1L872.2,832.1h-46.5v-60.9h6.5"/>
						<line class="st0" x1="872.2" y1="832.1" x2="872.2" y2="825.7"/>
					</g>
					<g>
						<path class="st0" d="M865.7,838.5L865.7,838.5h-46.5v-60.9h6.5"/>
						<line class="st0" x1="865.7" y1="838.5" x2="865.7" y2="832.1"/>
					</g>
				</g>
				<g>
					<path class="st0" d="M944.5,825.7H898v-60.9h33.7l6.4,6.4l6.4,6.4L944.5,825.7L944.5,825.7z"/>
					<path class="st0" d="M944.5,777.6h-12.9v-12.9"/>
					<g>
						<path class="st0" d="M938.1,832.1L938.1,832.1h-46.5v-60.9h6.5"/>
						<line class="st0" x1="938.1" y1="832.1" x2="938.1" y2="825.7"/>
					</g>
					<g>
						<path class="st0" d="M931.6,838.5L931.6,838.5h-46.5v-60.9h6.5"/>
						<line class="st0" x1="931.6" y1="838.5" x2="931.6" y2="832.1"/>
					</g>
				</g>
				<g>
					<path class="st0" d="M878.7,905.9h-46.5V845h33.7l6.4,6.4l6.4,6.4L878.7,905.9L878.7,905.9z"/>
					<path class="st0" d="M878.6,857.9h-12.9V845"/>
					<g>
						<path class="st0" d="M872.2,912.3L872.2,912.3h-46.5v-60.9h6.5"/>
						<line class="st0" x1="872.2" y1="912.3" x2="872.2" y2="905.9"/>
					</g>
					<g>
						<path class="st0" d="M865.7,918.8L865.7,918.8h-46.5v-60.9h6.5"/>
						<line class="st0" x1="865.7" y1="918.8" x2="865.7" y2="912.3"/>
					</g>
				</g>
				<g>
					<path class="st0" d="M944.5,905.9H898V845h33.7l6.4,6.4l6.4,6.4L944.5,905.9L944.5,905.9z"/>
					<path class="st0" d="M944.5,857.9h-12.9V845"/>
					<g>
						<path class="st0" d="M938.1,912.3L938.1,912.3h-46.5v-60.9h6.5"/>
						<line class="st0" x1="938.1" y1="912.3" x2="938.1" y2="905.9"/>
					</g>
					<g>
						<path class="st0" d="M931.6,918.8L931.6,918.8h-46.5v-60.9h6.5"/>
						<line class="st0" x1="931.6" y1="918.8" x2="931.6" y2="912.3"/>
					</g>
				</g>
			</g>
			<g>
				<g>
					<path class="st0" d="M1010.4,825.7h-46.5v-60.9h33.7l6.4,6.4l6.4,6.4L1010.4,825.7L1010.4,825.7z"/>
					<path class="st0" d="M1010.4,777.6h-12.9v-12.9"/>
					<g>
						<path class="st0" d="M1004,832.1L1004,832.1h-46.5v-60.9h6.5"/>
						<line class="st0" x1="1004" y1="832.1" x2="1004" y2="825.7"/>
					</g>
					<g>
						<path class="st0" d="M997.5,838.5L997.5,838.5H951v-60.9h6.5"/>
						<line class="st0" x1="997.5" y1="838.5" x2="997.5" y2="832.1"/>
					</g>
				</g>
				<g>
					<path class="st0" d="M1076.3,825.7h-46.5v-60.9h33.7l6.4,6.4l6.4,6.4V825.7L1076.3,825.7z"/>
					<path class="st0" d="M1076.3,777.6h-12.9v-12.9"/>
					<g>
						<path class="st0" d="M1069.9,832.1L1069.9,832.1h-46.5v-60.9h6.5"/>
						<line class="st0" x1="1069.9" y1="832.1" x2="1069.9" y2="825.7"/>
					</g>
					<g>
						<path class="st0" d="M1063.4,838.5L1063.4,838.5h-46.5v-60.9h6.5"/>
						<line class="st0" x1="1063.4" y1="838.5" x2="1063.4" y2="832.1"/>
					</g>
				</g>
				<g>
					<path class="st0" d="M1010.4,905.9h-46.5V845h33.7l6.4,6.4l6.4,6.4L1010.4,905.9L1010.4,905.9z"/>
					<path class="st0" d="M1010.4,857.9h-12.9V845"/>
					<g>
						<path class="st0" d="M1004,912.3L1004,912.3h-46.5v-60.9h6.5"/>
						<line class="st0" x1="1004" y1="912.3" x2="1004" y2="905.9"/>
					</g>
					<g>
						<path class="st0" d="M997.5,918.8L997.5,918.8H951v-60.9h6.5"/>
						<line class="st0" x1="997.5" y1="918.8" x2="997.5" y2="912.3"/>
					</g>
				</g>
				<g>
					<path class="st0" d="M1076.3,905.9h-46.5V845h33.7l6.4,6.4l6.4,6.4V905.9L1076.3,905.9z"/>
					<path class="st0" d="M1076.3,857.9h-12.9V845"/>
					<g>
						<path class="st0" d="M1069.9,912.3L1069.9,912.3h-46.5v-60.9h6.5"/>
						<line class="st0" x1="1069.9" y1="912.3" x2="1069.9" y2="905.9"/>
					</g>
					<g>
						<path class="st0" d="M1063.4,918.8L1063.4,918.8h-46.5v-60.9h6.5"/>
						<line class="st0" x1="1063.4" y1="918.8" x2="1063.4" y2="912.3"/>
					</g>
				</g>
			</g>
		</g>
		<g>
			<g>
				<g>
					<path class="st0" d="M1142.9,665.1h-46.5v-60.9h33.7l6.4,6.4l6.4,6.4V665.1L1142.9,665.1z"/>
					<path class="st0" d="M1142.9,617.1H1130v-12.9"/>
					<g>
						<path class="st0" d="M1136.4,671.6L1136.4,671.6h-46.5v-60.9h6.5"/>
						<line class="st0" x1="1136.4" y1="671.6" x2="1136.4" y2="665.1"/>
					</g>
					<g>
						<path class="st0" d="M1130,678L1130,678h-46.5v-60.9h6.5"/>
						<line class="st0" x1="1130" y1="678" x2="1130" y2="671.6"/>
					</g>
				</g>
				<g>
					<path class="st0" d="M1208.8,665.1h-46.5v-60.9h33.7l6.4,6.4l6.4,6.4V665.1L1208.8,665.1z"/>
					<g>
						<path class="st0" d="M1202.3,671.6L1202.3,671.6h-46.5v-60.9h6.5"/>
					</g>
					<g>
						<path class="st0" d="M1195.9,678L1195.9,678h-46.5v-60.9h6.5"/>
					</g>
				</g>
				<g>
					<path class="st0" d="M1142.9,745.4h-46.5v-60.9h33.7l6.4,6.4l6.4,6.4V745.4L1142.9,745.4z"/>
					<path class="st0" d="M1142.9,697.4H1130v-12.9"/>
					<g>
						<path class="st0" d="M1136.4,751.8L1136.4,751.8h-46.5v-60.9h6.5"/>
						<line class="st0" x1="1136.4" y1="751.8" x2="1136.4" y2="745.4"/>
					</g>
					<g>
						<path class="st0" d="M1130,758.3L1130,758.3h-46.5v-60.9h6.5"/>
						<line class="st0" x1="1130" y1="758.3" x2="1130" y2="751.8"/>
					</g>
				</g>
				<g>
					<path class="st0" d="M1208.8,745.4h-46.5v-60.9h33.7l6.4,6.4l6.4,6.4V745.4L1208.8,745.4z"/>
					<g>
						<path class="st0" d="M1202.3,751.8L1202.3,751.8h-46.5v-60.9h6.5"/>
					</g>
					<g>
						<path class="st0" d="M1195.9,758.3L1195.9,758.3h-46.5v-60.9h6.5"/>
					</g>
				</g>
			</g>
			<g>
				<g>
					<path class="st0" d="M1142.6,825.7H1096v-60.9h33.7l6.4,6.4l6.4,6.4L1142.6,825.7L1142.6,825.7z"/>
					<path class="st0" d="M1142.6,777.6h-12.9v-12.9"/>
					<g>
						<path class="st0" d="M1136.1,832.1L1136.1,832.1h-46.5v-60.9h6.5"/>
						<line class="st0" x1="1136.1" y1="832.1" x2="1136.1" y2="825.7"/>
					</g>
					<g>
						<path class="st0" d="M1129.6,838.5L1129.6,838.5h-46.5v-60.9h6.5"/>
						<line class="st0" x1="1129.6" y1="838.5" x2="1129.6" y2="832.1"/>
					</g>
				</g>
				<g>
					<path class="st0" d="M1208.4,825.7h-46.5v-60.9h33.7l6.4,6.4l6.4,6.4V825.7L1208.4,825.7z"/>
					<g>
						<path class="st0" d="M1202,832.1L1202,832.1h-46.5v-60.9h6.5"/>
					</g>
					<g>
						<path class="st0" d="M1195.5,838.5L1195.5,838.5H1149v-60.9h6.5"/>
					</g>
				</g>
				<g>
					<path class="st0" d="M1142.6,905.9H1096V845h33.7l6.4,6.4l6.4,6.4L1142.6,905.9L1142.6,905.9z"/>
					<path class="st0" d="M1142.6,857.9h-12.9V845"/>
					<g>
						<path class="st0" d="M1136.1,912.3L1136.1,912.3h-46.5v-60.9h6.5"/>
						<line class="st0" x1="1136.1" y1="912.3" x2="1136.1" y2="905.9"/>
					</g>
					<g>
						<path class="st0" d="M1129.6,918.8L1129.6,918.8h-46.5v-60.9h6.5"/>
						<line class="st0" x1="1129.6" y1="918.8" x2="1129.6" y2="912.3"/>
					</g>
				</g>
				<g>
					<path class="st0" d="M1208.4,905.9h-46.5V845h33.7l6.4,6.4l6.4,6.4V905.9L1208.4,905.9z"/>
					<g>
						<path class="st0" d="M1202,912.3L1202,912.3h-46.5v-60.9h6.5"/>
					</g>
					<g>
						<path class="st0" d="M1195.5,918.8L1195.5,918.8H1149v-60.9h6.5"/>
					</g>
				</g>
			</g>
		</g>
		<g>
			<g>
				<g>
					<path class="st0" d="M879.3,986.4h-46.5v-60.9h33.7l6.4,6.4l6.4,6.4L879.3,986.4L879.3,986.4z"/>
					<path class="st0" d="M879.3,938.3h-12.9v-12.9"/>
					<g>
						<path class="st0" d="M872.8,992.8L872.8,992.8h-46.5v-60.9h6.5"/>
						<line class="st0" x1="872.8" y1="992.8" x2="872.8" y2="986.4"/>
					</g>
					<g>
						<path class="st0" d="M866.4,999.2L866.4,999.2h-46.5v-60.9h6.5"/>
						<line class="st0" x1="866.4" y1="999.2" x2="866.4" y2="992.8"/>
					</g>
				</g>
				<g>
					<path class="st0" d="M945.2,986.4h-46.5v-60.9h33.7l6.4,6.4l6.4,6.4L945.2,986.4L945.2,986.4z"/>
					<path class="st0" d="M945.2,938.3h-12.9v-12.9"/>
					<g>
						<path class="st0" d="M938.7,992.8L938.7,992.8h-46.5v-60.9h6.5"/>
						<line class="st0" x1="938.7" y1="992.8" x2="938.7" y2="986.4"/>
					</g>
					<g>
						<path class="st0" d="M932.3,999.2L932.3,999.2h-46.5v-60.9h6.5"/>
						<line class="st0" x1="932.3" y1="999.2" x2="932.3" y2="992.8"/>
					</g>
				</g>
				<g>
					<path class="st0" d="M879.3,1066.6h-46.5v-60.9h33.7l6.4,6.4l6.4,6.4L879.3,1066.6L879.3,1066.6z"/>
					<path class="st0" d="M879.3,1018.6h-12.9v-12.9"/>
					<g>
						<path class="st0" d="M872.8,1073.1L872.8,1073.1h-46.5v-60.9h6.5"/>
						<line class="st0" x1="872.8" y1="1073.1" x2="872.8" y2="1066.6"/>
					</g>
					<g>
						<path class="st0" d="M866.4,1079.5L866.4,1079.5h-46.5v-60.9h6.5"/>
						<line class="st0" x1="866.4" y1="1079.5" x2="866.4" y2="1073.1"/>
					</g>
				</g>
				<g>
					<path class="st0" d="M945.2,1066.6h-46.5v-60.9h33.7l6.4,6.4l6.4,6.4L945.2,1066.6L945.2,1066.6z"/>
					<path class="st0" d="M945.2,1018.6h-12.9v-12.9"/>
					<g>
						<path class="st0" d="M938.7,1073.1L938.7,1073.1h-46.5v-60.9h6.5"/>
						<line class="st0" x1="938.7" y1="1073.1" x2="938.7" y2="1066.6"/>
					</g>
					<g>
						<path class="st0" d="M932.3,1079.5L932.3,1079.5h-46.5v-60.9h6.5"/>
						<line class="st0" x1="932.3" y1="1079.5" x2="932.3" y2="1073.1"/>
					</g>
				</g>
			</g>
			<g>
				<g>
					<path class="st0" d="M1011.1,986.4h-46.5v-60.9h33.7l6.4,6.4l6.4,6.4L1011.1,986.4L1011.1,986.4z"/>
					<path class="st0" d="M1011.1,938.3h-12.9v-12.9"/>
					<g>
						<path class="st0" d="M1004.6,992.8L1004.6,992.8h-46.5v-60.9h6.5"/>
						<line class="st0" x1="1004.6" y1="992.8" x2="1004.6" y2="986.4"/>
					</g>
					<g>
						<path class="st0" d="M998.2,999.2L998.2,999.2h-46.5v-60.9h6.5"/>
						<line class="st0" x1="998.2" y1="999.2" x2="998.2" y2="992.8"/>
					</g>
				</g>
				<g>
					<path class="st0" d="M1077,986.4h-46.5v-60.9h33.7l6.4,6.4l6.4,6.4V986.4L1077,986.4z"/>
					<path class="st0" d="M1077,938.3h-12.9v-12.9"/>
					<g>
						<path class="st0" d="M1070.5,992.8L1070.5,992.8H1024v-60.9h6.5"/>
						<line class="st0" x1="1070.5" y1="992.8" x2="1070.5" y2="986.4"/>
					</g>
					<g>
						<path class="st0" d="M1064.1,999.2L1064.1,999.2h-46.5v-60.9h6.5"/>
						<line class="st0" x1="1064.1" y1="999.2" x2="1064.1" y2="992.8"/>
					</g>
				</g>
				<g>
					<path class="st0" d="M1011.1,1066.6h-46.5v-60.9h33.7l6.4,6.4l6.4,6.4L1011.1,1066.6L1011.1,1066.6z"/>
					<path class="st0" d="M1011.1,1018.6h-12.9v-12.9"/>
					<g>
						<path class="st0" d="M1004.6,1073.1L1004.6,1073.1h-46.5v-60.9h6.5"/>
						<line class="st0" x1="1004.6" y1="1073.1" x2="1004.6" y2="1066.6"/>
					</g>
					<g>
						<path class="st0" d="M998.2,1079.5L998.2,1079.5h-46.5v-60.9h6.5"/>
						<line class="st0" x1="998.2" y1="1079.5" x2="998.2" y2="1073.1"/>
					</g>
				</g>
				<g>
					<path class="st0" d="M1077,1066.6h-46.5v-60.9h33.7l6.4,6.4l6.4,6.4V1066.6L1077,1066.6z"/>
					<path class="st0" d="M1077,1018.6h-12.9v-12.9"/>
					<g>
						<path class="st0" d="M1070.5,1073.1L1070.5,1073.1H1024v-60.9h6.5"/>
						<line class="st0" x1="1070.5" y1="1073.1" x2="1070.5" y2="1066.6"/>
					</g>
					<g>
						<path class="st0" d="M1064.1,1079.5L1064.1,1079.5h-46.5v-60.9h6.5"/>
						<line class="st0" x1="1064.1" y1="1079.5" x2="1064.1" y2="1073.1"/>
					</g>
				</g>
			</g>
			<g>
				<g>
					<path class="st0" d="M879,1146.9h-46.5V1086h33.7l6.4,6.4l6.4,6.4L879,1146.9L879,1146.9z"/>
					<path class="st0" d="M879,1098.8h-12.9v-12.9"/>
					<g>
						<path class="st0" d="M872.5,1153.3L872.5,1153.3H826v-60.9h6.5"/>
						<line class="st0" x1="872.5" y1="1153.3" x2="872.5" y2="1146.9"/>
					</g>
					<g>
						<path class="st0" d="M866.1,1159.7L866.1,1159.7h-46.5v-60.9h6.5"/>
						<line class="st0" x1="866.1" y1="1159.7" x2="866.1" y2="1153.3"/>
					</g>
				</g>
				<g>
					<path class="st0" d="M944.9,1146.9h-46.5V1086H932l6.4,6.4l6.4,6.4L944.9,1146.9L944.9,1146.9z"/>
					<path class="st0" d="M944.9,1098.8H932v-12.9"/>
					<g>
						<path class="st0" d="M938.4,1153.3L938.4,1153.3h-46.5v-60.9h6.5"/>
						<line class="st0" x1="938.4" y1="1153.3" x2="938.4" y2="1146.9"/>
					</g>
					<g>
						<path class="st0" d="M932,1159.7L932,1159.7h-46.5v-60.9h6.5"/>
						<line class="st0" x1="932" y1="1159.7" x2="932" y2="1153.3"/>
					</g>
				</g>
				<g>
					<path class="st0" d="M879,1227.1h-46.5v-60.9h33.7l6.4,6.4l6.4,6.4L879,1227.1L879,1227.1z"/>
					<path class="st0" d="M879,1179.1h-12.9v-12.9"/>
					<g>
						<path class="st0" d="M872.5,1233.6L872.5,1233.6H826v-60.9h6.5"/>
					</g>
					<g>
						<path class="st0" d="M866.1,1240L866.1,1240h-46.5v-60.9h6.5"/>
					</g>
				</g>
				<g>
					<path class="st0" d="M944.9,1227.1h-46.5v-60.9H932l6.4,6.4l6.4,6.4L944.9,1227.1L944.9,1227.1z"/>
					<path class="st0" d="M944.9,1179.1H932v-12.9"/>
					<g>
						<path class="st0" d="M938.4,1233.6L938.4,1233.6h-46.5v-60.9h6.5"/>
					</g>
					<g>
						<path class="st0" d="M932,1240L932,1240h-46.5v-60.9h6.5"/>
					</g>
				</g>
			</g>
			<g>
				<g>
					<path class="st0" d="M1010.8,1146.9h-46.5V1086H998l6.4,6.4l6.4,6.4L1010.8,1146.9L1010.8,1146.9z"/>
					<path class="st0" d="M1010.8,1098.8h-12.9v-12.9"/>
					<g>
						<path class="st0" d="M1004.3,1153.3L1004.3,1153.3h-46.5v-60.9h6.5"/>
						<line class="st0" x1="1004.3" y1="1153.3" x2="1004.3" y2="1146.9"/>
					</g>
					<g>
						<path class="st0" d="M997.9,1159.7L997.9,1159.7h-46.5v-60.9h6.5"/>
						<line class="st0" x1="997.9" y1="1159.7" x2="997.9" y2="1153.3"/>
					</g>
				</g>
				<g>
					<path class="st0" d="M1076.7,1146.9h-46.5V1086h33.7l6.4,6.4l6.4,6.4V1146.9L1076.7,1146.9z"/>
					<path class="st0" d="M1076.7,1098.8h-12.9v-12.9"/>
					<g>
						<path class="st0" d="M1070.2,1153.3L1070.2,1153.3h-46.5v-60.9h6.5"/>
						<line class="st0" x1="1070.2" y1="1153.3" x2="1070.2" y2="1146.9"/>
					</g>
					<g>
						<path class="st0" d="M1063.8,1159.7L1063.8,1159.7h-46.5v-60.9h6.5"/>
						<line class="st0" x1="1063.8" y1="1159.7" x2="1063.8" y2="1153.3"/>
					</g>
				</g>
				<g>
					<path class="st0" d="M1010.8,1227.1h-46.5v-60.9H998l6.4,6.4l6.4,6.4L1010.8,1227.1L1010.8,1227.1z"/>
					<path class="st0" d="M1010.8,1179.1h-12.9v-12.9"/>
					<g>
						<path class="st0" d="M1004.3,1233.6L1004.3,1233.6h-46.5v-60.9h6.5"/>
					</g>
					<g>
						<path class="st0" d="M997.9,1240L997.9,1240h-46.5v-60.9h6.5"/>
					</g>
				</g>
				<g>
					<path class="st0" d="M1076.7,1227.1h-46.5v-60.9h33.7l6.4,6.4l6.4,6.4V1227.1L1076.7,1227.1z"/>
					<path class="st0" d="M1076.7,1179.1h-12.9v-12.9"/>
					<g>
						<path class="st0" d="M1070.2,1233.6L1070.2,1233.6h-46.5v-60.9h6.5"/>
					</g>
					<g>
						<path class="st0" d="M1063.8,1240L1063.8,1240h-46.5v-60.9h6.5"/>
					</g>
				</g>
			</g>
		</g>
		<g>
			<g>
				<g>
					<path class="st0" d="M1143.2,986.4h-46.5v-60.9h33.7l6.4,6.4l6.4,6.4V986.4L1143.2,986.4z"/>
					<path class="st0" d="M1143.2,938.3h-12.9v-12.9"/>
					<g>
						<path class="st0" d="M1136.7,992.8L1136.7,992.8h-46.5v-60.9h6.5"/>
						<line class="st0" x1="1136.7" y1="992.8" x2="1136.7" y2="986.4"/>
					</g>
					<g>
						<path class="st0" d="M1130.3,999.2L1130.3,999.2h-46.5v-60.9h6.5"/>
						<line class="st0" x1="1130.3" y1="999.2" x2="1130.3" y2="992.8"/>
					</g>
				</g>
				<g>
					<path class="st0" d="M1209.1,986.4h-46.5v-60.9h33.7l6.4,6.4l6.4,6.4V986.4L1209.1,986.4z"/>
					<g>
						<path class="st0" d="M1202.6,992.8L1202.6,992.8h-46.5v-60.9h6.5"/>
					</g>
					<g>
						<path class="st0" d="M1196.2,999.2L1196.2,999.2h-46.5v-60.9h6.5"/>
					</g>
				</g>
				<g>
					<path class="st0" d="M1143.2,1066.6h-46.5v-60.9h33.7l6.4,6.4l6.4,6.4V1066.6L1143.2,1066.6z"/>
					<path class="st0" d="M1143.2,1018.6h-12.9v-12.9"/>
					<g>
						<path class="st0" d="M1136.7,1073.1L1136.7,1073.1h-46.5v-60.9h6.5"/>
						<line class="st0" x1="1136.7" y1="1073.1" x2="1136.7" y2="1066.6"/>
					</g>
					<g>
						<path class="st0" d="M1130.3,1079.5L1130.3,1079.5h-46.5v-60.9h6.5"/>
						<line class="st0" x1="1130.3" y1="1079.5" x2="1130.3" y2="1073.1"/>
					</g>
				</g>
				<g>
					<path class="st0" d="M1209.1,1066.6h-46.5v-60.9h33.7l6.4,6.4l6.4,6.4V1066.6L1209.1,1066.6z"/>
					<g>
						<path class="st0" d="M1202.6,1073.1L1202.6,1073.1h-46.5v-60.9h6.5"/>
					</g>
					<g>
						<path class="st0" d="M1196.2,1079.5L1196.2,1079.5h-46.5v-60.9h6.5"/>
					</g>
				</g>
			</g>
			<g>
				<g>
					<path class="st0" d="M1142.9,1146.9h-46.5V1086h33.7l6.4,6.4l6.4,6.4V1146.9L1142.9,1146.9z"/>
					<path class="st0" d="M1142.9,1098.8H1130v-12.9"/>
					<g>
						<path class="st0" d="M1136.4,1153.3L1136.4,1153.3h-46.5v-60.9h6.5"/>
						<line class="st0" x1="1136.4" y1="1153.3" x2="1136.4" y2="1146.9"/>
					</g>
					<g>
						<path class="st0" d="M1130,1159.7L1130,1159.7h-46.5v-60.9h6.5"/>
						<line class="st0" x1="1130" y1="1159.7" x2="1130" y2="1153.3"/>
					</g>
				</g>
				<g>
					<path class="st0" d="M1208.8,1146.9h-46.5V1086h33.7l6.4,6.4l6.4,6.4V1146.9L1208.8,1146.9z"/>
					<g>
						<path class="st0" d="M1202.3,1153.3L1202.3,1153.3h-46.5v-60.9h6.5"/>
					</g>
					<g>
						<path class="st0" d="M1195.9,1159.7L1195.9,1159.7h-46.5v-60.9h6.5"/>
					</g>
				</g>
				<g>
					<path class="st0" d="M1142.9,1227.1h-46.5v-60.9h33.7l6.4,6.4l6.4,6.4V1227.1L1142.9,1227.1z"/>
					<path class="st0" d="M1142.9,1179.1H1130v-12.9"/>
					<g>
						<path class="st0" d="M1136.4,1233.6L1136.4,1233.6h-46.5v-60.9h6.5"/>
					</g>
					<g>
						<path class="st0" d="M1130,1240L1130,1240h-46.5v-60.9h6.5"/>
					</g>
				</g>
				<g>
					<path class="st0" d="M1208.8,1227.1h-46.5v-60.9h33.7l6.4,6.4l6.4,6.4V1227.1L1208.8,1227.1z"/>
					<g>
						<path class="st0" d="M1202.3,1233.6L1202.3,1233.6h-46.5v-60.9h6.5"/>
					</g>
					<g>
						<path class="st0" d="M1195.9,1240L1195.9,1240h-46.5v-60.9h6.5"/>
					</g>
				</g>
			</g>
		</g>
	</g>
</g>
<g>
	<g>
		<g>
			<g>
				<g>
					<path class="st0" d="M812.6,22.9h-46.5V-38h33.7l6.4,6.4l6.4,6.4L812.6,22.9L812.6,22.9z"/>
					<g>
						<path class="st0" d="M806.2,29.4L806.2,29.4h-46.5v-60.9h6.5"/>
						<line class="st0" x1="806.2" y1="29.4" x2="806.2" y2="22.9"/>
					</g>
					<g>
						<path class="st0" d="M799.7,35.8L799.7,35.8h-46.5v-60.9h6.5"/>
						<line class="st0" x1="799.7" y1="35.8" x2="799.7" y2="29.4"/>
					</g>
				</g>
				<g>
					<path class="st0" d="M746.7,22.9h-46.5V-38h33.7l6.4,6.4l6.4,6.4L746.7,22.9L746.7,22.9z"/>
					<g>
						<path class="st0" d="M740.3,29.4L740.3,29.4h-46.5v-60.9h6.5"/>
						<line class="st0" x1="740.3" y1="29.4" x2="740.3" y2="22.9"/>
					</g>
					<g>
						<path class="st0" d="M733.8,35.8L733.8,35.8h-46.5v-60.9h6.5"/>
						<line class="st0" x1="733.8" y1="35.8" x2="733.8" y2="29.4"/>
					</g>
				</g>
				<g>
					<path class="st0" d="M812.6,103.2h-46.5V42.3h33.7l6.4,6.4l6.4,6.4L812.6,103.2L812.6,103.2z"/>
					<path class="st0" d="M812.6,55.1h-12.9V42.2"/>
					<g>
						<path class="st0" d="M806.2,109.6L806.2,109.6h-46.5V48.7h6.5"/>
						<line class="st0" x1="806.2" y1="109.6" x2="806.2" y2="103.2"/>
					</g>
					<g>
						<path class="st0" d="M799.7,116.1L799.7,116.1h-46.5v-61h6.5"/>
						<line class="st0" x1="799.7" y1="116.1" x2="799.7" y2="109.6"/>
					</g>
				</g>
				<g>
					<path class="st0" d="M746.7,103.2h-46.5V42.3h33.7l6.4,6.4l6.4,6.4L746.7,103.2L746.7,103.2z"/>
					<path class="st0" d="M746.7,55.1h-12.9V42.2"/>
					<g>
						<path class="st0" d="M740.3,109.6L740.3,109.6h-46.5V48.7h6.5"/>
						<line class="st0" x1="740.3" y1="109.6" x2="740.3" y2="103.2"/>
					</g>
					<g>
						<path class="st0" d="M733.8,116.1L733.8,116.1h-46.5v-61h6.5"/>
						<line class="st0" x1="733.8" y1="116.1" x2="733.8" y2="109.6"/>
					</g>
				</g>
			</g>
			<g>
				<g>
					<path class="st0" d="M614.9,22.9h-46.5V-38h33.7l6.4,6.4l6.4,6.4L614.9,22.9L614.9,22.9z"/>
					<g>
						<path class="st0" d="M608.5,29.4L608.5,29.4H562v-60.9h6.5"/>
						<line class="st0" x1="608.5" y1="29.4" x2="608.5" y2="22.9"/>
					</g>
					<g>
						<path class="st0" d="M602,35.8L602,35.8h-46.5v-60.9h6.5"/>
						<line class="st0" x1="602" y1="35.8" x2="602" y2="29.4"/>
					</g>
				</g>
				<g>
					<path class="st0" d="M680.8,22.9h-46.5V-38H668l6.4,6.4l6.4,6.4L680.8,22.9L680.8,22.9z"/>
					<g>
						<path class="st0" d="M674.4,29.4L674.4,29.4h-46.5v-60.9h6.5"/>
						<line class="st0" x1="674.4" y1="29.4" x2="674.4" y2="22.9"/>
					</g>
					<g>
						<path class="st0" d="M667.9,35.8L667.9,35.8h-46.5v-60.9h6.5"/>
						<line class="st0" x1="667.9" y1="35.8" x2="667.9" y2="29.4"/>
					</g>
				</g>
				<g>
					<path class="st0" d="M614.9,103.2h-46.5V42.3h33.7l6.4,6.4l6.4,6.4L614.9,103.2L614.9,103.2z"/>
					<path class="st0" d="M614.9,55.1H602V42.2"/>
					<g>
						<path class="st0" d="M608.5,109.6L608.5,109.6H562V48.7h6.5"/>
						<line class="st0" x1="608.5" y1="109.6" x2="608.5" y2="103.2"/>
					</g>
					<g>
						<path class="st0" d="M602,116.1L602,116.1h-46.5v-61h6.5"/>
						<line class="st0" x1="602" y1="116.1" x2="602" y2="109.6"/>
					</g>
				</g>
				<g>
					<path class="st0" d="M680.8,103.2h-46.5V42.3H668l6.4,6.4l6.4,6.4L680.8,103.2L680.8,103.2z"/>
					<path class="st0" d="M680.8,55.1h-12.9V42.2"/>
					<g>
						<path class="st0" d="M674.4,109.6L674.4,109.6h-46.5V48.7h6.5"/>
						<line class="st0" x1="674.4" y1="109.6" x2="674.4" y2="103.2"/>
					</g>
					<g>
						<path class="st0" d="M667.9,116.1L667.9,116.1h-46.5v-61h6.5"/>
						<line class="st0" x1="667.9" y1="116.1" x2="667.9" y2="109.6"/>
					</g>
				</g>
			</g>
			<g>
				<g>
					<path class="st0" d="M812.3,183.4h-46.5v-60.9h33.7l6.4,6.4l6.4,6.4L812.3,183.4L812.3,183.4z"/>
					<path class="st0" d="M812.3,135.4h-12.9v-12.9"/>
					<g>
						<path class="st0" d="M805.9,189.9L805.9,189.9h-46.5V129h6.5"/>
						<line class="st0" x1="805.9" y1="189.9" x2="805.9" y2="183.4"/>
					</g>
					<g>
						<path class="st0" d="M799.4,196.3L799.4,196.3h-46.5v-60.9h6.5"/>
						<line class="st0" x1="799.4" y1="196.3" x2="799.4" y2="189.9"/>
					</g>
				</g>
				<g>
					<path class="st0" d="M746.4,183.4h-46.5v-60.9h33.7l6.4,6.4l6.4,6.4L746.4,183.4L746.4,183.4z"/>
					<path class="st0" d="M746.4,135.4h-12.9v-12.9"/>
					<g>
						<path class="st0" d="M740,189.9L740,189.9h-46.5V129h6.5"/>
						<line class="st0" x1="740" y1="189.9" x2="740" y2="183.4"/>
					</g>
					<g>
						<path class="st0" d="M733.5,196.3L733.5,196.3H687v-60.9h6.5"/>
						<line class="st0" x1="733.5" y1="196.3" x2="733.5" y2="189.9"/>
					</g>
				</g>
				<g>
					<path class="st0" d="M812.3,263.7h-46.5v-60.9h33.7l6.4,6.4l6.4,6.4L812.3,263.7L812.3,263.7z"/>
					<path class="st0" d="M812.3,215.6h-12.9v-12.9"/>
					<g>
						<path class="st0" d="M805.9,270.1L805.9,270.1h-46.5v-60.9h6.5"/>
						<line class="st0" x1="805.9" y1="270.1" x2="805.9" y2="263.7"/>
					</g>
					<g>
						<path class="st0" d="M799.4,276.6L799.4,276.6h-46.5v-60.9h6.5"/>
						<line class="st0" x1="799.4" y1="276.6" x2="799.4" y2="270.1"/>
					</g>
				</g>
				<g>
					<path class="st0" d="M746.4,263.7h-46.5v-60.9h33.7l6.4,6.4l6.4,6.4L746.4,263.7L746.4,263.7z"/>
					<path class="st0" d="M746.4,215.6h-12.9v-12.9"/>
					<g>
						<path class="st0" d="M740,270.1L740,270.1h-46.5v-60.9h6.5"/>
						<line class="st0" x1="740" y1="270.1" x2="740" y2="263.7"/>
					</g>
					<g>
						<path class="st0" d="M733.5,276.6L733.5,276.6H687v-60.9h6.5"/>
						<line class="st0" x1="733.5" y1="276.6" x2="733.5" y2="270.1"/>
					</g>
				</g>
			</g>
			<g>
				<g>
					<path class="st0" d="M614.6,183.4h-46.5v-60.9h33.7l6.4,6.4l6.4,6.4L614.6,183.4L614.6,183.4z"/>
					<path class="st0" d="M614.6,135.4h-12.9v-12.9"/>
					<g>
						<path class="st0" d="M608.2,189.9L608.2,189.9h-46.5V129h6.5"/>
						<line class="st0" x1="608.2" y1="189.9" x2="608.2" y2="183.4"/>
					</g>
					<g>
						<path class="st0" d="M601.7,196.3L601.7,196.3h-46.5v-60.9h6.5"/>
						<line class="st0" x1="601.7" y1="196.3" x2="601.7" y2="189.9"/>
					</g>
				</g>
				<g>
					<path class="st0" d="M680.5,183.4H634v-60.9h33.7l6.4,6.4l6.4,6.4L680.5,183.4L680.5,183.4z"/>
					<path class="st0" d="M680.5,135.4h-12.9v-12.9"/>
					<g>
						<path class="st0" d="M674.1,189.9L674.1,189.9h-46.5V129h6.5"/>
						<line class="st0" x1="674.1" y1="189.9" x2="674.1" y2="183.4"/>
					</g>
					<g>
						<path class="st0" d="M667.6,196.3L667.6,196.3h-46.5v-60.9h6.5"/>
						<line class="st0" x1="667.6" y1="196.3" x2="667.6" y2="189.9"/>
					</g>
				</g>
				<g>
					<path class="st0" d="M614.6,263.7h-46.5v-60.9h33.7l6.4,6.4l6.4,6.4L614.6,263.7L614.6,263.7z"/>
					<path class="st0" d="M614.6,215.6h-12.9v-12.9"/>
					<g>
						<path class="st0" d="M608.2,270.1L608.2,270.1h-46.5v-60.9h6.5"/>
						<line class="st0" x1="608.2" y1="270.1" x2="608.2" y2="263.7"/>
					</g>
					<g>
						<path class="st0" d="M601.7,276.6L601.7,276.6h-46.5v-60.9h6.5"/>
						<line class="st0" x1="601.7" y1="276.6" x2="601.7" y2="270.1"/>
					</g>
				</g>
				<g>
					<path class="st0" d="M680.5,263.7H634v-60.9h33.7l6.4,6.4l6.4,6.4L680.5,263.7L680.5,263.7z"/>
					<path class="st0" d="M680.5,215.6h-12.9v-12.9"/>
					<g>
						<path class="st0" d="M674.1,270.1L674.1,270.1h-46.5v-60.9h6.5"/>
						<line class="st0" x1="674.1" y1="270.1" x2="674.1" y2="263.7"/>
					</g>
					<g>
						<path class="st0" d="M667.6,276.6L667.6,276.6h-46.5v-60.9h6.5"/>
						<line class="st0" x1="667.6" y1="276.6" x2="667.6" y2="270.1"/>
					</g>
				</g>
			</g>
		</g>
		<g>
			<g>
				<g>
					<path class="st0" d="M548.7,22.9h-46.5V-38h33.7l6.4,6.4l6.4,6.4L548.7,22.9L548.7,22.9z"/>
					<g>
						<path class="st0" d="M542.3,29.4L542.3,29.4h-46.5v-60.9h6.5"/>
						<line class="st0" x1="542.3" y1="29.4" x2="542.3" y2="22.9"/>
					</g>
					<g>
						<path class="st0" d="M535.8,35.8L535.8,35.8h-46.5v-60.9h6.5"/>
						<line class="st0" x1="535.8" y1="35.8" x2="535.8" y2="29.4"/>
					</g>
				</g>
				<g>
					<path class="st0" d="M482.8,22.9h-46.5V-38H470l6.4,6.4l6.4,6.4V22.9L482.8,22.9z"/>
					<g>
						<path class="st0" d="M476.4,29.4L476.4,29.4h-46.5v-60.9h6.5"/>
						<line class="st0" x1="476.4" y1="29.4" x2="476.4" y2="22.9"/>
					</g>
					<g>
						<path class="st0" d="M469.9,35.8L469.9,35.8h-46.5v-60.9h6.5"/>
						<line class="st0" x1="469.9" y1="35.8" x2="469.9" y2="29.4"/>
					</g>
				</g>
				<g>
					<path class="st0" d="M548.7,103.2h-46.5V42.3h33.7l6.4,6.4l6.4,6.4L548.7,103.2L548.7,103.2z"/>
					<path class="st0" d="M548.7,55.1h-12.9V42.2"/>
					<g>
						<path class="st0" d="M542.3,109.6L542.3,109.6h-46.5V48.7h6.5"/>
						<line class="st0" x1="542.3" y1="109.6" x2="542.3" y2="103.2"/>
					</g>
					<g>
						<path class="st0" d="M535.8,116.1L535.8,116.1h-46.5v-61h6.5"/>
						<line class="st0" x1="535.8" y1="116.1" x2="535.8" y2="109.6"/>
					</g>
				</g>
			</g>
			<g>
				<g>
					<path class="st0" d="M417.3,22.9h-46.5V-38h33.7l6.4,6.4l6.4,6.4V22.9L417.3,22.9z"/>
					<g>
						<path class="st0" d="M410.8,29.4L410.8,29.4h-46.5v-60.9h6.5"/>
						<line class="st0" x1="410.8" y1="29.4" x2="410.8" y2="22.9"/>
					</g>
					<g>
						<path class="st0" d="M404.4,35.8L404.4,35.8h-46.5v-60.9h6.5"/>
						<line class="st0" x1="404.4" y1="35.8" x2="404.4" y2="29.4"/>
					</g>
				</g>
				<g>
					<path class="st0" d="M351,22.9h-46.5V-38h33.7l6.4,6.4l6.4,6.4V22.9L351,22.9z"/>
					<g>
						<path class="st0" d="M344.6,29.4L344.6,29.4h-46.5v-60.9h6.5"/>
						<line class="st0" x1="344.6" y1="29.4" x2="344.6" y2="22.9"/>
					</g>
					<g>
						<path class="st0" d="M338.1,35.8L338.1,35.8h-46.5v-60.9h6.5"/>
						<line class="st0" x1="338.1" y1="35.8" x2="338.1" y2="29.4"/>
					</g>
				</g>
				<g>
					<path class="st0" d="M417.3,103.2h-46.5V42.3h33.7l6.4,6.4l6.4,6.4V103.2L417.3,103.2z"/>
					<path class="st0" d="M417.3,55.1h-12.9V42.2"/>
					<g>
						<path class="st0" d="M410.8,109.6L410.8,109.6h-46.5V48.7h6.5"/>
						<line class="st0" x1="410.8" y1="109.6" x2="410.8" y2="103.2"/>
					</g>
					<g>
						<path class="st0" d="M404.4,116.1L404.4,116.1h-46.5v-61h6.5"/>
						<line class="st0" x1="404.4" y1="116.1" x2="404.4" y2="109.6"/>
					</g>
				</g>
				<g>
					<path class="st0" d="M351,103.2h-46.5V42.3h33.7l6.4,6.4l6.4,6.4V103.2L351,103.2z"/>
					<path class="st0" d="M351,55.1h-12.9V42.2"/>
					<g>
						<path class="st0" d="M344.6,109.6L344.6,109.6h-46.5V48.7h6.5"/>
						<line class="st0" x1="344.6" y1="109.6" x2="344.6" y2="103.2"/>
					</g>
					<g>
						<path class="st0" d="M338.1,116.1L338.1,116.1h-46.5v-61h6.5"/>
						<line class="st0" x1="338.1" y1="116.1" x2="338.1" y2="109.6"/>
					</g>
				</g>
			</g>
			<g>
				<g>
					<path class="st0" d="M548.4,183.4h-46.5v-60.9h33.7l6.4,6.4l6.4,6.4L548.4,183.4L548.4,183.4z"/>
					<path class="st0" d="M548.4,135.4h-12.9v-12.9"/>
					<g>
						<path class="st0" d="M542,189.9L542,189.9h-46.5V129h6.5"/>
						<line class="st0" x1="542" y1="189.9" x2="542" y2="183.4"/>
					</g>
					<g>
						<path class="st0" d="M535.5,196.3L535.5,196.3H489v-60.9h6.5"/>
						<line class="st0" x1="535.5" y1="196.3" x2="535.5" y2="189.9"/>
					</g>
				</g>
				<g>
					<path class="st0" d="M482.5,183.4H436v-60.9h33.7l6.4,6.4l6.4,6.4V183.4L482.5,183.4z"/>
					<path class="st0" d="M482.5,135.4h-12.9v-12.9"/>
					<g>
						<path class="st0" d="M476.1,189.9L476.1,189.9h-46.5V129h6.5"/>
						<line class="st0" x1="476.1" y1="189.9" x2="476.1" y2="183.4"/>
					</g>
					<g>
						<path class="st0" d="M469.6,196.3L469.6,196.3h-46.5v-60.9h6.5"/>
						<line class="st0" x1="469.6" y1="196.3" x2="469.6" y2="189.9"/>
					</g>
				</g>
				<g>
					<path class="st0" d="M548.4,263.7h-46.5v-60.9h33.7l6.4,6.4l6.4,6.4L548.4,263.7L548.4,263.7z"/>
					<path class="st0" d="M548.4,215.6h-12.9v-12.9"/>
					<g>
						<path class="st0" d="M542,270.1L542,270.1h-46.5v-60.9h6.5"/>
						<line class="st0" x1="542" y1="270.1" x2="542" y2="263.7"/>
					</g>
					<g>
						<path class="st0" d="M535.5,276.6L535.5,276.6H489v-60.9h6.5"/>
						<line class="st0" x1="535.5" y1="276.6" x2="535.5" y2="270.1"/>
					</g>
				</g>
				<g>
					<path class="st0" d="M482.5,263.7H436v-60.9h33.7l6.4,6.4l6.4,6.4V263.7L482.5,263.7z"/>
					<path class="st0" d="M482.5,215.6h-12.9v-12.9"/>
					<g>
						<path class="st0" d="M476.1,270.1L476.1,270.1h-46.5v-60.9h6.5"/>
						<line class="st0" x1="476.1" y1="270.1" x2="476.1" y2="263.7"/>
					</g>
					<g>
						<path class="st0" d="M469.6,276.6L469.6,276.6h-46.5v-60.9h6.5"/>
						<line class="st0" x1="469.6" y1="276.6" x2="469.6" y2="270.1"/>
					</g>
				</g>
			</g>
			<g>
				<g>
					<path class="st0" d="M416.9,183.4h-46.5v-60.9h33.7l6.4,6.4l6.4,6.4V183.4L416.9,183.4z"/>
					<path class="st0" d="M416.9,135.4H404v-12.9"/>
					<g>
						<path class="st0" d="M410.5,189.9L410.5,189.9H364V129h6.5"/>
						<line class="st0" x1="410.5" y1="189.9" x2="410.5" y2="183.4"/>
					</g>
					<g>
						<path class="st0" d="M404,196.3L404,196.3h-46.5v-60.9h6.5"/>
						<line class="st0" x1="404" y1="196.3" x2="404" y2="189.9"/>
					</g>
				</g>
				<g>
					<path class="st0" d="M350.7,183.4h-46.5v-60.9h33.7l6.4,6.4l6.4,6.4V183.4L350.7,183.4z"/>
					<path class="st0" d="M350.7,135.4h-12.9v-12.9"/>
					<g>
						<path class="st0" d="M344.3,189.9L344.3,189.9h-46.5V129h6.5"/>
						<line class="st0" x1="344.3" y1="189.9" x2="344.3" y2="183.4"/>
					</g>
					<g>
						<path class="st0" d="M337.8,196.3L337.8,196.3h-46.5v-60.9h6.5"/>
						<line class="st0" x1="337.8" y1="196.3" x2="337.8" y2="189.9"/>
					</g>
				</g>
				<g>
					<path class="st0" d="M416.9,263.7h-46.5v-60.9h33.7l6.4,6.4l6.4,6.4V263.7L416.9,263.7z"/>
					<path class="st0" d="M416.9,215.6H404v-12.9"/>
					<g>
						<path class="st0" d="M410.5,270.1L410.5,270.1H364v-60.9h6.5"/>
						<line class="st0" x1="410.5" y1="270.1" x2="410.5" y2="263.7"/>
					</g>
					<g>
						<path class="st0" d="M404,276.6L404,276.6h-46.5v-60.9h6.5"/>
						<line class="st0" x1="404" y1="276.6" x2="404" y2="270.1"/>
					</g>
				</g>
				<g>
					<path class="st0" d="M350.7,263.7h-46.5v-60.9h33.7l6.4,6.4l6.4,6.4V263.7L350.7,263.7z"/>
					<path class="st0" d="M350.7,215.6h-12.9v-12.9"/>
					<g>
						<path class="st0" d="M344.3,270.1L344.3,270.1h-46.5v-60.9h6.5"/>
						<line class="st0" x1="344.3" y1="270.1" x2="344.3" y2="263.7"/>
					</g>
					<g>
						<path class="st0" d="M337.8,276.6L337.8,276.6h-46.5v-60.9h6.5"/>
						<line class="st0" x1="337.8" y1="276.6" x2="337.8" y2="270.1"/>
					</g>
				</g>
			</g>
		</g>
		<g>
			<g>
				<g>
					<path class="st0" d="M813,344.1h-46.5v-60.9h33.7l6.4,6.4l6.4,6.4L813,344.1L813,344.1z"/>
					<path class="st0" d="M813,296.1h-12.9v-12.9"/>
					<g>
						<path class="st0" d="M806.5,350.6L806.5,350.6H760v-60.9h6.5"/>
						<line class="st0" x1="806.5" y1="350.6" x2="806.5" y2="344.1"/>
					</g>
					<g>
						<path class="st0" d="M800.1,357L800.1,357h-46.5v-60.9h6.5"/>
						<line class="st0" x1="800.1" y1="357" x2="800.1" y2="350.6"/>
					</g>
				</g>
				<g>
					<path class="st0" d="M747.1,344.1h-46.5v-60.9h33.7l6.4,6.4l6.4,6.4L747.1,344.1L747.1,344.1z"/>
					<path class="st0" d="M747.1,296.1h-12.9v-12.9"/>
					<g>
						<path class="st0" d="M740.6,350.6L740.6,350.6h-46.5v-60.9h6.5"/>
						<line class="st0" x1="740.6" y1="350.6" x2="740.6" y2="344.1"/>
					</g>
					<g>
						<path class="st0" d="M734.2,357L734.2,357h-46.5v-60.9h6.5"/>
						<line class="st0" x1="734.2" y1="357" x2="734.2" y2="350.6"/>
					</g>
				</g>
				<g>
					<path class="st0" d="M813,424.4h-46.5v-60.9h33.7l6.4,6.4l6.4,6.4L813,424.4L813,424.4z"/>
					<path class="st0" d="M813,376.3h-12.9v-12.9"/>
					<g>
						<path class="st0" d="M806.5,430.8L806.5,430.8H760v-60.9h6.5"/>
						<line class="st0" x1="806.5" y1="430.8" x2="806.5" y2="424.4"/>
					</g>
					<g>
						<path class="st0" d="M800.1,437.3L800.1,437.3h-46.5v-60.9h6.5"/>
						<line class="st0" x1="800.1" y1="437.3" x2="800.1" y2="430.8"/>
					</g>
				</g>
				<g>
					<path class="st0" d="M747.1,424.4h-46.5v-60.9h33.7l6.4,6.4l6.4,6.4L747.1,424.4L747.1,424.4z"/>
					<path class="st0" d="M747.1,376.3h-12.9v-12.9"/>
					<g>
						<path class="st0" d="M740.6,430.8L740.6,430.8h-46.5v-60.9h6.5"/>
						<line class="st0" x1="740.6" y1="430.8" x2="740.6" y2="424.4"/>
					</g>
					<g>
						<path class="st0" d="M734.2,437.3L734.2,437.3h-46.5v-60.9h6.5"/>
						<line class="st0" x1="734.2" y1="437.3" x2="734.2" y2="430.8"/>
					</g>
				</g>
			</g>
			<g>
				<g>
					<path class="st0" d="M615.3,344.1h-46.5v-60.9h33.7l6.4,6.4l6.4,6.4L615.3,344.1L615.3,344.1z"/>
					<path class="st0" d="M615.3,296.1h-12.9v-12.9"/>
					<g>
						<path class="st0" d="M608.8,350.6L608.8,350.6h-46.5v-60.9h6.5"/>
						<line class="st0" x1="608.8" y1="350.6" x2="608.8" y2="344.1"/>
					</g>
					<g>
						<path class="st0" d="M602.4,357L602.4,357h-46.5v-60.9h6.5"/>
						<line class="st0" x1="602.4" y1="357" x2="602.4" y2="350.6"/>
					</g>
				</g>
				<g>
					<path class="st0" d="M681.2,344.1h-46.5v-60.9h33.7l6.4,6.4l6.4,6.4L681.2,344.1L681.2,344.1z"/>
					<path class="st0" d="M681.2,296.1h-12.9v-12.9"/>
					<g>
						<path class="st0" d="M674.7,350.6L674.7,350.6h-46.5v-60.9h6.5"/>
						<line class="st0" x1="674.7" y1="350.6" x2="674.7" y2="344.1"/>
					</g>
					<g>
						<path class="st0" d="M668.3,357L668.3,357h-46.5v-60.9h6.5"/>
						<line class="st0" x1="668.3" y1="357" x2="668.3" y2="350.6"/>
					</g>
				</g>
				<g>
					<path class="st0" d="M615.3,424.4h-46.5v-60.9h33.7l6.4,6.4l6.4,6.4L615.3,424.4L615.3,424.4z"/>
					<path class="st0" d="M615.3,376.3h-12.9v-12.9"/>
					<g>
						<path class="st0" d="M608.8,430.8L608.8,430.8h-46.5v-60.9h6.5"/>
						<line class="st0" x1="608.8" y1="430.8" x2="608.8" y2="424.4"/>
					</g>
					<g>
						<path class="st0" d="M602.4,437.3L602.4,437.3h-46.5v-60.9h6.5"/>
						<line class="st0" x1="602.4" y1="437.3" x2="602.4" y2="430.8"/>
					</g>
				</g>
				<g>
					<path class="st0" d="M681.2,424.4h-46.5v-60.9h33.7l6.4,6.4l6.4,6.4L681.2,424.4L681.2,424.4z"/>
					<path class="st0" d="M681.2,376.3h-12.9v-12.9"/>
					<g>
						<path class="st0" d="M674.7,430.8L674.7,430.8h-46.5v-60.9h6.5"/>
						<line class="st0" x1="674.7" y1="430.8" x2="674.7" y2="424.4"/>
					</g>
					<g>
						<path class="st0" d="M668.3,437.3L668.3,437.3h-46.5v-60.9h6.5"/>
						<line class="st0" x1="668.3" y1="437.3" x2="668.3" y2="430.8"/>
					</g>
				</g>
			</g>
			<g>
				<g>
					<path class="st0" d="M746.7,504.6h-46.5v-60.9h33.7l6.4,6.4l6.4,6.4L746.7,504.6L746.7,504.6z"/>
					<path class="st0" d="M746.7,456.6h-12.9v-12.9"/>
					<g>
						<path class="st0" d="M740.3,511.1L740.3,511.1h-46.5v-60.9h6.5"/>
						<line class="st0" x1="740.3" y1="511.1" x2="740.3" y2="504.6"/>
					</g>
					<g>
						<path class="st0" d="M733.8,517.5L733.8,517.5h-46.5v-60.9h6.5"/>
						<line class="st0" x1="733.8" y1="517.5" x2="733.8" y2="511.1"/>
					</g>
				</g>
			</g>
		</g>
		<g>
			<g>
				<g>
					<path class="st0" d="M549.1,344.1h-46.5v-60.9h33.7l6.4,6.4l6.4,6.4L549.1,344.1L549.1,344.1z"/>
					<path class="st0" d="M549.1,296.1h-12.9v-12.9"/>
					<g>
						<path class="st0" d="M542.6,350.6L542.6,350.6h-46.5v-60.9h6.5"/>
						<line class="st0" x1="542.6" y1="350.6" x2="542.6" y2="344.1"/>
					</g>
					<g>
						<path class="st0" d="M536.2,357L536.2,357h-46.5v-60.9h6.5"/>
						<line class="st0" x1="536.2" y1="357" x2="536.2" y2="350.6"/>
					</g>
				</g>
				<g>
					<path class="st0" d="M483.2,344.1h-46.5v-60.9h33.7l6.4,6.4l6.4,6.4V344.1L483.2,344.1z"/>
					<path class="st0" d="M483.2,296.1h-12.9v-12.9"/>
					<g>
						<path class="st0" d="M476.7,350.6L476.7,350.6h-46.5v-60.9h6.5"/>
						<line class="st0" x1="476.7" y1="350.6" x2="476.7" y2="344.1"/>
					</g>
					<g>
						<path class="st0" d="M470.3,357L470.3,357h-46.5v-60.9h6.5"/>
						<line class="st0" x1="470.3" y1="357" x2="470.3" y2="350.6"/>
					</g>
				</g>
			</g>
			<g>
				<g>
					<path class="st0" d="M351.4,344.1h-46.5v-60.9h33.7l6.4,6.4l6.4,6.4V344.1L351.4,344.1z"/>
					<path class="st0" d="M351.4,296.1h-12.9v-12.9"/>
					<g>
						<path class="st0" d="M344.9,350.6L344.9,350.6h-46.5v-60.9h6.5"/>
						<line class="st0" x1="344.9" y1="350.6" x2="344.9" y2="344.1"/>
					</g>
					<g>
						<path class="st0" d="M338.5,357L338.5,357H292v-60.9h6.5"/>
						<line class="st0" x1="338.5" y1="357" x2="338.5" y2="350.6"/>
					</g>
				</g>
			</g>
		</g>
		<g>
			<g>
				<g>
					<path class="st0" d="M284.8,103.2h-46.5V42.3H272l6.4,6.4l6.4,6.4V103.2L284.8,103.2z"/>
					<path class="st0" d="M284.8,55.1h-12.9V42.2"/>
					<g>
						<path class="st0" d="M278.4,109.6L278.4,109.6h-46.5V48.7h6.5"/>
						<line class="st0" x1="278.4" y1="109.6" x2="278.4" y2="103.2"/>
					</g>
					<g>
						<path class="st0" d="M271.9,116.1L271.9,116.1h-46.5v-61h6.5"/>
						<line class="st0" x1="271.9" y1="116.1" x2="271.9" y2="109.6"/>
					</g>
				</g>
				<g>
					<path class="st0" d="M218.9,103.2h-46.5V42.3h33.7l6.4,6.4l6.4,6.4L218.9,103.2L218.9,103.2z"/>
					<path class="st0" d="M218.9,55.1H206V42.2"/>
					<g>
						<path class="st0" d="M212.5,109.6L212.5,109.6H166V48.7h6.5"/>
						<line class="st0" x1="212.5" y1="109.6" x2="212.5" y2="103.2"/>
					</g>
					<g>
						<path class="st0" d="M206,116.1L206,116.1h-46.5v-61h6.5"/>
						<line class="st0" x1="206" y1="116.1" x2="206" y2="109.6"/>
					</g>
				</g>
			</g>
			<g>
				<g>
					<path class="st0" d="M86.8,103.2H40.3V42.3H74l6.4,6.4l6.4,6.4V103.2L86.8,103.2z"/>
					<path class="st0" d="M86.8,55.1H73.9V42.2"/>
					<g>
						<path class="st0" d="M80.4,109.6L80.4,109.6H33.9V48.7h6.5"/>
						<line class="st0" x1="80.4" y1="109.6" x2="80.4" y2="103.2"/>
					</g>
					<g>
						<path class="st0" d="M73.9,116.1L73.9,116.1H27.4v-61h6.5"/>
						<line class="st0" x1="73.9" y1="116.1" x2="73.9" y2="109.6"/>
					</g>
				</g>
			</g>
			<g>
				<g>
					<path class="st0" d="M218.6,183.4h-46.5v-60.9h33.7l6.4,6.4l6.4,6.4L218.6,183.4L218.6,183.4z"/>
					<path class="st0" d="M218.6,135.4h-12.9v-12.9"/>
					<g>
						<path class="st0" d="M212.2,189.9L212.2,189.9h-46.5V129h6.5"/>
						<line class="st0" x1="212.2" y1="189.9" x2="212.2" y2="183.4"/>
					</g>
					<g>
						<path class="st0" d="M205.7,196.3L205.7,196.3h-46.5v-60.9h6.5"/>
						<line class="st0" x1="205.7" y1="196.3" x2="205.7" y2="189.9"/>
					</g>
				</g>
				<g>
					<path class="st0" d="M284.5,263.7H238v-60.9h33.7l6.4,6.4l6.4,6.4V263.7L284.5,263.7z"/>
					<path class="st0" d="M284.5,215.6h-12.9v-12.9"/>
					<g>
						<path class="st0" d="M278.1,270.1L278.1,270.1h-46.5v-60.9h6.5"/>
						<line class="st0" x1="278.1" y1="270.1" x2="278.1" y2="263.7"/>
					</g>
					<g>
						<path class="st0" d="M271.6,276.6L271.6,276.6h-46.5v-60.9h6.5"/>
						<line class="st0" x1="271.6" y1="276.6" x2="271.6" y2="270.1"/>
					</g>
				</g>
				<g>
					<path class="st0" d="M218.6,263.7h-46.5v-60.9h33.7l6.4,6.4l6.4,6.4L218.6,263.7L218.6,263.7z"/>
					<path class="st0" d="M218.6,215.6h-12.9v-12.9"/>
					<g>
						<path class="st0" d="M212.2,270.1L212.2,270.1h-46.5v-60.9h6.5"/>
						<line class="st0" x1="212.2" y1="270.1" x2="212.2" y2="263.7"/>
					</g>
					<g>
						<path class="st0" d="M205.7,276.6L205.7,276.6h-46.5v-60.9h6.5"/>
						<line class="st0" x1="205.7" y1="276.6" x2="205.7" y2="270.1"/>
					</g>
				</g>
			</g>
		</g>
	</g>
	<g>
		<g>
			<g>
				<g>
					<path class="st0" d="M746.4,665.1h-46.5v-60.9h33.7l6.4,6.4l6.4,6.4L746.4,665.1L746.4,665.1z"/>
					<path class="st0" d="M746.4,617.1h-12.9v-12.9"/>
					<g>
						<path class="st0" d="M740,671.6L740,671.6h-46.5v-60.9h6.5"/>
						<line class="st0" x1="740" y1="671.6" x2="740" y2="665.1"/>
					</g>
					<g>
						<path class="st0" d="M733.5,678L733.5,678H687v-60.9h6.5"/>
						<line class="st0" x1="733.5" y1="678" x2="733.5" y2="671.6"/>
					</g>
				</g>
				<g>
					<path class="st0" d="M812.3,665.1h-46.5v-60.9h33.7l6.4,6.4l6.4,6.4L812.3,665.1L812.3,665.1z"/>
					<path class="st0" d="M812.3,617.1h-12.9v-12.9"/>
					<g>
						<path class="st0" d="M805.9,671.6L805.9,671.6h-46.5v-60.9h6.5"/>
						<line class="st0" x1="805.9" y1="671.6" x2="805.9" y2="665.1"/>
					</g>
					<g>
						<path class="st0" d="M799.4,678L799.4,678h-46.5v-60.9h6.5"/>
						<line class="st0" x1="799.4" y1="678" x2="799.4" y2="671.6"/>
					</g>
				</g>
				<g>
					<path class="st0" d="M746.4,745.4h-46.5v-60.9h33.7l6.4,6.4l6.4,6.4L746.4,745.4L746.4,745.4z"/>
					<path class="st0" d="M746.4,697.4h-12.9v-12.9"/>
					<g>
						<path class="st0" d="M740,751.8L740,751.8h-46.5v-60.9h6.5"/>
						<line class="st0" x1="740" y1="751.8" x2="740" y2="745.4"/>
					</g>
					<g>
						<path class="st0" d="M733.5,758.3L733.5,758.3H687v-60.9h6.5"/>
						<line class="st0" x1="733.5" y1="758.3" x2="733.5" y2="751.8"/>
					</g>
				</g>
				<g>
					<path class="st0" d="M812.3,745.4h-46.5v-60.9h33.7l6.4,6.4l6.4,6.4L812.3,745.4L812.3,745.4z"/>
					<path class="st0" d="M812.3,697.4h-12.9v-12.9"/>
					<g>
						<path class="st0" d="M805.9,751.8L805.9,751.8h-46.5v-60.9h6.5"/>
						<line class="st0" x1="805.9" y1="751.8" x2="805.9" y2="745.4"/>
					</g>
					<g>
						<path class="st0" d="M799.4,758.3L799.4,758.3h-46.5v-60.9h6.5"/>
						<line class="st0" x1="799.4" y1="758.3" x2="799.4" y2="751.8"/>
					</g>
				</g>
			</g>
			<g>
				<g>
					<path class="st0" d="M746.1,825.7h-46.5v-60.9h33.7l6.4,6.4l6.4,6.4L746.1,825.7L746.1,825.7z"/>
					<path class="st0" d="M746.1,777.6h-12.9v-12.9"/>
					<g>
						<path class="st0" d="M739.6,832.1L739.6,832.1h-46.5v-60.9h6.5"/>
						<line class="st0" x1="739.6" y1="832.1" x2="739.6" y2="825.7"/>
					</g>
					<g>
						<path class="st0" d="M733.2,838.5L733.2,838.5h-46.5v-60.9h6.5"/>
						<line class="st0" x1="733.2" y1="838.5" x2="733.2" y2="832.1"/>
					</g>
				</g>
				<g>
					<path class="st0" d="M812,825.7h-46.5v-60.9h33.7l6.4,6.4l6.4,6.4L812,825.7L812,825.7z"/>
					<path class="st0" d="M812,777.6h-12.9v-12.9"/>
					<g>
						<path class="st0" d="M805.5,832.1L805.5,832.1H759v-60.9h6.5"/>
						<line class="st0" x1="805.5" y1="832.1" x2="805.5" y2="825.7"/>
					</g>
					<g>
						<path class="st0" d="M799.1,838.5L799.1,838.5h-46.5v-60.9h6.5"/>
						<line class="st0" x1="799.1" y1="838.5" x2="799.1" y2="832.1"/>
					</g>
				</g>
				<g>
					<path class="st0" d="M746.1,905.9h-46.5V845h33.7l6.4,6.4l6.4,6.4L746.1,905.9L746.1,905.9z"/>
					<path class="st0" d="M746.1,857.9h-12.9V845"/>
					<g>
						<path class="st0" d="M739.6,912.3L739.6,912.3h-46.5v-60.9h6.5"/>
						<line class="st0" x1="739.6" y1="912.3" x2="739.6" y2="905.9"/>
					</g>
					<g>
						<path class="st0" d="M733.2,918.8L733.2,918.8h-46.5v-60.9h6.5"/>
						<line class="st0" x1="733.2" y1="918.8" x2="733.2" y2="912.3"/>
					</g>
				</g>
				<g>
					<path class="st0" d="M812,905.9h-46.5V845h33.7l6.4,6.4l6.4,6.4L812,905.9L812,905.9z"/>
					<path class="st0" d="M812,857.9h-12.9V845"/>
					<g>
						<path class="st0" d="M805.5,912.3L805.5,912.3H759v-60.9h6.5"/>
						<line class="st0" x1="805.5" y1="912.3" x2="805.5" y2="905.9"/>
					</g>
					<g>
						<path class="st0" d="M799.1,918.8L799.1,918.8h-46.5v-60.9h6.5"/>
						<line class="st0" x1="799.1" y1="918.8" x2="799.1" y2="912.3"/>
					</g>
				</g>
			</g>
			<g>
				<g>
					<path class="st0" d="M680.2,825.7h-46.5v-60.9h33.7l6.4,6.4l6.4,6.4L680.2,825.7L680.2,825.7z"/>
					<path class="st0" d="M680.2,777.6h-12.9v-12.9"/>
					<g>
						<path class="st0" d="M673.8,832.1L673.8,832.1h-46.5v-60.9h6.5"/>
						<line class="st0" x1="673.8" y1="832.1" x2="673.8" y2="825.7"/>
					</g>
					<g>
						<path class="st0" d="M667.3,838.5L667.3,838.5h-46.5v-60.9h6.5"/>
						<line class="st0" x1="667.3" y1="838.5" x2="667.3" y2="832.1"/>
					</g>
				</g>
				<g>
					<path class="st0" d="M680.2,905.9h-46.5V845h33.7l6.4,6.4l6.4,6.4L680.2,905.9L680.2,905.9z"/>
					<path class="st0" d="M680.2,857.9h-12.9V845"/>
					<g>
						<path class="st0" d="M673.8,912.3L673.8,912.3h-46.5v-60.9h6.5"/>
						<line class="st0" x1="673.8" y1="912.3" x2="673.8" y2="905.9"/>
					</g>
					<g>
						<path class="st0" d="M667.3,918.8L667.3,918.8h-46.5v-60.9h6.5"/>
						<line class="st0" x1="667.3" y1="918.8" x2="667.3" y2="912.3"/>
					</g>
				</g>
				<g>
					<path class="st0" d="M614.3,905.9h-46.5V845h33.7l6.4,6.4l6.4,6.4L614.3,905.9L614.3,905.9z"/>
					<path class="st0" d="M614.3,857.9h-12.9V845"/>
					<g>
						<path class="st0" d="M607.9,912.3L607.9,912.3h-46.5v-60.9h6.5"/>
						<line class="st0" x1="607.9" y1="912.3" x2="607.9" y2="905.9"/>
					</g>
					<g>
						<path class="st0" d="M601.4,918.8L601.4,918.8h-46.5v-60.9h6.5"/>
						<line class="st0" x1="601.4" y1="918.8" x2="601.4" y2="912.3"/>
					</g>
				</g>
			</g>
		</g>
		<g>
			<g>
				<g>
					<path class="st0" d="M746.7,986.4h-46.5v-60.9h33.7l6.4,6.4l6.4,6.4L746.7,986.4L746.7,986.4z"/>
					<path class="st0" d="M746.7,938.3h-12.9v-12.9"/>
					<g>
						<path class="st0" d="M740.3,992.8L740.3,992.8h-46.5v-60.9h6.5"/>
						<line class="st0" x1="740.3" y1="992.8" x2="740.3" y2="986.4"/>
					</g>
					<g>
						<path class="st0" d="M733.8,999.2L733.8,999.2h-46.5v-60.9h6.5"/>
						<line class="st0" x1="733.8" y1="999.2" x2="733.8" y2="992.8"/>
					</g>
				</g>
				<g>
					<path class="st0" d="M812.6,986.4h-46.5v-60.9h33.7l6.4,6.4l6.4,6.4L812.6,986.4L812.6,986.4z"/>
					<path class="st0" d="M812.6,938.3h-12.9v-12.9"/>
					<g>
						<path class="st0" d="M806.2,992.8L806.2,992.8h-46.5v-60.9h6.5"/>
						<line class="st0" x1="806.2" y1="992.8" x2="806.2" y2="986.4"/>
					</g>
					<g>
						<path class="st0" d="M799.7,999.2L799.7,999.2h-46.5v-60.9h6.5"/>
						<line class="st0" x1="799.7" y1="999.2" x2="799.7" y2="992.8"/>
					</g>
				</g>
				<g>
					<path class="st0" d="M746.7,1066.6h-46.5v-60.9h33.7l6.4,6.4l6.4,6.4L746.7,1066.6L746.7,1066.6z"/>
					<path class="st0" d="M746.7,1018.6h-12.9v-12.9"/>
					<g>
						<path class="st0" d="M740.3,1073.1L740.3,1073.1h-46.5v-60.9h6.5"/>
						<line class="st0" x1="740.3" y1="1073.1" x2="740.3" y2="1066.6"/>
					</g>
					<g>
						<path class="st0" d="M733.8,1079.5L733.8,1079.5h-46.5v-60.9h6.5"/>
						<line class="st0" x1="733.8" y1="1079.5" x2="733.8" y2="1073.1"/>
					</g>
				</g>
				<g>
					<path class="st0" d="M812.6,1066.6h-46.5v-60.9h33.7l6.4,6.4l6.4,6.4L812.6,1066.6L812.6,1066.6z"/>
					<path class="st0" d="M812.6,1018.6h-12.9v-12.9"/>
					<g>
						<path class="st0" d="M806.2,1073.1L806.2,1073.1h-46.5v-60.9h6.5"/>
						<line class="st0" x1="806.2" y1="1073.1" x2="806.2" y2="1066.6"/>
					</g>
					<g>
						<path class="st0" d="M799.7,1079.5L799.7,1079.5h-46.5v-60.9h6.5"/>
						<line class="st0" x1="799.7" y1="1079.5" x2="799.7" y2="1073.1"/>
					</g>
				</g>
			</g>
			<g>
				<g>
					<path class="st0" d="M680.8,986.4h-46.5v-60.9H668l6.4,6.4l6.4,6.4L680.8,986.4L680.8,986.4z"/>
					<path class="st0" d="M680.8,938.3h-12.9v-12.9"/>
					<g>
						<path class="st0" d="M674.4,992.8L674.4,992.8h-46.5v-60.9h6.5"/>
						<line class="st0" x1="674.4" y1="992.8" x2="674.4" y2="986.4"/>
					</g>
					<g>
						<path class="st0" d="M667.9,999.2L667.9,999.2h-46.5v-60.9h6.5"/>
						<line class="st0" x1="667.9" y1="999.2" x2="667.9" y2="992.8"/>
					</g>
				</g>
				<g>
					<path class="st0" d="M680.8,1066.6h-46.5v-60.9H668l6.4,6.4l6.4,6.4L680.8,1066.6L680.8,1066.6z"/>
					<path class="st0" d="M680.8,1018.6h-12.9v-12.9"/>
					<g>
						<path class="st0" d="M674.4,1073.1L674.4,1073.1h-46.5v-60.9h6.5"/>
						<line class="st0" x1="674.4" y1="1073.1" x2="674.4" y2="1066.6"/>
					</g>
					<g>
						<path class="st0" d="M667.9,1079.5L667.9,1079.5h-46.5v-60.9h6.5"/>
						<line class="st0" x1="667.9" y1="1079.5" x2="667.9" y2="1073.1"/>
					</g>
				</g>
				<g>
					<path class="st0" d="M614.9,1066.6h-46.5v-60.9h33.7l6.4,6.4l6.4,6.4L614.9,1066.6L614.9,1066.6z"/>
					<path class="st0" d="M614.9,1018.6H602v-12.9"/>
					<g>
						<path class="st0" d="M608.5,1073.1L608.5,1073.1H562v-60.9h6.5"/>
						<line class="st0" x1="608.5" y1="1073.1" x2="608.5" y2="1066.6"/>
					</g>
					<g>
						<path class="st0" d="M602,1079.5L602,1079.5h-46.5v-60.9h6.5"/>
						<line class="st0" x1="602" y1="1079.5" x2="602" y2="1073.1"/>
					</g>
				</g>
			</g>
			<g>
				<g>
					<path class="st0" d="M746.4,1146.9h-46.5V1086h33.7l6.4,6.4l6.4,6.4L746.4,1146.9L746.4,1146.9z"/>
					<path class="st0" d="M746.4,1098.8h-12.9v-12.9"/>
					<g>
						<path class="st0" d="M740,1153.3L740,1153.3h-46.5v-60.9h6.5"/>
						<line class="st0" x1="740" y1="1153.3" x2="740" y2="1146.9"/>
					</g>
					<g>
						<path class="st0" d="M733.5,1159.7L733.5,1159.7H687v-60.9h6.5"/>
						<line class="st0" x1="733.5" y1="1159.7" x2="733.5" y2="1153.3"/>
					</g>
				</g>
				<g>
					<path class="st0" d="M812.3,1146.9h-46.5V1086h33.7l6.4,6.4l6.4,6.4L812.3,1146.9L812.3,1146.9z"/>
					<path class="st0" d="M812.3,1098.8h-12.9v-12.9"/>
					<g>
						<path class="st0" d="M805.9,1153.3L805.9,1153.3h-46.5v-60.9h6.5"/>
						<line class="st0" x1="805.9" y1="1153.3" x2="805.9" y2="1146.9"/>
					</g>
					<g>
						<path class="st0" d="M799.4,1159.7L799.4,1159.7h-46.5v-60.9h6.5"/>
						<line class="st0" x1="799.4" y1="1159.7" x2="799.4" y2="1153.3"/>
					</g>
				</g>
				<g>
					<path class="st0" d="M746.4,1227.1h-46.5v-60.9h33.7l6.4,6.4l6.4,6.4L746.4,1227.1L746.4,1227.1z"/>
					<path class="st0" d="M746.4,1179.1h-12.9v-12.9"/>
					<g>
						<path class="st0" d="M740,1233.6L740,1233.6h-46.5v-60.9h6.5"/>
					</g>
					<g>
						<path class="st0" d="M733.5,1240L733.5,1240H687v-60.9h6.5"/>
					</g>
				</g>
				<g>
					<path class="st0" d="M812.3,1227.1h-46.5v-60.9h33.7l6.4,6.4l6.4,6.4L812.3,1227.1L812.3,1227.1z"/>
					<path class="st0" d="M812.3,1179.1h-12.9v-12.9"/>
					<g>
						<path class="st0" d="M805.9,1233.6L805.9,1233.6h-46.5v-60.9h6.5"/>
					</g>
					<g>
						<path class="st0" d="M799.4,1240L799.4,1240h-46.5v-60.9h6.5"/>
					</g>
				</g>
			</g>
			<g>
				<g>
					<path class="st0" d="M680.5,1146.9H634V1086h33.7l6.4,6.4l6.4,6.4L680.5,1146.9L680.5,1146.9z"/>
					<path class="st0" d="M680.5,1098.8h-12.9v-12.9"/>
					<g>
						<path class="st0" d="M674.1,1153.3L674.1,1153.3h-46.5v-60.9h6.5"/>
						<line class="st0" x1="674.1" y1="1153.3" x2="674.1" y2="1146.9"/>
					</g>
					<g>
						<path class="st0" d="M667.6,1159.7L667.6,1159.7h-46.5v-60.9h6.5"/>
						<line class="st0" x1="667.6" y1="1159.7" x2="667.6" y2="1153.3"/>
					</g>
				</g>
				<g>
					<path class="st0" d="M614.6,1146.9h-46.5V1086h33.7l6.4,6.4l6.4,6.4L614.6,1146.9L614.6,1146.9z"/>
					<path class="st0" d="M614.6,1098.8h-12.9v-12.9"/>
					<g>
						<path class="st0" d="M608.2,1153.3L608.2,1153.3h-46.5v-60.9h6.5"/>
						<line class="st0" x1="608.2" y1="1153.3" x2="608.2" y2="1146.9"/>
					</g>
					<g>
						<path class="st0" d="M601.7,1159.7L601.7,1159.7h-46.5v-60.9h6.5"/>
						<line class="st0" x1="601.7" y1="1159.7" x2="601.7" y2="1153.3"/>
					</g>
				</g>
				<g>
					<path class="st0" d="M680.5,1227.1H634v-60.9h33.7l6.4,6.4l6.4,6.4L680.5,1227.1L680.5,1227.1z"/>
					<path class="st0" d="M680.5,1179.1h-12.9v-12.9"/>
					<g>
						<path class="st0" d="M674.1,1233.6L674.1,1233.6h-46.5v-60.9h6.5"/>
					</g>
					<g>
						<path class="st0" d="M667.6,1240L667.6,1240h-46.5v-60.9h6.5"/>
					</g>
				</g>
			</g>
		</g>
		<g>
			<g>
				<g>
					<path class="st0" d="M482.8,986.4h-46.5v-60.9H470l6.4,6.4l6.4,6.4V986.4L482.8,986.4z"/>
					<path class="st0" d="M482.8,938.3h-12.9v-12.9"/>
					<g>
						<path class="st0" d="M476.4,992.8L476.4,992.8h-46.5v-60.9h6.5"/>
						<line class="st0" x1="476.4" y1="992.8" x2="476.4" y2="986.4"/>
					</g>
					<g>
						<path class="st0" d="M469.9,999.2L469.9,999.2h-46.5v-60.9h6.5"/>
						<line class="st0" x1="469.9" y1="999.2" x2="469.9" y2="992.8"/>
					</g>
				</g>
				<g>
					<path class="st0" d="M548.7,986.4h-46.5v-60.9h33.7l6.4,6.4l6.4,6.4L548.7,986.4L548.7,986.4z"/>
					<path class="st0" d="M548.7,938.3h-12.9v-12.9"/>
					<g>
						<path class="st0" d="M542.3,992.8L542.3,992.8h-46.5v-60.9h6.5"/>
						<line class="st0" x1="542.3" y1="992.8" x2="542.3" y2="986.4"/>
					</g>
					<g>
						<path class="st0" d="M535.8,999.2L535.8,999.2h-46.5v-60.9h6.5"/>
						<line class="st0" x1="535.8" y1="999.2" x2="535.8" y2="992.8"/>
					</g>
				</g>
				<g>
					<path class="st0" d="M482.8,1066.6h-46.5v-60.9H470l6.4,6.4l6.4,6.4V1066.6L482.8,1066.6z"/>
					<path class="st0" d="M482.8,1018.6h-12.9v-12.9"/>
					<g>
						<path class="st0" d="M476.4,1073.1L476.4,1073.1h-46.5v-60.9h6.5"/>
						<line class="st0" x1="476.4" y1="1073.1" x2="476.4" y2="1066.6"/>
					</g>
					<g>
						<path class="st0" d="M469.9,1079.5L469.9,1079.5h-46.5v-60.9h6.5"/>
						<line class="st0" x1="469.9" y1="1079.5" x2="469.9" y2="1073.1"/>
					</g>
				</g>
				<g>
					<path class="st0" d="M548.7,1066.6h-46.5v-60.9h33.7l6.4,6.4l6.4,6.4L548.7,1066.6L548.7,1066.6z"/>
					<path class="st0" d="M548.7,1018.6h-12.9v-12.9"/>
					<g>
						<path class="st0" d="M542.3,1073.1L542.3,1073.1h-46.5v-60.9h6.5"/>
						<line class="st0" x1="542.3" y1="1073.1" x2="542.3" y2="1066.6"/>
					</g>
					<g>
						<path class="st0" d="M535.8,1079.5L535.8,1079.5h-46.5v-60.9h6.5"/>
						<line class="st0" x1="535.8" y1="1079.5" x2="535.8" y2="1073.1"/>
					</g>
				</g>
			</g>
		</g>
	</g>
</g>
<g>
	<path class="st0" d="M614.6,1227.1h-46.5v-60.9h33.7l6.4,6.4l6.4,6.4L614.6,1227.1L614.6,1227.1z"/>
	<path class="st0" d="M614.6,1179.1h-12.9v-12.9"/>
	<g>
		<path class="st0" d="M608.2,1233.6L608.2,1233.6h-46.5v-60.9h6.5"/>
	</g>
	<g>
		<path class="st0" d="M601.7,1240L601.7,1240h-46.5v-60.9h6.5"/>
	</g>
</g>
<g>
	<path class="st0" d="M482.2,1227.1h-46.5v-60.9h33.7l6.4,6.4l6.4,6.4V1227.1L482.2,1227.1z"/>
	<path class="st0" d="M482.2,1179.1h-12.9v-12.9"/>
	<g>
		<path class="st0" d="M475.7,1233.6L475.7,1233.6h-46.5v-60.9h6.5"/>
	</g>
	<g>
		<path class="st0" d="M469.3,1240L469.3,1240h-46.5v-60.9h6.5"/>
	</g>
</g>
<g>
	<path class="st0" d="M548.5,1227.1H502v-60.9h33.7l6.4,6.4l6.4,6.4L548.5,1227.1L548.5,1227.1z"/>
	<path class="st0" d="M548.5,1179.1h-12.9v-12.9"/>
	<g>
		<path class="st0" d="M542.1,1233.6L542.1,1233.6h-46.5v-60.9h6.5"/>
	</g>
	<g>
		<path class="st0" d="M535.6,1240L535.6,1240h-46.5v-60.9h6.5"/>
	</g>
</g>
<g>
	<path class="st0" d="M350.6,1227.1h-46.5v-60.9h33.7l6.4,6.4l6.4,6.4V1227.1L350.6,1227.1z"/>
	<path class="st0" d="M350.6,1179.1h-12.9v-12.9"/>
	<g>
		<path class="st0" d="M344.2,1233.6L344.2,1233.6h-46.5v-60.9h6.5"/>
	</g>
	<g>
		<path class="st0" d="M337.7,1240L337.7,1240h-46.5v-60.9h6.5"/>
	</g>
</g>
<g>
	<path class="st0" d="M416.5,1227.1H370v-60.9h33.7l6.4,6.4l6.4,6.4V1227.1L416.5,1227.1z"/>
	<path class="st0" d="M416.5,1179.1h-12.9v-12.9"/>
	<g>
		<path class="st0" d="M410.1,1233.6L410.1,1233.6h-46.5v-60.9h6.5"/>
	</g>
	<g>
		<path class="st0" d="M403.6,1240L403.6,1240h-46.5v-60.9h6.5"/>
	</g>
</g>
</svg>
