<?xml version="1.0" encoding="utf-8"?>
<!-- Generator: Adobe Illustrator 24.0.2, SVG Export Plug-In . SVG Version: 6.00 Build 0)  -->
<svg version="1.1" id="Layer_1" xmlns="http://www.w3.org/2000/svg" xmlns:xlink="http://www.w3.org/1999/xlink" x="0px" y="0px"
	 viewBox="0 0 1200 1200" style="enable-background:new 0 0 1200 1200;" xml:space="preserve">
<style type="text/css">
	.st0{fill:none;stroke:#AB8B62;stroke-width:2;stroke-linecap:round;stroke-linejoin:round;}
</style>
<g>
	<g>
		<g>
			<g>
				<g>
					<path class="st0" d="M64.8,22.9H18.3V-38H52l6.4,6.4l6.4,6.4V22.9L64.8,22.9z"/>
					<g>
						<path class="st0" d="M58.4,29.4L58.4,29.4H11.9v-60.9h6.5"/>
						<line class="st0" x1="58.4" y1="29.4" x2="58.4" y2="22.9"/>
					</g>
					<g>
						<path class="st0" d="M51.9,35.8L51.9,35.8H5.4v-60.9h6.5"/>
						<line class="st0" x1="51.9" y1="35.8" x2="51.9" y2="29.4"/>
					</g>
				</g>
				<g>
					<path class="st0" d="M130.7,22.9H84.2V-38h33.7l6.4,6.4l6.4,6.4V22.9L130.7,22.9z"/>
					<g>
						<path class="st0" d="M124.3,29.4L124.3,29.4H77.8v-60.9h6.5"/>
						<line class="st0" x1="124.3" y1="29.4" x2="124.3" y2="22.9"/>
					</g>
					<g>
						<path class="st0" d="M117.8,35.8L117.8,35.8H71.3v-60.9h6.5"/>
						<line class="st0" x1="117.8" y1="35.8" x2="117.8" y2="29.4"/>
					</g>
				</g>
				<g>
					<path class="st0" d="M64.8,103.2H18.3V42.3H52l6.4,6.4l6.4,6.4V103.2L64.8,103.2z"/>
					<path class="st0" d="M64.8,55.1H51.9V42.2"/>
					<g>
						<path class="st0" d="M58.4,109.6L58.4,109.6H11.9V48.7h6.5"/>
						<line class="st0" x1="58.4" y1="109.6" x2="58.4" y2="103.2"/>
					</g>
					<g>
						<path class="st0" d="M51.9,116.1L51.9,116.1H5.4v-61h6.5"/>
						<line class="st0" x1="51.9" y1="116.1" x2="51.9" y2="109.6"/>
					</g>
				</g>
				<g>
					<path class="st0" d="M130.7,103.2H84.2V42.3h33.7l6.4,6.4l6.4,6.4V103.2L130.7,103.2z"/>
					<path class="st0" d="M130.7,55.1h-12.9V42.2"/>
					<g>
						<path class="st0" d="M124.3,109.6L124.3,109.6H77.8V48.7h6.5"/>
						<line class="st0" x1="124.3" y1="109.6" x2="124.3" y2="103.2"/>
					</g>
					<g>
						<path class="st0" d="M117.8,116.1L117.8,116.1H71.3v-61h6.5"/>
						<line class="st0" x1="117.8" y1="116.1" x2="117.8" y2="109.6"/>
					</g>
				</g>
			</g>
			<g>
				<g>
					<path class="st0" d="M64.5,183.4H18v-60.9h33.7l6.4,6.4l6.4,6.4V183.4L64.5,183.4z"/>
					<path class="st0" d="M64.5,135.4H51.6v-12.9"/>
					<g>
						<path class="st0" d="M58.1,189.9L58.1,189.9H11.6V129h6.5"/>
						<line class="st0" x1="58.1" y1="189.9" x2="58.1" y2="183.4"/>
					</g>
					<g>
						<path class="st0" d="M51.6,196.3L51.6,196.3H5.1v-60.9h6.5"/>
						<line class="st0" x1="51.6" y1="196.3" x2="51.6" y2="189.9"/>
					</g>
				</g>
				<g>
					<path class="st0" d="M130.4,183.4H83.9v-60.9h33.7l6.4,6.4l6.4,6.4V183.4L130.4,183.4z"/>
					<path class="st0" d="M130.4,135.4h-12.9v-12.9"/>
					<g>
						<path class="st0" d="M124,189.9L124,189.9H77.5V129H84"/>
						<line class="st0" x1="124" y1="189.9" x2="124" y2="183.4"/>
					</g>
					<g>
						<path class="st0" d="M117.5,196.3L117.5,196.3H71v-60.9h6.5"/>
						<line class="st0" x1="117.5" y1="196.3" x2="117.5" y2="189.9"/>
					</g>
				</g>
				<g>
					<path class="st0" d="M64.5,263.7H18v-60.9h33.7l6.4,6.4l6.4,6.4V263.7L64.5,263.7z"/>
					<path class="st0" d="M64.5,215.6H51.6l0-12.9"/>
					<g>
						<path class="st0" d="M58.1,270.1L58.1,270.1H11.6v-60.9h6.5"/>
						<line class="st0" x1="58.1" y1="270.1" x2="58.1" y2="263.7"/>
					</g>
					<g>
						<path class="st0" d="M51.6,276.6L51.6,276.6H5.1v-60.9h6.5"/>
						<line class="st0" x1="51.6" y1="276.6" x2="51.6" y2="270.1"/>
					</g>
				</g>
				<g>
					<path class="st0" d="M130.4,263.7H83.9v-60.9h33.7l6.4,6.4l6.4,6.4V263.7L130.4,263.7z"/>
					<path class="st0" d="M130.4,215.6h-12.9v-12.9"/>
					<g>
						<path class="st0" d="M124,270.1L124,270.1H77.5v-60.9H84"/>
						<line class="st0" x1="124" y1="270.1" x2="124" y2="263.7"/>
					</g>
					<g>
						<path class="st0" d="M117.5,276.6L117.5,276.6H71v-60.9h6.5"/>
						<line class="st0" x1="117.5" y1="276.6" x2="117.5" y2="270.1"/>
					</g>
				</g>
			</g>
		</g>
		<g>
			<g>
				<g>
					<path class="st0" d="M65.2,344.1H18.7v-60.9h33.7l6.4,6.4l6.4,6.4V344.1L65.2,344.1z"/>
					<path class="st0" d="M65.2,296.1H52.3l0-12.9"/>
					<g>
						<path class="st0" d="M58.7,350.6L58.7,350.6H12.2v-60.9h6.5"/>
						<line class="st0" x1="58.7" y1="350.6" x2="58.7" y2="344.1"/>
					</g>
					<g>
						<path class="st0" d="M52.3,357L52.3,357H5.8v-60.9h6.5"/>
						<line class="st0" x1="52.3" y1="357" x2="52.3" y2="350.6"/>
					</g>
				</g>
				<g>
					<path class="st0" d="M131.1,344.1H84.5v-60.9h33.7l6.4,6.4l6.4,6.4L131.1,344.1L131.1,344.1z"/>
					<path class="st0" d="M131.1,296.1h-12.9v-12.9"/>
					<g>
						<path class="st0" d="M124.6,350.6L124.6,350.6H78.1v-60.9h6.5"/>
						<line class="st0" x1="124.6" y1="350.6" x2="124.6" y2="344.1"/>
					</g>
					<g>
						<path class="st0" d="M118.2,357L118.2,357H71.7v-60.9h6.5"/>
						<line class="st0" x1="118.2" y1="357" x2="118.2" y2="350.6"/>
					</g>
				</g>
				<g>
					<path class="st0" d="M65.2,424.4H18.7v-60.9h33.7l6.4,6.4l6.4,6.4V424.4L65.2,424.4z"/>
					<path class="st0" d="M65.2,376.3H52.3l0-12.9"/>
					<g>
						<path class="st0" d="M58.7,430.8L58.7,430.8H12.2v-60.9h6.5"/>
						<line class="st0" x1="58.7" y1="430.8" x2="58.7" y2="424.4"/>
					</g>
					<g>
						<path class="st0" d="M52.3,437.3L52.3,437.3H5.8v-60.9h6.5"/>
						<line class="st0" x1="52.3" y1="437.3" x2="52.3" y2="430.8"/>
					</g>
				</g>
				<g>
					<path class="st0" d="M131.1,424.4H84.5v-60.9h33.7l6.4,6.4l6.4,6.4L131.1,424.4L131.1,424.4z"/>
					<path class="st0" d="M131.1,376.3h-12.9v-12.9"/>
					<g>
						<path class="st0" d="M124.6,430.8L124.6,430.8H78.1v-60.9h6.5"/>
						<line class="st0" x1="124.6" y1="430.8" x2="124.6" y2="424.4"/>
					</g>
					<g>
						<path class="st0" d="M118.2,437.3L118.2,437.3H71.7v-60.9h6.5"/>
						<line class="st0" x1="118.2" y1="437.3" x2="118.2" y2="430.8"/>
					</g>
				</g>
			</g>
			<g>
				<g>
					<path class="st0" d="M64.8,504.6H18.3v-60.9H52l6.4,6.4l6.4,6.4V504.6L64.8,504.6z"/>
					<path class="st0" d="M64.8,456.6H51.9l0-12.9"/>
					<g>
						<path class="st0" d="M58.4,511.1L58.4,511.1H11.9v-60.9h6.5"/>
						<line class="st0" x1="58.4" y1="511.1" x2="58.4" y2="504.6"/>
					</g>
					<g>
						<path class="st0" d="M51.9,517.5L51.9,517.5H5.4v-60.9h6.5"/>
						<line class="st0" x1="51.9" y1="517.5" x2="51.9" y2="511.1"/>
					</g>
				</g>
				<g>
					<path class="st0" d="M130.7,504.6H84.2v-60.9h33.7l6.4,6.4l6.4,6.4V504.6L130.7,504.6z"/>
					<path class="st0" d="M130.7,456.6h-12.9v-12.9"/>
					<g>
						<path class="st0" d="M124.3,511.1L124.3,511.1H77.8v-60.9h6.5"/>
						<line class="st0" x1="124.3" y1="511.1" x2="124.3" y2="504.6"/>
					</g>
					<g>
						<path class="st0" d="M117.8,517.5L117.8,517.5H71.3v-60.9h6.5"/>
						<line class="st0" x1="117.8" y1="517.5" x2="117.8" y2="511.1"/>
					</g>
				</g>
				<g>
					<path class="st0" d="M64.8,584.9H18.3V524H52l6.4,6.4l6.4,6.4V584.9L64.8,584.9z"/>
					<path class="st0" d="M64.8,536.9H51.9l0-12.9"/>
					<g>
						<path class="st0" d="M58.4,591.3L58.4,591.3H11.9v-60.9h6.5"/>
						<line class="st0" x1="58.4" y1="591.3" x2="58.4" y2="584.9"/>
					</g>
					<g>
						<path class="st0" d="M51.9,597.8L51.9,597.8H5.4v-60.9h6.5"/>
						<line class="st0" x1="51.9" y1="597.8" x2="51.9" y2="591.3"/>
					</g>
				</g>
				<g>
					<path class="st0" d="M130.7,584.9H84.2V524h33.7l6.4,6.4l6.4,6.4V584.9L130.7,584.9z"/>
					<path class="st0" d="M130.7,536.9h-12.9V524"/>
					<g>
						<path class="st0" d="M124.3,591.3L124.3,591.3H77.8v-60.9h6.5"/>
						<line class="st0" x1="124.3" y1="591.3" x2="124.3" y2="584.9"/>
					</g>
					<g>
						<path class="st0" d="M117.8,597.8L117.8,597.8H71.3v-60.9h6.5"/>
						<line class="st0" x1="117.8" y1="597.8" x2="117.8" y2="591.3"/>
					</g>
				</g>
			</g>
		</g>
		<g>
			<g>
				<g>
					<path class="st0" d="M197.3,22.9h-46.5V-38h33.7l6.4,6.4l6.4,6.4V22.9L197.3,22.9z"/>
					<g>
						<path class="st0" d="M190.8,29.4L190.8,29.4h-46.5v-60.9h6.5"/>
						<line class="st0" x1="190.8" y1="29.4" x2="190.8" y2="22.9"/>
					</g>
					<g>
						<path class="st0" d="M184.4,35.8L184.4,35.8h-46.5v-60.9h6.5"/>
						<line class="st0" x1="184.4" y1="35.8" x2="184.4" y2="29.4"/>
					</g>
				</g>
				<g>
					<path class="st0" d="M263.2,22.9h-46.5V-38h33.7l6.4,6.4l6.4,6.4V22.9L263.2,22.9z"/>
					<g>
						<path class="st0" d="M256.7,29.4L256.7,29.4h-46.5v-60.9h6.5"/>
						<line class="st0" x1="256.7" y1="29.4" x2="256.7" y2="22.9"/>
					</g>
					<g>
						<path class="st0" d="M250.3,35.8L250.3,35.8h-46.5v-60.9h6.5"/>
						<line class="st0" x1="250.3" y1="35.8" x2="250.3" y2="29.4"/>
					</g>
				</g>
				<g>
					<path class="st0" d="M197.3,103.2h-46.5V42.3h33.7l6.4,6.4l6.4,6.4V103.2L197.3,103.2z"/>
					<path class="st0" d="M197.3,55.1h-12.9V42.2"/>
					<g>
						<path class="st0" d="M190.8,109.6L190.8,109.6h-46.5V48.7h6.5"/>
						<line class="st0" x1="190.8" y1="109.6" x2="190.8" y2="103.2"/>
					</g>
					<g>
						<path class="st0" d="M184.4,116.1L184.4,116.1h-46.5v-61h6.5"/>
						<line class="st0" x1="184.4" y1="116.1" x2="184.4" y2="109.6"/>
					</g>
				</g>
				<g>
					<path class="st0" d="M263.2,103.2h-46.5V42.3h33.7l6.4,6.4l6.4,6.4V103.2L263.2,103.2z"/>
					<path class="st0" d="M263.2,55.1h-12.9V42.2"/>
					<g>
						<path class="st0" d="M256.7,109.6L256.7,109.6h-46.5V48.7h6.5"/>
						<line class="st0" x1="256.7" y1="109.6" x2="256.7" y2="103.2"/>
					</g>
					<g>
						<path class="st0" d="M250.3,116.1L250.3,116.1h-46.5v-61h6.5"/>
						<line class="st0" x1="250.3" y1="116.1" x2="250.3" y2="109.6"/>
					</g>
				</g>
			</g>
			<g>
				<g>
					<path class="st0" d="M329.1,22.9h-46.6V-38h33.7l6.4,6.4l6.4,6.4L329.1,22.9L329.1,22.9z"/>
					<g>
						<path class="st0" d="M322.6,29.4L322.6,29.4h-46.5v-60.9h6.5"/>
						<line class="st0" x1="322.6" y1="29.4" x2="322.6" y2="22.9"/>
					</g>
					<g>
						<path class="st0" d="M316.2,35.8L316.2,35.8h-46.5v-60.9h6.5"/>
						<line class="st0" x1="316.2" y1="35.8" x2="316.2" y2="29.4"/>
					</g>
				</g>
				<g>
					<path class="st0" d="M395,22.9h-46.5V-38h33.7l6.4,6.4l6.4,6.4V22.9L395,22.9z"/>
					<g>
						<path class="st0" d="M388.5,29.4L388.5,29.4H342v-60.9h6.5"/>
						<line class="st0" x1="388.5" y1="29.4" x2="388.5" y2="22.9"/>
					</g>
					<g>
						<path class="st0" d="M382.1,35.8L382.1,35.8h-46.5v-60.9h6.5"/>
						<line class="st0" x1="382.1" y1="35.8" x2="382.1" y2="29.4"/>
					</g>
				</g>
				<g>
					<path class="st0" d="M329.1,103.2h-46.6V42.3h33.7l6.4,6.4l6.4,6.4L329.1,103.2L329.1,103.2z"/>
					<path class="st0" d="M329.1,55.1h-12.9V42.2"/>
					<g>
						<path class="st0" d="M322.6,109.6L322.6,109.6h-46.5V48.7h6.5"/>
						<line class="st0" x1="322.6" y1="109.6" x2="322.6" y2="103.2"/>
					</g>
					<g>
						<path class="st0" d="M316.2,116.1L316.2,116.1h-46.5v-61h6.5"/>
						<line class="st0" x1="316.2" y1="116.1" x2="316.2" y2="109.6"/>
					</g>
				</g>
				<g>
					<path class="st0" d="M395,103.2h-46.5V42.3h33.7l6.4,6.4l6.4,6.4V103.2L395,103.2z"/>
					<path class="st0" d="M395,55.1h-12.9V42.2"/>
					<g>
						<path class="st0" d="M388.5,109.6L388.5,109.6H342V48.7h6.5"/>
						<line class="st0" x1="388.5" y1="109.6" x2="388.5" y2="103.2"/>
					</g>
					<g>
						<path class="st0" d="M382.1,116.1L382.1,116.1h-46.5v-61h6.5"/>
						<line class="st0" x1="382.1" y1="116.1" x2="382.1" y2="109.6"/>
					</g>
				</g>
			</g>
			<g>
				<g>
					<path class="st0" d="M197,183.4h-46.5v-60.9h33.7l6.4,6.4l6.4,6.4V183.4L197,183.4z"/>
					<path class="st0" d="M197,135.4h-12.9v-12.9"/>
					<g>
						<path class="st0" d="M190.5,189.9L190.5,189.9H144V129h6.5"/>
						<line class="st0" x1="190.5" y1="189.9" x2="190.5" y2="183.4"/>
					</g>
					<g>
						<path class="st0" d="M184,196.3L184,196.3h-46.5v-60.9h6.5"/>
						<line class="st0" x1="184" y1="196.3" x2="184" y2="189.9"/>
					</g>
				</g>
				<g>
					<path class="st0" d="M262.8,183.4h-46.5v-60.9H250l6.4,6.4l6.4,6.4V183.4L262.8,183.4z"/>
					<path class="st0" d="M262.8,135.4h-12.9v-12.9"/>
					<g>
						<path class="st0" d="M256.4,189.9L256.4,189.9h-46.5V129h6.5"/>
						<line class="st0" x1="256.4" y1="189.9" x2="256.4" y2="183.4"/>
					</g>
					<g>
						<path class="st0" d="M249.9,196.3L249.9,196.3h-46.5v-60.9h6.5"/>
						<line class="st0" x1="249.9" y1="196.3" x2="249.9" y2="189.9"/>
					</g>
				</g>
				<g>
					<path class="st0" d="M197,263.7h-46.5v-60.9h33.7l6.4,6.4l6.4,6.4V263.7L197,263.7z"/>
					<path class="st0" d="M197,215.6h-12.9v-12.9"/>
					<g>
						<path class="st0" d="M190.5,270.1L190.5,270.1H144v-60.9h6.5"/>
						<line class="st0" x1="190.5" y1="270.1" x2="190.5" y2="263.7"/>
					</g>
					<g>
						<path class="st0" d="M184,276.6L184,276.6h-46.5v-60.9h6.5"/>
						<line class="st0" x1="184" y1="276.6" x2="184" y2="270.1"/>
					</g>
				</g>
				<g>
					<path class="st0" d="M262.8,263.7h-46.5v-60.9H250l6.4,6.4l6.4,6.4V263.7L262.8,263.7z"/>
					<path class="st0" d="M262.8,215.6h-12.9v-12.9"/>
					<g>
						<path class="st0" d="M256.4,270.1L256.4,270.1h-46.5v-60.9h6.5"/>
						<line class="st0" x1="256.4" y1="270.1" x2="256.4" y2="263.7"/>
					</g>
					<g>
						<path class="st0" d="M249.9,276.6L249.9,276.6h-46.5v-60.9h6.5"/>
						<line class="st0" x1="249.9" y1="276.6" x2="249.9" y2="270.1"/>
					</g>
				</g>
			</g>
			<g>
				<g>
					<path class="st0" d="M328.7,183.4h-46.5v-60.9h33.7l6.4,6.4l6.4,6.4V183.4L328.7,183.4z"/>
					<path class="st0" d="M328.7,135.4h-12.9v-12.9"/>
					<g>
						<path class="st0" d="M322.3,189.9L322.3,189.9h-46.5V129h6.5"/>
						<line class="st0" x1="322.3" y1="189.9" x2="322.3" y2="183.4"/>
					</g>
					<g>
						<path class="st0" d="M315.8,196.3L315.8,196.3h-46.5v-60.9h6.5"/>
						<line class="st0" x1="315.8" y1="196.3" x2="315.8" y2="189.9"/>
					</g>
				</g>
				<g>
					<path class="st0" d="M394.6,183.4h-46.5v-60.9h33.7l6.4,6.4l6.4,6.4V183.4L394.6,183.4z"/>
					<path class="st0" d="M394.6,135.4h-12.9v-12.9"/>
					<g>
						<path class="st0" d="M388.2,189.9L388.2,189.9h-46.5V129h6.5"/>
						<line class="st0" x1="388.2" y1="189.9" x2="388.2" y2="183.4"/>
					</g>
					<g>
						<path class="st0" d="M381.7,196.3L381.7,196.3h-46.5v-60.9h6.5"/>
						<line class="st0" x1="381.7" y1="196.3" x2="381.7" y2="189.9"/>
					</g>
				</g>
				<g>
					<path class="st0" d="M328.7,263.7h-46.5v-60.9h33.7l6.4,6.4l6.4,6.4V263.7L328.7,263.7z"/>
					<path class="st0" d="M328.7,215.6h-12.9v-12.9"/>
					<g>
						<path class="st0" d="M322.3,270.1L322.3,270.1h-46.5v-60.9h6.5"/>
						<line class="st0" x1="322.3" y1="270.1" x2="322.3" y2="263.7"/>
					</g>
					<g>
						<path class="st0" d="M315.8,276.6L315.8,276.6h-46.5v-60.9h6.5"/>
						<line class="st0" x1="315.8" y1="276.6" x2="315.8" y2="270.1"/>
					</g>
				</g>
				<g>
					<path class="st0" d="M394.6,263.7h-46.5v-60.9h33.7l6.4,6.4l6.4,6.4V263.7L394.6,263.7z"/>
					<path class="st0" d="M394.6,215.6h-12.9v-12.9"/>
					<g>
						<path class="st0" d="M388.2,270.1L388.2,270.1h-46.5v-60.9h6.5"/>
						<line class="st0" x1="388.2" y1="270.1" x2="388.2" y2="263.7"/>
					</g>
					<g>
						<path class="st0" d="M381.7,276.6L381.7,276.6h-46.5v-60.9h6.5"/>
						<line class="st0" x1="381.7" y1="276.6" x2="381.7" y2="270.1"/>
					</g>
				</g>
			</g>
		</g>
		<g>
			<g>
				<g>
					<path class="st0" d="M197.6,344.1h-46.5v-60.9h33.7l6.4,6.4l6.4,6.4V344.1L197.6,344.1z"/>
					<path class="st0" d="M197.6,296.1h-12.9v-12.9"/>
					<g>
						<path class="st0" d="M191.1,350.6L191.1,350.6h-46.5v-60.9h6.5"/>
						<line class="st0" x1="191.1" y1="350.6" x2="191.1" y2="344.1"/>
					</g>
					<g>
						<path class="st0" d="M184.7,357L184.7,357h-46.5v-60.9h6.5"/>
						<line class="st0" x1="184.7" y1="357" x2="184.7" y2="350.6"/>
					</g>
				</g>
				<g>
					<path class="st0" d="M263.5,344.1H217v-60.9h33.7l6.4,6.4l6.4,6.4V344.1L263.5,344.1z"/>
					<path class="st0" d="M263.5,296.1h-12.9v-12.9"/>
					<g>
						<path class="st0" d="M257,350.6L257,350.6h-46.5v-60.9h6.5"/>
						<line class="st0" x1="257" y1="350.6" x2="257" y2="344.1"/>
					</g>
					<g>
						<path class="st0" d="M250.6,357L250.6,357h-46.5v-60.9h6.5"/>
						<line class="st0" x1="250.6" y1="357" x2="250.6" y2="350.6"/>
					</g>
				</g>
				<g>
					<path class="st0" d="M197.6,424.4h-46.5v-60.9h33.7l6.4,6.4l6.4,6.4V424.4L197.6,424.4z"/>
					<path class="st0" d="M197.6,376.3h-12.9v-12.9"/>
					<g>
						<path class="st0" d="M191.1,430.8L191.1,430.8h-46.5v-60.9h6.5"/>
						<line class="st0" x1="191.1" y1="430.8" x2="191.1" y2="424.4"/>
					</g>
					<g>
						<path class="st0" d="M184.7,437.3L184.7,437.3h-46.5v-60.9h6.5"/>
						<line class="st0" x1="184.7" y1="437.3" x2="184.7" y2="430.8"/>
					</g>
				</g>
				<g>
					<path class="st0" d="M263.5,424.4H217v-60.9h33.7l6.4,6.4l6.4,6.4V424.4L263.5,424.4z"/>
					<path class="st0" d="M263.5,376.3h-12.9v-12.9"/>
					<g>
						<path class="st0" d="M257,430.8L257,430.8h-46.5v-60.9h6.5"/>
						<line class="st0" x1="257" y1="430.8" x2="257" y2="424.4"/>
					</g>
					<g>
						<path class="st0" d="M250.6,437.3L250.6,437.3h-46.5v-60.9h6.5"/>
						<line class="st0" x1="250.6" y1="437.3" x2="250.6" y2="430.8"/>
					</g>
				</g>
			</g>
			<g>
				<g>
					<path class="st0" d="M329.4,344.1h-46.5v-60.9h33.7l6.4,6.4l6.4,6.4V344.1L329.4,344.1z"/>
					<path class="st0" d="M329.4,296.1h-12.9v-12.9"/>
					<g>
						<path class="st0" d="M322.9,350.6L322.9,350.6h-46.5v-60.9h6.5"/>
						<line class="st0" x1="322.9" y1="350.6" x2="322.9" y2="344.1"/>
					</g>
					<g>
						<path class="st0" d="M316.5,357L316.5,357H270v-60.9h6.5"/>
						<line class="st0" x1="316.5" y1="357" x2="316.5" y2="350.6"/>
					</g>
				</g>
				<g>
					<path class="st0" d="M395.3,344.1h-46.5v-60.9h33.7l6.4,6.4l6.4,6.4V344.1L395.3,344.1z"/>
					<path class="st0" d="M395.3,296.1h-12.9v-12.9"/>
					<g>
						<path class="st0" d="M388.8,350.6L388.8,350.6h-46.5v-60.9h6.5"/>
						<line class="st0" x1="388.8" y1="350.6" x2="388.8" y2="344.1"/>
					</g>
					<g>
						<path class="st0" d="M382.4,357L382.4,357h-46.5v-60.9h6.5"/>
						<line class="st0" x1="382.4" y1="357" x2="382.4" y2="350.6"/>
					</g>
				</g>
				<g>
					<path class="st0" d="M329.4,424.4h-46.5v-60.9h33.7l6.4,6.4l6.4,6.4V424.4L329.4,424.4z"/>
					<path class="st0" d="M329.4,376.3h-12.9v-12.9"/>
					<g>
						<path class="st0" d="M322.9,430.8L322.9,430.8h-46.5v-60.9h6.5"/>
						<line class="st0" x1="322.9" y1="430.8" x2="322.9" y2="424.4"/>
					</g>
					<g>
						<path class="st0" d="M316.5,437.3L316.5,437.3H270v-60.9h6.5"/>
						<line class="st0" x1="316.5" y1="437.3" x2="316.5" y2="430.8"/>
					</g>
				</g>
				<g>
					<path class="st0" d="M395.3,424.4h-46.5v-60.9h33.7l6.4,6.4l6.4,6.4V424.4L395.3,424.4z"/>
					<path class="st0" d="M395.3,376.3h-12.9v-12.9"/>
					<g>
						<path class="st0" d="M388.8,430.8L388.8,430.8h-46.5v-60.9h6.5"/>
						<line class="st0" x1="388.8" y1="430.8" x2="388.8" y2="424.4"/>
					</g>
					<g>
						<path class="st0" d="M382.4,437.3L382.4,437.3h-46.5v-60.9h6.5"/>
						<line class="st0" x1="382.4" y1="437.3" x2="382.4" y2="430.8"/>
					</g>
				</g>
			</g>
			<g>
				<g>
					<path class="st0" d="M197.3,504.6h-46.5v-60.9h33.7l6.4,6.4l6.4,6.4V504.6L197.3,504.6z"/>
					<path class="st0" d="M197.3,456.6h-12.9v-12.9"/>
					<g>
						<path class="st0" d="M190.8,511.1L190.8,511.1h-46.5v-60.9h6.5"/>
						<line class="st0" x1="190.8" y1="511.1" x2="190.8" y2="504.6"/>
					</g>
					<g>
						<path class="st0" d="M184.4,517.5L184.4,517.5h-46.5v-60.9h6.5"/>
						<line class="st0" x1="184.4" y1="517.5" x2="184.4" y2="511.1"/>
					</g>
				</g>
				<g>
					<path class="st0" d="M263.2,504.6h-46.5v-60.9h33.7l6.4,6.4l6.4,6.4V504.6L263.2,504.6z"/>
					<path class="st0" d="M263.2,456.6h-12.9v-12.9"/>
					<g>
						<path class="st0" d="M256.7,511.1L256.7,511.1h-46.5v-60.9h6.5"/>
						<line class="st0" x1="256.7" y1="511.1" x2="256.7" y2="504.6"/>
					</g>
					<g>
						<path class="st0" d="M250.3,517.5L250.3,517.5h-46.5v-60.9h6.5"/>
						<line class="st0" x1="250.3" y1="517.5" x2="250.3" y2="511.1"/>
					</g>
				</g>
				<g>
					<path class="st0" d="M197.3,584.9h-46.5V524h33.7l6.4,6.4l6.4,6.4V584.9L197.3,584.9z"/>
					<path class="st0" d="M197.3,536.9h-12.9V524"/>
					<g>
						<path class="st0" d="M190.8,591.3L190.8,591.3h-46.5v-60.9h6.5"/>
						<line class="st0" x1="190.8" y1="591.3" x2="190.8" y2="584.9"/>
					</g>
					<g>
						<path class="st0" d="M184.4,597.8L184.4,597.8h-46.5v-60.9h6.5"/>
						<line class="st0" x1="184.4" y1="597.8" x2="184.4" y2="591.3"/>
					</g>
				</g>
				<g>
					<path class="st0" d="M263.2,584.9h-46.5V524h33.7l6.4,6.4l6.4,6.4V584.9L263.2,584.9z"/>
					<path class="st0" d="M263.2,536.9h-12.9V524"/>
					<g>
						<path class="st0" d="M256.7,591.3L256.7,591.3h-46.5v-60.9h6.5"/>
						<line class="st0" x1="256.7" y1="591.3" x2="256.7" y2="584.9"/>
					</g>
					<g>
						<path class="st0" d="M250.3,597.8L250.3,597.8h-46.5v-60.9h6.5"/>
						<line class="st0" x1="250.3" y1="597.8" x2="250.3" y2="591.3"/>
					</g>
				</g>
			</g>
			<g>
				<g>
					<path class="st0" d="M329.1,504.6h-46.6v-60.9h33.7l6.4,6.4l6.4,6.4L329.1,504.6L329.1,504.6z"/>
					<path class="st0" d="M329.1,456.6h-12.9v-12.9"/>
					<g>
						<path class="st0" d="M322.6,511.1L322.6,511.1h-46.5v-60.9h6.5"/>
						<line class="st0" x1="322.6" y1="511.1" x2="322.6" y2="504.6"/>
					</g>
					<g>
						<path class="st0" d="M316.2,517.5L316.2,517.5h-46.5v-60.9h6.5"/>
						<line class="st0" x1="316.2" y1="517.5" x2="316.2" y2="511.1"/>
					</g>
				</g>
				<g>
					<path class="st0" d="M395,504.6h-46.5v-60.9h33.7l6.4,6.4l6.4,6.4V504.6L395,504.6z"/>
					<path class="st0" d="M395,456.6h-12.9v-12.9"/>
					<g>
						<path class="st0" d="M388.5,511.1L388.5,511.1H342v-60.9h6.5"/>
						<line class="st0" x1="388.5" y1="511.1" x2="388.5" y2="504.6"/>
					</g>
					<g>
						<path class="st0" d="M382.1,517.5L382.1,517.5h-46.5v-60.9h6.5"/>
						<line class="st0" x1="382.1" y1="517.5" x2="382.1" y2="511.1"/>
					</g>
				</g>
				<g>
					<path class="st0" d="M329.1,584.9h-46.6V524h33.7l6.4,6.4l6.4,6.4L329.1,584.9L329.1,584.9z"/>
					<path class="st0" d="M329.1,536.9h-12.9V524"/>
					<g>
						<path class="st0" d="M322.6,591.3L322.6,591.3h-46.5v-60.9h6.5"/>
						<line class="st0" x1="322.6" y1="591.3" x2="322.6" y2="584.9"/>
					</g>
					<g>
						<path class="st0" d="M316.2,597.8L316.2,597.8h-46.5v-60.9h6.5"/>
						<line class="st0" x1="316.2" y1="597.8" x2="316.2" y2="591.3"/>
					</g>
				</g>
				<g>
					<path class="st0" d="M395,584.9h-46.5V524h33.7l6.4,6.4l6.4,6.4V584.9L395,584.9z"/>
					<path class="st0" d="M395,536.9h-12.9V524"/>
					<g>
						<path class="st0" d="M388.5,591.3L388.5,591.3H342v-60.9h6.5"/>
						<line class="st0" x1="388.5" y1="591.3" x2="388.5" y2="584.9"/>
					</g>
					<g>
						<path class="st0" d="M382.1,597.8L382.1,597.8h-46.5v-60.9h6.5"/>
						<line class="st0" x1="382.1" y1="597.8" x2="382.1" y2="591.3"/>
					</g>
				</g>
			</g>
		</g>
	</g>
	<g>
		<g>
			<g>
				<g>
					<path class="st0" d="M65.2,665.1H18.7v-60.9h33.7l6.4,6.4l6.4,6.4V665.1L65.2,665.1z"/>
					<path class="st0" d="M65.2,617.1H52.3l0-12.9"/>
					<g>
						<path class="st0" d="M58.7,671.6L58.7,671.6H12.2v-60.9h6.5"/>
						<line class="st0" x1="58.7" y1="671.6" x2="58.7" y2="665.1"/>
					</g>
					<g>
						<path class="st0" d="M52.3,678L52.3,678H5.8v-60.9h6.5"/>
						<line class="st0" x1="52.3" y1="678" x2="52.3" y2="671.6"/>
					</g>
				</g>
				<g>
					<path class="st0" d="M131.1,665.1H84.5v-60.9h33.7l6.4,6.4l6.4,6.4L131.1,665.1L131.1,665.1z"/>
					<path class="st0" d="M131.1,617.1h-12.9v-12.9"/>
					<g>
						<path class="st0" d="M124.6,671.6L124.6,671.6H78.1v-60.9h6.5"/>
						<line class="st0" x1="124.6" y1="671.6" x2="124.6" y2="665.1"/>
					</g>
					<g>
						<path class="st0" d="M118.2,678L118.2,678H71.7v-60.9h6.5"/>
						<line class="st0" x1="118.2" y1="678" x2="118.2" y2="671.6"/>
					</g>
				</g>
				<g>
					<path class="st0" d="M65.2,745.4H18.7v-60.9h33.7l6.4,6.4l6.4,6.4V745.4L65.2,745.4z"/>
					<path class="st0" d="M65.2,697.4H52.3l0-12.9"/>
					<g>
						<path class="st0" d="M58.7,751.8L58.7,751.8H12.2v-60.9h6.5"/>
						<line class="st0" x1="58.7" y1="751.8" x2="58.7" y2="745.4"/>
					</g>
					<g>
						<path class="st0" d="M52.3,758.3L52.3,758.3H5.8v-60.9h6.5"/>
						<line class="st0" x1="52.3" y1="758.3" x2="52.3" y2="751.8"/>
					</g>
				</g>
				<g>
					<path class="st0" d="M131.1,745.4H84.5v-60.9h33.7l6.4,6.4l6.4,6.4L131.1,745.4L131.1,745.4z"/>
					<path class="st0" d="M131.1,697.4h-12.9v-12.9"/>
					<g>
						<path class="st0" d="M124.6,751.8L124.6,751.8H78.1v-60.9h6.5"/>
						<line class="st0" x1="124.6" y1="751.8" x2="124.6" y2="745.4"/>
					</g>
					<g>
						<path class="st0" d="M118.2,758.3L118.2,758.3H71.7v-60.9h6.5"/>
						<line class="st0" x1="118.2" y1="758.3" x2="118.2" y2="751.8"/>
					</g>
				</g>
			</g>
			<g>
				<g>
					<path class="st0" d="M64.8,825.7H18.3v-60.9H52l6.4,6.4l6.4,6.4V825.7L64.8,825.7z"/>
					<path class="st0" d="M64.8,777.6H51.9l0-12.9"/>
					<g>
						<path class="st0" d="M58.4,832.1L58.4,832.1H11.9v-60.9h6.5"/>
						<line class="st0" x1="58.4" y1="832.1" x2="58.4" y2="825.7"/>
					</g>
					<g>
						<path class="st0" d="M51.9,838.5L51.9,838.5H5.4v-60.9h6.5"/>
						<line class="st0" x1="51.9" y1="838.5" x2="51.9" y2="832.1"/>
					</g>
				</g>
				<g>
					<path class="st0" d="M130.7,825.7H84.2v-60.9h33.7l6.4,6.4l6.4,6.4V825.7L130.7,825.7z"/>
					<path class="st0" d="M130.7,777.6h-12.9v-12.9"/>
					<g>
						<path class="st0" d="M124.3,832.1L124.3,832.1H77.8v-60.9h6.5"/>
						<line class="st0" x1="124.3" y1="832.1" x2="124.3" y2="825.7"/>
					</g>
					<g>
						<path class="st0" d="M117.8,838.5L117.8,838.5H71.3v-60.9h6.5"/>
						<line class="st0" x1="117.8" y1="838.5" x2="117.8" y2="832.1"/>
					</g>
				</g>
				<g>
					<path class="st0" d="M64.8,905.9H18.3V845H52l6.4,6.4l6.4,6.4V905.9L64.8,905.9z"/>
					<path class="st0" d="M64.8,857.9H51.9l0-12.9"/>
					<g>
						<path class="st0" d="M58.4,912.3L58.4,912.3H11.9v-60.9h6.5"/>
						<line class="st0" x1="58.4" y1="912.3" x2="58.4" y2="905.9"/>
					</g>
					<g>
						<path class="st0" d="M51.9,918.8L51.9,918.8H5.4v-60.9h6.5"/>
						<line class="st0" x1="51.9" y1="918.8" x2="51.9" y2="912.3"/>
					</g>
				</g>
				<g>
					<path class="st0" d="M130.7,905.9H84.2V845h33.7l6.4,6.4l6.4,6.4V905.9L130.7,905.9z"/>
					<path class="st0" d="M130.7,857.9h-12.9V845"/>
					<g>
						<path class="st0" d="M124.3,912.3L124.3,912.3H77.8v-60.9h6.5"/>
						<line class="st0" x1="124.3" y1="912.3" x2="124.3" y2="905.9"/>
					</g>
					<g>
						<path class="st0" d="M117.8,918.8L117.8,918.8H71.3v-60.9h6.5"/>
						<line class="st0" x1="117.8" y1="918.8" x2="117.8" y2="912.3"/>
					</g>
				</g>
			</g>
		</g>
		<g>
			<g>
				<g>
					<path class="st0" d="M65.5,986.4H19v-60.9h33.7l6.4,6.4l6.4,6.4V986.4L65.5,986.4z"/>
					<path class="st0" d="M65.5,938.3H52.6l0-12.9"/>
					<g>
						<path class="st0" d="M59,992.8L59,992.8H12.5v-60.9H19"/>
						<line class="st0" x1="59" y1="992.8" x2="59" y2="986.4"/>
					</g>
					<g>
						<path class="st0" d="M52.6,999.2L52.6,999.2H6.1v-60.9h6.5"/>
						<line class="st0" x1="52.6" y1="999.2" x2="52.6" y2="992.8"/>
					</g>
				</g>
				<g>
					<path class="st0" d="M131.4,986.4H84.9v-60.9h33.7l6.4,6.4l6.4,6.4V986.4L131.4,986.4z"/>
					<path class="st0" d="M131.4,938.3h-12.9v-12.9"/>
					<g>
						<path class="st0" d="M124.9,992.8L124.9,992.8H78.4v-60.9h6.5"/>
						<line class="st0" x1="124.9" y1="992.8" x2="124.9" y2="986.4"/>
					</g>
					<g>
						<path class="st0" d="M118.5,999.2L118.5,999.2H72v-60.9h6.5"/>
						<line class="st0" x1="118.5" y1="999.2" x2="118.5" y2="992.8"/>
					</g>
				</g>
				<g>
					<path class="st0" d="M65.5,1066.6H19v-60.9h33.7l6.4,6.4l6.4,6.4V1066.6L65.5,1066.6z"/>
					<path class="st0" d="M65.5,1018.6H52.6v-12.9"/>
					<g>
						<path class="st0" d="M59,1073.1L59,1073.1H12.5v-60.9H19"/>
						<line class="st0" x1="59" y1="1073.1" x2="59" y2="1066.6"/>
					</g>
					<g>
						<path class="st0" d="M52.6,1079.5L52.6,1079.5H6.1v-60.9h6.5"/>
						<line class="st0" x1="52.6" y1="1079.5" x2="52.6" y2="1073.1"/>
					</g>
				</g>
				<g>
					<path class="st0" d="M131.4,1066.6H84.9v-60.9h33.7l6.4,6.4l6.4,6.4V1066.6L131.4,1066.6z"/>
					<path class="st0" d="M131.4,1018.6h-12.9v-12.9"/>
					<g>
						<path class="st0" d="M124.9,1073.1L124.9,1073.1H78.4v-60.9h6.5"/>
						<line class="st0" x1="124.9" y1="1073.1" x2="124.9" y2="1066.6"/>
					</g>
					<g>
						<path class="st0" d="M118.5,1079.5L118.5,1079.5H72v-60.9h6.5"/>
						<line class="st0" x1="118.5" y1="1079.5" x2="118.5" y2="1073.1"/>
					</g>
				</g>
			</g>
			<g>
				<g>
					<path class="st0" d="M65.2,1146.9H18.7V1086h33.7l6.4,6.4l6.4,6.4V1146.9L65.2,1146.9z"/>
					<path class="st0" d="M65.2,1098.8H52.3l0-12.9"/>
					<g>
						<path class="st0" d="M58.7,1153.3L58.7,1153.3H12.2v-60.9h6.5"/>
						<line class="st0" x1="58.7" y1="1153.3" x2="58.7" y2="1146.9"/>
					</g>
					<g>
						<path class="st0" d="M52.3,1159.7L52.3,1159.7H5.8v-60.9h6.5"/>
						<line class="st0" x1="52.3" y1="1159.7" x2="52.3" y2="1153.3"/>
					</g>
				</g>
				<g>
					<path class="st0" d="M131.1,1146.9H84.5V1086h33.7l6.4,6.4l6.4,6.4L131.1,1146.9L131.1,1146.9z"/>
					<path class="st0" d="M131.1,1098.8h-12.9v-12.9"/>
					<g>
						<path class="st0" d="M124.6,1153.3L124.6,1153.3H78.1v-60.9h6.5"/>
						<line class="st0" x1="124.6" y1="1153.3" x2="124.6" y2="1146.9"/>
					</g>
					<g>
						<path class="st0" d="M118.2,1159.7L118.2,1159.7H71.7v-60.9h6.5"/>
						<line class="st0" x1="118.2" y1="1159.7" x2="118.2" y2="1153.3"/>
					</g>
				</g>
				<g>
					<path class="st0" d="M65.2,1227.1H18.7v-60.9h33.7l6.4,6.4l6.4,6.4V1227.1L65.2,1227.1z"/>
					<path class="st0" d="M65.2,1179.1H52.3l0-12.9"/>
					<g>
						<path class="st0" d="M58.7,1233.6L58.7,1233.6H12.2v-60.9h6.5"/>
					</g>
					<g>
						<path class="st0" d="M52.3,1240L52.3,1240H5.8v-60.9h6.5"/>
					</g>
				</g>
				<g>
					<path class="st0" d="M131.1,1227.1H84.5v-60.9h33.7l6.4,6.4l6.4,6.4L131.1,1227.1L131.1,1227.1z"/>
					<path class="st0" d="M131.1,1179.1h-12.9v-12.9"/>
					<g>
						<path class="st0" d="M124.6,1233.6L124.6,1233.6H78.1v-60.9h6.5"/>
					</g>
					<g>
						<path class="st0" d="M118.2,1240L118.2,1240H71.7v-60.9h6.5"/>
					</g>
				</g>
			</g>
		</g>
		<g>
			<g>
				<g>
					<path class="st0" d="M197.6,665.1h-46.5v-60.9h33.7l6.4,6.4l6.4,6.4V665.1L197.6,665.1z"/>
					<path class="st0" d="M197.6,617.1h-12.9v-12.9"/>
					<g>
						<path class="st0" d="M191.1,671.6L191.1,671.6h-46.5v-60.9h6.5"/>
						<line class="st0" x1="191.1" y1="671.6" x2="191.1" y2="665.1"/>
					</g>
					<g>
						<path class="st0" d="M184.7,678L184.7,678h-46.5v-60.9h6.5"/>
						<line class="st0" x1="184.7" y1="678" x2="184.7" y2="671.6"/>
					</g>
				</g>
				<g>
					<path class="st0" d="M263.5,665.1H217v-60.9h33.7l6.4,6.4l6.4,6.4V665.1L263.5,665.1z"/>
					<path class="st0" d="M263.5,617.1h-12.9v-12.9"/>
					<g>
						<path class="st0" d="M257,671.6L257,671.6h-46.5v-60.9h6.5"/>
						<line class="st0" x1="257" y1="671.6" x2="257" y2="665.1"/>
					</g>
					<g>
						<path class="st0" d="M250.6,678L250.6,678h-46.5v-60.9h6.5"/>
						<line class="st0" x1="250.6" y1="678" x2="250.6" y2="671.6"/>
					</g>
				</g>
				<g>
					<path class="st0" d="M197.6,745.4h-46.5v-60.9h33.7l6.4,6.4l6.4,6.4V745.4L197.6,745.4z"/>
					<path class="st0" d="M197.6,697.4h-12.9v-12.9"/>
					<g>
						<path class="st0" d="M191.1,751.8L191.1,751.8h-46.5v-60.9h6.5"/>
						<line class="st0" x1="191.1" y1="751.8" x2="191.1" y2="745.4"/>
					</g>
					<g>
						<path class="st0" d="M184.7,758.3L184.7,758.3h-46.5v-60.9h6.5"/>
						<line class="st0" x1="184.7" y1="758.3" x2="184.7" y2="751.8"/>
					</g>
				</g>
				<g>
					<path class="st0" d="M263.5,745.4H217v-60.9h33.7l6.4,6.4l6.4,6.4V745.4L263.5,745.4z"/>
					<path class="st0" d="M263.5,697.4h-12.9v-12.9"/>
					<g>
						<path class="st0" d="M257,751.8L257,751.8h-46.5v-60.9h6.5"/>
						<line class="st0" x1="257" y1="751.8" x2="257" y2="745.4"/>
					</g>
					<g>
						<path class="st0" d="M250.6,758.3L250.6,758.3h-46.5v-60.9h6.5"/>
						<line class="st0" x1="250.6" y1="758.3" x2="250.6" y2="751.8"/>
					</g>
				</g>
			</g>
			<g>
				<g>
					<path class="st0" d="M329.4,665.1h-46.5v-60.9h33.7l6.4,6.4l6.4,6.4V665.1L329.4,665.1z"/>
					<path class="st0" d="M329.4,617.1h-12.9v-12.9"/>
					<g>
						<path class="st0" d="M322.9,671.6L322.9,671.6h-46.5v-60.9h6.5"/>
						<line class="st0" x1="322.9" y1="671.6" x2="322.9" y2="665.1"/>
					</g>
					<g>
						<path class="st0" d="M316.5,678L316.5,678H270v-60.9h6.5"/>
						<line class="st0" x1="316.5" y1="678" x2="316.5" y2="671.6"/>
					</g>
				</g>
				<g>
					<path class="st0" d="M395.3,665.1h-46.5v-60.9h33.7l6.4,6.4l6.4,6.4V665.1L395.3,665.1z"/>
					<path class="st0" d="M395.3,617.1h-12.9v-12.9"/>
					<g>
						<path class="st0" d="M388.8,671.6L388.8,671.6h-46.5v-60.9h6.5"/>
						<line class="st0" x1="388.8" y1="671.6" x2="388.8" y2="665.1"/>
					</g>
					<g>
						<path class="st0" d="M382.4,678L382.4,678h-46.5v-60.9h6.5"/>
						<line class="st0" x1="382.4" y1="678" x2="382.4" y2="671.6"/>
					</g>
				</g>
				<g>
					<path class="st0" d="M329.4,745.4h-46.5v-60.9h33.7l6.4,6.4l6.4,6.4V745.4L329.4,745.4z"/>
					<path class="st0" d="M329.4,697.4h-12.9v-12.9"/>
					<g>
						<path class="st0" d="M322.9,751.8L322.9,751.8h-46.5v-60.9h6.5"/>
						<line class="st0" x1="322.9" y1="751.8" x2="322.9" y2="745.4"/>
					</g>
					<g>
						<path class="st0" d="M316.5,758.3L316.5,758.3H270v-60.9h6.5"/>
						<line class="st0" x1="316.5" y1="758.3" x2="316.5" y2="751.8"/>
					</g>
				</g>
				<g>
					<path class="st0" d="M395.3,745.4h-46.5v-60.9h33.7l6.4,6.4l6.4,6.4V745.4L395.3,745.4z"/>
					<path class="st0" d="M395.3,697.4h-12.9v-12.9"/>
					<g>
						<path class="st0" d="M388.8,751.8L388.8,751.8h-46.5v-60.9h6.5"/>
						<line class="st0" x1="388.8" y1="751.8" x2="388.8" y2="745.4"/>
					</g>
					<g>
						<path class="st0" d="M382.4,758.3L382.4,758.3h-46.5v-60.9h6.5"/>
						<line class="st0" x1="382.4" y1="758.3" x2="382.4" y2="751.8"/>
					</g>
				</g>
			</g>
			<g>
				<g>
					<path class="st0" d="M197.3,825.7h-46.5v-60.9h33.7l6.4,6.4l6.4,6.4V825.7L197.3,825.7z"/>
					<path class="st0" d="M197.3,777.6h-12.9v-12.9"/>
					<g>
						<path class="st0" d="M190.8,832.1L190.8,832.1h-46.5v-60.9h6.5"/>
						<line class="st0" x1="190.8" y1="832.1" x2="190.8" y2="825.7"/>
					</g>
					<g>
						<path class="st0" d="M184.4,838.5L184.4,838.5h-46.5v-60.9h6.5"/>
						<line class="st0" x1="184.4" y1="838.5" x2="184.4" y2="832.1"/>
					</g>
				</g>
				<g>
					<path class="st0" d="M263.2,825.7h-46.5v-60.9h33.7l6.4,6.4l6.4,6.4V825.7L263.2,825.7z"/>
					<path class="st0" d="M263.2,777.6h-12.9v-12.9"/>
					<g>
						<path class="st0" d="M256.7,832.1L256.7,832.1h-46.5v-60.9h6.5"/>
						<line class="st0" x1="256.7" y1="832.1" x2="256.7" y2="825.7"/>
					</g>
					<g>
						<path class="st0" d="M250.3,838.5L250.3,838.5h-46.5v-60.9h6.5"/>
						<line class="st0" x1="250.3" y1="838.5" x2="250.3" y2="832.1"/>
					</g>
				</g>
				<g>
					<path class="st0" d="M197.3,905.9h-46.5V845h33.7l6.4,6.4l6.4,6.4V905.9L197.3,905.9z"/>
					<path class="st0" d="M197.3,857.9h-12.9V845"/>
					<g>
						<path class="st0" d="M190.8,912.3L190.8,912.3h-46.5v-60.9h6.5"/>
						<line class="st0" x1="190.8" y1="912.3" x2="190.8" y2="905.9"/>
					</g>
					<g>
						<path class="st0" d="M184.4,918.8L184.4,918.8h-46.5v-60.9h6.5"/>
						<line class="st0" x1="184.4" y1="918.8" x2="184.4" y2="912.3"/>
					</g>
				</g>
				<g>
					<path class="st0" d="M263.2,905.9h-46.5V845h33.7l6.4,6.4l6.4,6.4V905.9L263.2,905.9z"/>
					<path class="st0" d="M263.2,857.9h-12.9V845"/>
					<g>
						<path class="st0" d="M256.7,912.3L256.7,912.3h-46.5v-60.9h6.5"/>
						<line class="st0" x1="256.7" y1="912.3" x2="256.7" y2="905.9"/>
					</g>
					<g>
						<path class="st0" d="M250.3,918.8L250.3,918.8h-46.5v-60.9h6.5"/>
						<line class="st0" x1="250.3" y1="918.8" x2="250.3" y2="912.3"/>
					</g>
				</g>
			</g>
			<g>
				<g>
					<path class="st0" d="M329.1,825.7h-46.6v-60.9h33.7l6.4,6.4l6.4,6.4L329.1,825.7L329.1,825.7z"/>
					<path class="st0" d="M329.1,777.6h-12.9v-12.9"/>
					<g>
						<path class="st0" d="M322.6,832.1L322.6,832.1h-46.5v-60.9h6.5"/>
						<line class="st0" x1="322.6" y1="832.1" x2="322.6" y2="825.7"/>
					</g>
					<g>
						<path class="st0" d="M316.2,838.5L316.2,838.5h-46.5v-60.9h6.5"/>
						<line class="st0" x1="316.2" y1="838.5" x2="316.2" y2="832.1"/>
					</g>
				</g>
				<g>
					<path class="st0" d="M395,825.7h-46.5v-60.9h33.7l6.4,6.4l6.4,6.4V825.7L395,825.7z"/>
					<path class="st0" d="M395,777.6h-12.9v-12.9"/>
					<g>
						<path class="st0" d="M388.5,832.1L388.5,832.1H342v-60.9h6.5"/>
						<line class="st0" x1="388.5" y1="832.1" x2="388.5" y2="825.7"/>
					</g>
					<g>
						<path class="st0" d="M382.1,838.5L382.1,838.5h-46.5v-60.9h6.5"/>
						<line class="st0" x1="382.1" y1="838.5" x2="382.1" y2="832.1"/>
					</g>
				</g>
				<g>
					<path class="st0" d="M329.1,905.9h-46.6V845h33.7l6.4,6.4l6.4,6.4L329.1,905.9L329.1,905.9z"/>
					<path class="st0" d="M329.1,857.9h-12.9V845"/>
					<g>
						<path class="st0" d="M322.6,912.3L322.6,912.3h-46.5v-60.9h6.5"/>
						<line class="st0" x1="322.6" y1="912.3" x2="322.6" y2="905.9"/>
					</g>
					<g>
						<path class="st0" d="M316.2,918.8L316.2,918.8h-46.5v-60.9h6.5"/>
						<line class="st0" x1="316.2" y1="918.8" x2="316.2" y2="912.3"/>
					</g>
				</g>
				<g>
					<path class="st0" d="M395,905.9h-46.5V845h33.7l6.4,6.4l6.4,6.4V905.9L395,905.9z"/>
					<path class="st0" d="M395,857.9h-12.9V845"/>
					<g>
						<path class="st0" d="M388.5,912.3L388.5,912.3H342v-60.9h6.5"/>
						<line class="st0" x1="388.5" y1="912.3" x2="388.5" y2="905.9"/>
					</g>
					<g>
						<path class="st0" d="M382.1,918.8L382.1,918.8h-46.5v-60.9h6.5"/>
						<line class="st0" x1="382.1" y1="918.8" x2="382.1" y2="912.3"/>
					</g>
				</g>
			</g>
		</g>
		<g>
			<g>
				<g>
					<path class="st0" d="M197.9,986.4h-46.5v-60.9h33.7l6.4,6.4l6.4,6.4V986.4L197.9,986.4z"/>
					<path class="st0" d="M197.9,938.3H185v-12.9"/>
					<g>
						<path class="st0" d="M191.5,992.8L191.5,992.8H145v-60.9h6.5"/>
						<line class="st0" x1="191.5" y1="992.8" x2="191.5" y2="986.4"/>
					</g>
					<g>
						<path class="st0" d="M185,999.2L185,999.2h-46.5v-60.9h6.5"/>
						<line class="st0" x1="185" y1="999.2" x2="185" y2="992.8"/>
					</g>
				</g>
				<g>
					<path class="st0" d="M263.8,986.4h-46.5v-60.9H251l6.4,6.4l6.4,6.4V986.4L263.8,986.4z"/>
					<path class="st0" d="M263.8,938.3h-12.9v-12.9"/>
					<g>
						<path class="st0" d="M257.4,992.8L257.4,992.8h-46.5v-60.9h6.5"/>
						<line class="st0" x1="257.4" y1="992.8" x2="257.4" y2="986.4"/>
					</g>
					<g>
						<path class="st0" d="M250.9,999.2L250.9,999.2h-46.5v-60.9h6.5"/>
						<line class="st0" x1="250.9" y1="999.2" x2="250.9" y2="992.8"/>
					</g>
				</g>
				<g>
					<path class="st0" d="M197.9,1066.6h-46.5v-60.9h33.7l6.4,6.4l6.4,6.4V1066.6L197.9,1066.6z"/>
					<path class="st0" d="M197.9,1018.6H185v-12.9"/>
					<g>
						<path class="st0" d="M191.5,1073.1L191.5,1073.1H145v-60.9h6.5"/>
						<line class="st0" x1="191.5" y1="1073.1" x2="191.5" y2="1066.6"/>
					</g>
					<g>
						<path class="st0" d="M185,1079.5L185,1079.5h-46.5v-60.9h6.5"/>
						<line class="st0" x1="185" y1="1079.5" x2="185" y2="1073.1"/>
					</g>
				</g>
				<g>
					<path class="st0" d="M263.8,1066.6h-46.5v-60.9H251l6.4,6.4l6.4,6.4V1066.6L263.8,1066.6z"/>
					<path class="st0" d="M263.8,1018.6h-12.9v-12.9"/>
					<g>
						<path class="st0" d="M257.4,1073.1L257.4,1073.1h-46.5v-60.9h6.5"/>
						<line class="st0" x1="257.4" y1="1073.1" x2="257.4" y2="1066.6"/>
					</g>
					<g>
						<path class="st0" d="M250.9,1079.5L250.9,1079.5h-46.5v-60.9h6.5"/>
						<line class="st0" x1="250.9" y1="1079.5" x2="250.9" y2="1073.1"/>
					</g>
				</g>
			</g>
			<g>
				<g>
					<path class="st0" d="M329.7,986.4h-46.5v-60.9h33.7l6.4,6.4l6.4,6.4V986.4L329.7,986.4z"/>
					<path class="st0" d="M329.7,938.3h-12.9v-12.9"/>
					<g>
						<path class="st0" d="M323.3,992.8L323.3,992.8h-46.5v-60.9h6.5"/>
						<line class="st0" x1="323.3" y1="992.8" x2="323.3" y2="986.4"/>
					</g>
					<g>
						<path class="st0" d="M316.8,999.2L316.8,999.2h-46.5v-60.9h6.5"/>
						<line class="st0" x1="316.8" y1="999.2" x2="316.8" y2="992.8"/>
					</g>
				</g>
				<g>
					<path class="st0" d="M395.6,986.4h-46.5v-60.9h33.7l6.4,6.4l6.4,6.4V986.4L395.6,986.4z"/>
					<path class="st0" d="M395.6,938.3h-12.9v-12.9"/>
					<g>
						<path class="st0" d="M389.1,992.8L389.1,992.8h-46.5v-60.9h6.5"/>
						<line class="st0" x1="389.1" y1="992.8" x2="389.1" y2="986.4"/>
					</g>
					<g>
						<path class="st0" d="M382.7,999.2L382.7,999.2h-46.5v-60.9h6.5"/>
						<line class="st0" x1="382.7" y1="999.2" x2="382.7" y2="992.8"/>
					</g>
				</g>
				<g>
					<path class="st0" d="M329.7,1066.6h-46.5v-60.9h33.7l6.4,6.4l6.4,6.4V1066.6L329.7,1066.6z"/>
					<path class="st0" d="M329.7,1018.6h-12.9v-12.9"/>
					<g>
						<path class="st0" d="M323.3,1073.1L323.3,1073.1h-46.5v-60.9h6.5"/>
						<line class="st0" x1="323.3" y1="1073.1" x2="323.3" y2="1066.6"/>
					</g>
					<g>
						<path class="st0" d="M316.8,1079.5L316.8,1079.5h-46.5v-60.9h6.5"/>
						<line class="st0" x1="316.8" y1="1079.5" x2="316.8" y2="1073.1"/>
					</g>
				</g>
				<g>
					<path class="st0" d="M395.6,1066.6h-46.5v-60.9h33.7l6.4,6.4l6.4,6.4V1066.6L395.6,1066.6z"/>
					<path class="st0" d="M395.6,1018.6h-12.9v-12.9"/>
					<g>
						<path class="st0" d="M389.1,1073.1L389.1,1073.1h-46.5v-60.9h6.5"/>
						<line class="st0" x1="389.1" y1="1073.1" x2="389.1" y2="1066.6"/>
					</g>
					<g>
						<path class="st0" d="M382.7,1079.5L382.7,1079.5h-46.5v-60.9h6.5"/>
						<line class="st0" x1="382.7" y1="1079.5" x2="382.7" y2="1073.1"/>
					</g>
				</g>
			</g>
			<g>
				<g>
					<path class="st0" d="M197.6,1146.9h-46.5V1086h33.7l6.4,6.4l6.4,6.4V1146.9L197.6,1146.9z"/>
					<path class="st0" d="M197.6,1098.8h-12.9v-12.9"/>
					<g>
						<path class="st0" d="M191.1,1153.3L191.1,1153.3h-46.5v-60.9h6.5"/>
						<line class="st0" x1="191.1" y1="1153.3" x2="191.1" y2="1146.9"/>
					</g>
					<g>
						<path class="st0" d="M184.7,1159.7L184.7,1159.7h-46.5v-60.9h6.5"/>
						<line class="st0" x1="184.7" y1="1159.7" x2="184.7" y2="1153.3"/>
					</g>
				</g>
				<g>
					<path class="st0" d="M263.5,1146.9H217V1086h33.7l6.4,6.4l6.4,6.4V1146.9L263.5,1146.9z"/>
					<path class="st0" d="M263.5,1098.8h-12.9v-12.9"/>
					<g>
						<path class="st0" d="M257,1153.3L257,1153.3h-46.5v-60.9h6.5"/>
						<line class="st0" x1="257" y1="1153.3" x2="257" y2="1146.9"/>
					</g>
					<g>
						<path class="st0" d="M250.6,1159.7L250.6,1159.7h-46.5v-60.9h6.5"/>
						<line class="st0" x1="250.6" y1="1159.7" x2="250.6" y2="1153.3"/>
					</g>
				</g>
				<g>
					<path class="st0" d="M197.6,1227.1h-46.5v-60.9h33.7l6.4,6.4l6.4,6.4V1227.1L197.6,1227.1z"/>
					<path class="st0" d="M197.6,1179.1h-12.9v-12.9"/>
					<g>
						<path class="st0" d="M191.1,1233.6L191.1,1233.6h-46.5v-60.9h6.5"/>
					</g>
					<g>
						<path class="st0" d="M184.7,1240L184.7,1240h-46.5v-60.9h6.5"/>
					</g>
				</g>
				<g>
					<path class="st0" d="M263.5,1227.1H217v-60.9h33.7l6.4,6.4l6.4,6.4V1227.1L263.5,1227.1z"/>
					<path class="st0" d="M263.5,1179.1h-12.9v-12.9"/>
					<g>
						<path class="st0" d="M257,1233.6L257,1233.6h-46.5v-60.9h6.5"/>
					</g>
					<g>
						<path class="st0" d="M250.6,1240L250.6,1240h-46.5v-60.9h6.5"/>
					</g>
				</g>
			</g>
			<g>
				<g>
					<path class="st0" d="M329.4,1146.9h-46.5V1086h33.7l6.4,6.4l6.4,6.4V1146.9L329.4,1146.9z"/>
					<path class="st0" d="M329.4,1098.8h-12.9v-12.9"/>
					<g>
						<path class="st0" d="M322.9,1153.3L322.9,1153.3h-46.5v-60.9h6.5"/>
						<line class="st0" x1="322.9" y1="1153.3" x2="322.9" y2="1146.9"/>
					</g>
					<g>
						<path class="st0" d="M316.5,1159.7L316.5,1159.7H270v-60.9h6.5"/>
						<line class="st0" x1="316.5" y1="1159.7" x2="316.5" y2="1153.3"/>
					</g>
				</g>
				<g>
					<path class="st0" d="M395.3,1146.9h-46.5V1086h33.7l6.4,6.4l6.4,6.4V1146.9L395.3,1146.9z"/>
					<path class="st0" d="M395.3,1098.8h-12.9v-12.9"/>
					<g>
						<path class="st0" d="M388.8,1153.3L388.8,1153.3h-46.5v-60.9h6.5"/>
						<line class="st0" x1="388.8" y1="1153.3" x2="388.8" y2="1146.9"/>
					</g>
					<g>
						<path class="st0" d="M382.4,1159.7L382.4,1159.7h-46.5v-60.9h6.5"/>
						<line class="st0" x1="382.4" y1="1159.7" x2="382.4" y2="1153.3"/>
					</g>
				</g>
				<g>
					<path class="st0" d="M329.4,1227.1h-46.5v-60.9h33.7l6.4,6.4l6.4,6.4V1227.1L329.4,1227.1z"/>
					<path class="st0" d="M329.4,1179.1h-12.9v-12.9"/>
					<g>
						<path class="st0" d="M322.9,1233.6L322.9,1233.6h-46.5v-60.9h6.5"/>
					</g>
					<g>
						<path class="st0" d="M316.5,1240L316.5,1240H270v-60.9h6.5"/>
					</g>
				</g>
				<g>
					<path class="st0" d="M395.3,1227.1h-46.5v-60.9h33.7l6.4,6.4l6.4,6.4V1227.1L395.3,1227.1z"/>
					<path class="st0" d="M395.3,1179.1h-12.9v-12.9"/>
					<g>
						<path class="st0" d="M388.8,1233.6L388.8,1233.6h-46.5v-60.9h6.5"/>
					</g>
					<g>
						<path class="st0" d="M382.4,1240L382.4,1240h-46.5v-60.9h6.5"/>
					</g>
				</g>
			</g>
		</g>
	</g>
</g>
<g>
	<g>
		<g>
			<g>
				<g>
					<path class="st0" d="M461.5,22.9H415V-38h33.7l6.4,6.4l6.4,6.4L461.5,22.9L461.5,22.9z"/>
					<g>
						<path class="st0" d="M455.1,29.4L455.1,29.4h-46.5v-60.9h6.5"/>
						<line class="st0" x1="455.1" y1="29.4" x2="455.1" y2="22.9"/>
					</g>
					<g>
						<path class="st0" d="M448.6,35.8L448.6,35.8h-46.5v-60.9h6.5"/>
						<line class="st0" x1="448.6" y1="35.8" x2="448.6" y2="29.4"/>
					</g>
				</g>
				<g>
					<path class="st0" d="M527.4,22.9h-46.5V-38h33.7l6.4,6.4l6.4,6.4L527.4,22.9L527.4,22.9z"/>
					<g>
						<path class="st0" d="M521,29.4L521,29.4h-46.5v-60.9h6.5"/>
						<line class="st0" x1="521" y1="29.4" x2="521" y2="22.9"/>
					</g>
					<g>
						<path class="st0" d="M514.5,35.8L514.5,35.8H468v-60.9h6.5"/>
						<line class="st0" x1="514.5" y1="35.8" x2="514.5" y2="29.4"/>
					</g>
				</g>
				<g>
					<path class="st0" d="M461.5,103.2H415V42.3h33.7l6.4,6.4l6.4,6.4L461.5,103.2L461.5,103.2z"/>
					<path class="st0" d="M461.5,55.1h-12.9V42.2"/>
					<g>
						<path class="st0" d="M455.1,109.6L455.1,109.6h-46.5V48.7h6.5"/>
						<line class="st0" x1="455.1" y1="109.6" x2="455.1" y2="103.2"/>
					</g>
					<g>
						<path class="st0" d="M448.6,116.1L448.6,116.1h-46.5v-61h6.5"/>
						<line class="st0" x1="448.6" y1="116.1" x2="448.6" y2="109.6"/>
					</g>
				</g>
				<g>
					<path class="st0" d="M527.4,103.2h-46.5V42.3h33.7l6.4,6.4l6.4,6.4L527.4,103.2L527.4,103.2z"/>
					<path class="st0" d="M527.4,55.1h-12.9V42.2"/>
					<g>
						<path class="st0" d="M521,109.6L521,109.6h-46.5V48.7h6.5"/>
						<line class="st0" x1="521" y1="109.6" x2="521" y2="103.2"/>
					</g>
					<g>
						<path class="st0" d="M514.5,116.1L514.5,116.1H468v-61h6.5"/>
						<line class="st0" x1="514.5" y1="116.1" x2="514.5" y2="109.6"/>
					</g>
				</g>
			</g>
			<g>
				<g>
					<path class="st0" d="M593,22.9h-46.5V-38h33.7l6.4,6.4l6.4,6.4L593,22.9L593,22.9z"/>
					<g>
						<path class="st0" d="M586.6,29.4L586.6,29.4h-46.5v-60.9h6.5"/>
						<line class="st0" x1="586.6" y1="29.4" x2="586.6" y2="22.9"/>
					</g>
					<g>
						<path class="st0" d="M580.1,35.8L580.1,35.8h-46.5v-60.9h6.5"/>
						<line class="st0" x1="580.1" y1="35.8" x2="580.1" y2="29.4"/>
					</g>
				</g>
				<g>
					<path class="st0" d="M658.9,22.9h-46.5V-38h33.7l6.4,6.4l6.4,6.4L658.9,22.9L658.9,22.9z"/>
					<g>
						<path class="st0" d="M652.5,29.4L652.5,29.4H606v-60.9h6.5"/>
						<line class="st0" x1="652.5" y1="29.4" x2="652.5" y2="22.9"/>
					</g>
					<g>
						<path class="st0" d="M646,35.8L646,35.8h-46.5v-60.9h6.5"/>
						<line class="st0" x1="646" y1="35.8" x2="646" y2="29.4"/>
					</g>
				</g>
				<g>
					<path class="st0" d="M593,103.2h-46.5V42.3h33.7l6.4,6.4l6.4,6.4L593,103.2L593,103.2z"/>
					<path class="st0" d="M593,55.1h-12.9V42.2"/>
					<g>
						<path class="st0" d="M586.6,109.6L586.6,109.6h-46.5V48.7h6.5"/>
						<line class="st0" x1="586.6" y1="109.6" x2="586.6" y2="103.2"/>
					</g>
					<g>
						<path class="st0" d="M580.1,116.1L580.1,116.1h-46.5v-61h6.5"/>
						<line class="st0" x1="580.1" y1="116.1" x2="580.1" y2="109.6"/>
					</g>
				</g>
				<g>
					<path class="st0" d="M658.9,103.2h-46.5V42.3h33.7l6.4,6.4l6.4,6.4L658.9,103.2L658.9,103.2z"/>
					<path class="st0" d="M658.9,55.1H646V42.2"/>
					<g>
						<path class="st0" d="M652.5,109.6L652.5,109.6H606V48.7h6.5"/>
						<line class="st0" x1="652.5" y1="109.6" x2="652.5" y2="103.2"/>
					</g>
					<g>
						<path class="st0" d="M646,116.1L646,116.1h-46.5v-61h6.5"/>
						<line class="st0" x1="646" y1="116.1" x2="646" y2="109.6"/>
					</g>
				</g>
			</g>
			<g>
				<g>
					<path class="st0" d="M461.2,183.4h-46.5v-60.9h33.7l6.4,6.4l6.4,6.4L461.2,183.4L461.2,183.4z"/>
					<path class="st0" d="M461.2,135.4h-12.9v-12.9"/>
					<g>
						<path class="st0" d="M454.8,189.9L454.8,189.9h-46.5V129h6.5"/>
						<line class="st0" x1="454.8" y1="189.9" x2="454.8" y2="183.4"/>
					</g>
					<g>
						<path class="st0" d="M448.3,196.3L448.3,196.3h-46.5v-60.9h6.5"/>
						<line class="st0" x1="448.3" y1="196.3" x2="448.3" y2="189.9"/>
					</g>
				</g>
				<g>
					<path class="st0" d="M527.1,183.4h-46.5v-60.9h33.7l6.4,6.4l6.4,6.4L527.1,183.4L527.1,183.4z"/>
					<path class="st0" d="M527.1,135.4h-12.9v-12.9"/>
					<g>
						<path class="st0" d="M520.7,189.9L520.7,189.9h-46.5V129h6.5"/>
						<line class="st0" x1="520.7" y1="189.9" x2="520.7" y2="183.4"/>
					</g>
					<g>
						<path class="st0" d="M514.2,196.3L514.2,196.3h-46.5v-60.9h6.5"/>
						<line class="st0" x1="514.2" y1="196.3" x2="514.2" y2="189.9"/>
					</g>
				</g>
				<g>
					<path class="st0" d="M461.2,263.7h-46.5v-60.9h33.7l6.4,6.4l6.4,6.4L461.2,263.7L461.2,263.7z"/>
					<path class="st0" d="M461.2,215.6h-12.9v-12.9"/>
					<g>
						<path class="st0" d="M454.8,270.1L454.8,270.1h-46.5v-60.9h6.5"/>
						<line class="st0" x1="454.8" y1="270.1" x2="454.8" y2="263.7"/>
					</g>
					<g>
						<path class="st0" d="M448.3,276.6L448.3,276.6h-46.5v-60.9h6.5"/>
						<line class="st0" x1="448.3" y1="276.6" x2="448.3" y2="270.1"/>
					</g>
				</g>
				<g>
					<path class="st0" d="M527.1,263.7h-46.5v-60.9h33.7l6.4,6.4l6.4,6.4L527.1,263.7L527.1,263.7z"/>
					<path class="st0" d="M527.1,215.6h-12.9v-12.9"/>
					<g>
						<path class="st0" d="M520.7,270.1L520.7,270.1h-46.5v-60.9h6.5"/>
						<line class="st0" x1="520.7" y1="270.1" x2="520.7" y2="263.7"/>
					</g>
					<g>
						<path class="st0" d="M514.2,276.6L514.2,276.6h-46.5v-60.9h6.5"/>
						<line class="st0" x1="514.2" y1="276.6" x2="514.2" y2="270.1"/>
					</g>
				</g>
			</g>
			<g>
				<g>
					<path class="st0" d="M592.7,183.4h-46.5v-60.9h33.7l6.4,6.4l6.4,6.4L592.7,183.4L592.7,183.4z"/>
					<path class="st0" d="M592.7,135.4h-12.9v-12.9"/>
					<g>
						<path class="st0" d="M586.3,189.9L586.3,189.9h-46.5V129h6.5"/>
						<line class="st0" x1="586.3" y1="189.9" x2="586.3" y2="183.4"/>
					</g>
					<g>
						<path class="st0" d="M579.8,196.3L579.8,196.3h-46.5v-60.9h6.5"/>
						<line class="st0" x1="579.8" y1="196.3" x2="579.8" y2="189.9"/>
					</g>
				</g>
				<g>
					<path class="st0" d="M592.7,263.7h-46.5v-60.9h33.7l6.4,6.4l6.4,6.4L592.7,263.7L592.7,263.7z"/>
					<path class="st0" d="M592.7,215.6h-12.9v-12.9"/>
					<g>
						<path class="st0" d="M586.3,270.1L586.3,270.1h-46.5v-60.9h6.5"/>
						<line class="st0" x1="586.3" y1="270.1" x2="586.3" y2="263.7"/>
					</g>
					<g>
						<path class="st0" d="M579.8,276.6L579.8,276.6h-46.5v-60.9h6.5"/>
						<line class="st0" x1="579.8" y1="276.6" x2="579.8" y2="270.1"/>
					</g>
				</g>
				<g>
					<path class="st0" d="M658.6,263.7h-46.5v-60.9h33.7l6.4,6.4l6.4,6.4L658.6,263.7L658.6,263.7z"/>
					<path class="st0" d="M658.6,215.6h-12.9v-12.9"/>
					<g>
						<path class="st0" d="M652.2,270.1L652.2,270.1h-46.5v-60.9h6.5"/>
						<line class="st0" x1="652.2" y1="270.1" x2="652.2" y2="263.7"/>
					</g>
					<g>
						<path class="st0" d="M645.7,276.6L645.7,276.6h-46.5v-60.9h6.5"/>
						<line class="st0" x1="645.7" y1="276.6" x2="645.7" y2="270.1"/>
					</g>
				</g>
			</g>
		</g>
		<g>
			<g>
				<g>
					<path class="st0" d="M791,22.9h-46.5V-38h33.7l6.4,6.4l6.4,6.4L791,22.9L791,22.9z"/>
					<g>
						<path class="st0" d="M784.6,29.4L784.6,29.4h-46.5v-60.9h6.5"/>
						<line class="st0" x1="784.6" y1="29.4" x2="784.6" y2="22.9"/>
					</g>
					<g>
						<path class="st0" d="M778.1,35.8L778.1,35.8h-46.5v-60.9h6.5"/>
						<line class="st0" x1="778.1" y1="35.8" x2="778.1" y2="29.4"/>
					</g>
				</g>
				<g>
					<path class="st0" d="M725.1,22.9h-46.5V-38h33.7l6.4,6.4l6.4,6.4V22.9L725.1,22.9z"/>
					<g>
						<path class="st0" d="M718.7,29.4L718.7,29.4h-46.5v-60.9h6.5"/>
						<line class="st0" x1="718.7" y1="29.4" x2="718.7" y2="22.9"/>
					</g>
					<g>
						<path class="st0" d="M712.2,35.8L712.2,35.8h-46.5v-60.9h6.5"/>
						<line class="st0" x1="712.2" y1="35.8" x2="712.2" y2="29.4"/>
					</g>
				</g>
				<g>
					<path class="st0" d="M791,103.2h-46.5V42.3h33.7l6.4,6.4l6.4,6.4L791,103.2L791,103.2z"/>
					<path class="st0" d="M791,55.1h-12.9V42.2"/>
					<g>
						<path class="st0" d="M784.6,109.6L784.6,109.6h-46.5V48.7h6.5"/>
						<line class="st0" x1="784.6" y1="109.6" x2="784.6" y2="103.2"/>
					</g>
					<g>
						<path class="st0" d="M778.1,116.1L778.1,116.1h-46.5v-61h6.5"/>
						<line class="st0" x1="778.1" y1="116.1" x2="778.1" y2="109.6"/>
					</g>
				</g>
			</g>
			<g>
				<g>
					<path class="st0" d="M857,22.9h-46.5V-38h33.7l6.4,6.4l6.4,6.4V22.9L857,22.9z"/>
					<g>
						<path class="st0" d="M850.5,29.4L850.5,29.4H804v-60.9h6.5"/>
						<line class="st0" x1="850.5" y1="29.4" x2="850.5" y2="22.9"/>
					</g>
					<g>
						<path class="st0" d="M844.1,35.8L844.1,35.8h-46.5v-60.9h6.5"/>
						<line class="st0" x1="844.1" y1="35.8" x2="844.1" y2="29.4"/>
					</g>
				</g>
				<g>
					<path class="st0" d="M922.8,22.9h-46.5V-38H910l6.4,6.4l6.4,6.4V22.9L922.8,22.9z"/>
					<g>
						<path class="st0" d="M916.4,29.4L916.4,29.4h-46.5v-60.9h6.5"/>
						<line class="st0" x1="916.4" y1="29.4" x2="916.4" y2="22.9"/>
					</g>
					<g>
						<path class="st0" d="M909.9,35.8L909.9,35.8h-46.5v-60.9h6.5"/>
						<line class="st0" x1="909.9" y1="35.8" x2="909.9" y2="29.4"/>
					</g>
				</g>
				<g>
					<path class="st0" d="M857,103.2h-46.5V42.3h33.7l6.4,6.4l6.4,6.4V103.2L857,103.2z"/>
					<path class="st0" d="M857,55.1h-12.9V42.2"/>
					<g>
						<path class="st0" d="M850.5,109.6L850.5,109.6H804V48.7h6.5"/>
						<line class="st0" x1="850.5" y1="109.6" x2="850.5" y2="103.2"/>
					</g>
					<g>
						<path class="st0" d="M844.1,116.1L844.1,116.1h-46.5v-61h6.5"/>
						<line class="st0" x1="844.1" y1="116.1" x2="844.1" y2="109.6"/>
					</g>
				</g>
			</g>
			<g>
				<g>
					<path class="st0" d="M724.8,183.4h-46.5v-60.9H712l6.4,6.4l6.4,6.4V183.4L724.8,183.4z"/>
					<path class="st0" d="M724.8,135.4h-12.9v-12.9"/>
					<g>
						<path class="st0" d="M718.4,189.9L718.4,189.9h-46.5V129h6.5"/>
						<line class="st0" x1="718.4" y1="189.9" x2="718.4" y2="183.4"/>
					</g>
					<g>
						<path class="st0" d="M711.9,196.3L711.9,196.3h-46.5v-60.9h6.5"/>
						<line class="st0" x1="711.9" y1="196.3" x2="711.9" y2="189.9"/>
					</g>
				</g>
				<g>
					<path class="st0" d="M724.8,263.7h-46.5v-60.9H712l6.4,6.4l6.4,6.4V263.7L724.8,263.7z"/>
					<path class="st0" d="M724.8,215.6h-12.9v-12.9"/>
					<g>
						<path class="st0" d="M718.4,270.1L718.4,270.1h-46.5v-60.9h6.5"/>
						<line class="st0" x1="718.4" y1="270.1" x2="718.4" y2="263.7"/>
					</g>
					<g>
						<path class="st0" d="M711.9,276.6L711.9,276.6h-46.5v-60.9h6.5"/>
						<line class="st0" x1="711.9" y1="276.6" x2="711.9" y2="270.1"/>
					</g>
				</g>
			</g>
		</g>
		<g>
			<g>
				<g>
					<path class="st0" d="M461.9,344.1h-46.5v-60.9h33.7l6.4,6.4l6.4,6.4L461.9,344.1L461.9,344.1z"/>
					<path class="st0" d="M461.9,296.1H449v-12.9"/>
					<g>
						<path class="st0" d="M455.4,350.6L455.4,350.6h-46.5v-60.9h6.5"/>
						<line class="st0" x1="455.4" y1="350.6" x2="455.4" y2="344.1"/>
					</g>
					<g>
						<path class="st0" d="M449,357L449,357h-46.5v-60.9h6.5"/>
						<line class="st0" x1="449" y1="357" x2="449" y2="350.6"/>
					</g>
				</g>
				<g>
					<path class="st0" d="M527.8,344.1h-46.5v-60.9H515l6.4,6.4l6.4,6.4L527.8,344.1L527.8,344.1z"/>
					<path class="st0" d="M527.8,296.1h-12.9v-12.9"/>
					<g>
						<path class="st0" d="M521.3,350.6L521.3,350.6h-46.5v-60.9h6.5"/>
						<line class="st0" x1="521.3" y1="350.6" x2="521.3" y2="344.1"/>
					</g>
					<g>
						<path class="st0" d="M514.9,357L514.9,357h-46.5v-60.9h6.5"/>
						<line class="st0" x1="514.9" y1="357" x2="514.9" y2="350.6"/>
					</g>
				</g>
				<g>
					<path class="st0" d="M461.9,424.4h-46.5v-60.9h33.7l6.4,6.4l6.4,6.4L461.9,424.4L461.9,424.4z"/>
					<path class="st0" d="M461.9,376.3H449v-12.9"/>
					<g>
						<path class="st0" d="M455.4,430.8L455.4,430.8h-46.5v-60.9h6.5"/>
						<line class="st0" x1="455.4" y1="430.8" x2="455.4" y2="424.4"/>
					</g>
					<g>
						<path class="st0" d="M449,437.3L449,437.3h-46.5v-60.9h6.5"/>
						<line class="st0" x1="449" y1="437.3" x2="449" y2="430.8"/>
					</g>
				</g>
				<g>
					<path class="st0" d="M527.8,424.4h-46.5v-60.9H515l6.4,6.4l6.4,6.4L527.8,424.4L527.8,424.4z"/>
					<path class="st0" d="M527.8,376.3h-12.9v-12.9"/>
					<g>
						<path class="st0" d="M521.3,430.8L521.3,430.8h-46.5v-60.9h6.5"/>
						<line class="st0" x1="521.3" y1="430.8" x2="521.3" y2="424.4"/>
					</g>
					<g>
						<path class="st0" d="M514.9,437.3L514.9,437.3h-46.5v-60.9h6.5"/>
						<line class="st0" x1="514.9" y1="437.3" x2="514.9" y2="430.8"/>
					</g>
				</g>
			</g>
			<g>
				<g>
					<path class="st0" d="M593.4,344.1h-46.5v-60.9h33.7l6.4,6.4l6.4,6.4L593.4,344.1L593.4,344.1z"/>
					<path class="st0" d="M593.4,296.1h-12.9v-12.9"/>
					<g>
						<path class="st0" d="M586.9,350.6L586.9,350.6h-46.5v-60.9h6.5"/>
						<line class="st0" x1="586.9" y1="350.6" x2="586.9" y2="344.1"/>
					</g>
					<g>
						<path class="st0" d="M580.5,357L580.5,357H534v-60.9h6.5"/>
						<line class="st0" x1="580.5" y1="357" x2="580.5" y2="350.6"/>
					</g>
				</g>
				<g>
					<path class="st0" d="M659.3,344.1h-46.5v-60.9h33.7l6.4,6.4l6.4,6.4L659.3,344.1L659.3,344.1z"/>
					<path class="st0" d="M659.3,296.1h-12.9v-12.9"/>
					<g>
						<path class="st0" d="M652.8,350.6L652.8,350.6h-46.5v-60.9h6.5"/>
						<line class="st0" x1="652.8" y1="350.6" x2="652.8" y2="344.1"/>
					</g>
					<g>
						<path class="st0" d="M646.4,357L646.4,357h-46.5v-60.9h6.5"/>
						<line class="st0" x1="646.4" y1="357" x2="646.4" y2="350.6"/>
					</g>
				</g>
				<g>
					<path class="st0" d="M593.4,424.4h-46.5v-60.9h33.7l6.4,6.4l6.4,6.4L593.4,424.4L593.4,424.4z"/>
					<path class="st0" d="M593.4,376.3h-12.9v-12.9"/>
					<g>
						<path class="st0" d="M586.9,430.8L586.9,430.8h-46.5v-60.9h6.5"/>
						<line class="st0" x1="586.9" y1="430.8" x2="586.9" y2="424.4"/>
					</g>
					<g>
						<path class="st0" d="M580.5,437.3L580.5,437.3H534v-60.9h6.5"/>
						<line class="st0" x1="580.5" y1="437.3" x2="580.5" y2="430.8"/>
					</g>
				</g>
				<g>
					<path class="st0" d="M659.3,424.4h-46.5v-60.9h33.7l6.4,6.4l6.4,6.4L659.3,424.4L659.3,424.4z"/>
					<path class="st0" d="M659.3,376.3h-12.9v-12.9"/>
					<g>
						<path class="st0" d="M652.8,430.8L652.8,430.8h-46.5v-60.9h6.5"/>
						<line class="st0" x1="652.8" y1="430.8" x2="652.8" y2="424.4"/>
					</g>
					<g>
						<path class="st0" d="M646.4,437.3L646.4,437.3h-46.5v-60.9h6.5"/>
						<line class="st0" x1="646.4" y1="437.3" x2="646.4" y2="430.8"/>
					</g>
				</g>
			</g>
			<g>
				<g>
					<path class="st0" d="M527.4,504.6h-46.5v-60.9h33.7l6.4,6.4l6.4,6.4L527.4,504.6L527.4,504.6z"/>
					<path class="st0" d="M527.4,456.6h-12.9v-12.9"/>
					<g>
						<path class="st0" d="M521,511.1L521,511.1h-46.5v-60.9h6.5"/>
						<line class="st0" x1="521" y1="511.1" x2="521" y2="504.6"/>
					</g>
					<g>
						<path class="st0" d="M514.5,517.5L514.5,517.5H468v-60.9h6.5"/>
						<line class="st0" x1="514.5" y1="517.5" x2="514.5" y2="511.1"/>
					</g>
				</g>
			</g>
		</g>
		<g>
			<g>
				<g>
					<path class="st0" d="M791.4,344.1h-46.5v-60.9h33.7l6.4,6.4l6.4,6.4L791.4,344.1L791.4,344.1z"/>
					<path class="st0" d="M791.4,296.1h-12.9v-12.9"/>
					<g>
						<path class="st0" d="M784.9,350.6L784.9,350.6h-46.5v-60.9h6.5"/>
						<line class="st0" x1="784.9" y1="350.6" x2="784.9" y2="344.1"/>
					</g>
					<g>
						<path class="st0" d="M778.5,357L778.5,357H732v-60.9h6.5"/>
						<line class="st0" x1="778.5" y1="357" x2="778.5" y2="350.6"/>
					</g>
				</g>
				<g>
					<path class="st0" d="M725.5,344.1H679v-60.9h33.7l6.4,6.4l6.4,6.4V344.1L725.5,344.1z"/>
					<path class="st0" d="M725.5,296.1h-12.9v-12.9"/>
					<g>
						<path class="st0" d="M719,350.6L719,350.6h-46.5v-60.9h6.5"/>
						<line class="st0" x1="719" y1="350.6" x2="719" y2="344.1"/>
					</g>
					<g>
						<path class="st0" d="M712.6,357L712.6,357h-46.5v-60.9h6.5"/>
						<line class="st0" x1="712.6" y1="357" x2="712.6" y2="350.6"/>
					</g>
				</g>
			</g>
		</g>
	</g>
	<g>
		<g>
			<g>
				<g>
					<path class="st0" d="M527.1,665.1h-46.5v-60.9h33.7l6.4,6.4l6.4,6.4L527.1,665.1L527.1,665.1z"/>
					<path class="st0" d="M527.1,617.1h-12.9v-12.9"/>
					<g>
						<path class="st0" d="M520.7,671.6L520.7,671.6h-46.5v-60.9h6.5"/>
						<line class="st0" x1="520.7" y1="671.6" x2="520.7" y2="665.1"/>
					</g>
					<g>
						<path class="st0" d="M514.2,678L514.2,678h-46.5v-60.9h6.5"/>
						<line class="st0" x1="514.2" y1="678" x2="514.2" y2="671.6"/>
					</g>
				</g>
				<g>
					<path class="st0" d="M461.2,665.1h-46.5v-60.9h33.7l6.4,6.4l6.4,6.4L461.2,665.1L461.2,665.1z"/>
					<path class="st0" d="M461.2,617.1h-12.9v-12.9"/>
					<g>
						<path class="st0" d="M454.8,671.6L454.8,671.6h-46.5v-60.9h6.5"/>
						<line class="st0" x1="454.8" y1="671.6" x2="454.8" y2="665.1"/>
					</g>
					<g>
						<path class="st0" d="M448.3,678L448.3,678h-46.5v-60.9h6.5"/>
						<line class="st0" x1="448.3" y1="678" x2="448.3" y2="671.6"/>
					</g>
				</g>
				<g>
					<path class="st0" d="M527.1,745.4h-46.5v-60.9h33.7l6.4,6.4l6.4,6.4L527.1,745.4L527.1,745.4z"/>
					<path class="st0" d="M527.1,697.4h-12.9v-12.9"/>
					<g>
						<path class="st0" d="M520.7,751.8L520.7,751.8h-46.5v-60.9h6.5"/>
						<line class="st0" x1="520.7" y1="751.8" x2="520.7" y2="745.4"/>
					</g>
					<g>
						<path class="st0" d="M514.2,758.3L514.2,758.3h-46.5v-60.9h6.5"/>
						<line class="st0" x1="514.2" y1="758.3" x2="514.2" y2="751.8"/>
					</g>
				</g>
				<g>
					<path class="st0" d="M461.2,745.4h-46.5v-60.9h33.7l6.4,6.4l6.4,6.4L461.2,745.4L461.2,745.4z"/>
					<path class="st0" d="M461.2,697.4h-12.9v-12.9"/>
					<g>
						<path class="st0" d="M454.8,751.8L454.8,751.8h-46.5v-60.9h6.5"/>
						<line class="st0" x1="454.8" y1="751.8" x2="454.8" y2="745.4"/>
					</g>
					<g>
						<path class="st0" d="M448.3,758.3L448.3,758.3h-46.5v-60.9h6.5"/>
						<line class="st0" x1="448.3" y1="758.3" x2="448.3" y2="751.8"/>
					</g>
				</g>
			</g>
			<g>
				<g>
					<path class="st0" d="M526.8,825.7h-46.5v-60.9H514l6.4,6.4l6.4,6.4L526.8,825.7L526.8,825.7z"/>
					<path class="st0" d="M526.8,777.6h-12.9v-12.9"/>
					<g>
						<path class="st0" d="M520.3,832.1L520.3,832.1h-46.5v-60.9h6.5"/>
						<line class="st0" x1="520.3" y1="832.1" x2="520.3" y2="825.7"/>
					</g>
					<g>
						<path class="st0" d="M513.9,838.5L513.9,838.5h-46.5v-60.9h6.5"/>
						<line class="st0" x1="513.9" y1="838.5" x2="513.9" y2="832.1"/>
					</g>
				</g>
				<g>
					<path class="st0" d="M460.9,825.7h-46.5v-60.9h33.7l6.4,6.4l6.4,6.4L460.9,825.7L460.9,825.7z"/>
					<path class="st0" d="M460.9,777.6H448v-12.9"/>
					<g>
						<path class="st0" d="M454.4,832.1L454.4,832.1h-46.5v-60.9h6.5"/>
						<line class="st0" x1="454.4" y1="832.1" x2="454.4" y2="825.7"/>
					</g>
					<g>
						<path class="st0" d="M448,838.5L448,838.5h-46.5v-60.9h6.5"/>
						<line class="st0" x1="448" y1="838.5" x2="448" y2="832.1"/>
					</g>
				</g>
				<g>
					<path class="st0" d="M526.8,905.9h-46.5V845H514l6.4,6.4l6.4,6.4L526.8,905.9L526.8,905.9z"/>
					<path class="st0" d="M526.8,857.9h-12.9V845"/>
					<g>
						<path class="st0" d="M520.3,912.3L520.3,912.3h-46.5v-60.9h6.5"/>
						<line class="st0" x1="520.3" y1="912.3" x2="520.3" y2="905.9"/>
					</g>
					<g>
						<path class="st0" d="M513.9,918.8L513.9,918.8h-46.5v-60.9h6.5"/>
						<line class="st0" x1="513.9" y1="918.8" x2="513.9" y2="912.3"/>
					</g>
				</g>
				<g>
					<path class="st0" d="M460.9,905.9h-46.5V845h33.7l6.4,6.4l6.4,6.4L460.9,905.9L460.9,905.9z"/>
					<path class="st0" d="M460.9,857.9H448V845"/>
					<g>
						<path class="st0" d="M454.4,912.3L454.4,912.3h-46.5v-60.9h6.5"/>
						<line class="st0" x1="454.4" y1="912.3" x2="454.4" y2="905.9"/>
					</g>
					<g>
						<path class="st0" d="M448,918.8L448,918.8h-46.5v-60.9h6.5"/>
						<line class="st0" x1="448" y1="918.8" x2="448" y2="912.3"/>
					</g>
				</g>
			</g>
			<g>
				<g>
					<path class="st0" d="M593.1,825.7h-46.5v-60.9h33.7l6.4,6.4l6.4,6.4L593.1,825.7L593.1,825.7z"/>
					<path class="st0" d="M593.1,777.6h-12.9v-12.9"/>
					<g>
						<path class="st0" d="M586.7,832.1L586.7,832.1h-46.5v-60.9h6.5"/>
						<line class="st0" x1="586.7" y1="832.1" x2="586.7" y2="825.7"/>
					</g>
					<g>
						<path class="st0" d="M580.2,838.5L580.2,838.5h-46.5v-60.9h6.5"/>
						<line class="st0" x1="580.2" y1="838.5" x2="580.2" y2="832.1"/>
					</g>
				</g>
				<g>
					<path class="st0" d="M593.1,905.9h-46.5V845h33.7l6.4,6.4l6.4,6.4L593.1,905.9L593.1,905.9z"/>
					<path class="st0" d="M593.1,857.9h-12.9V845"/>
					<g>
						<path class="st0" d="M586.7,912.3L586.7,912.3h-46.5v-60.9h6.5"/>
						<line class="st0" x1="586.7" y1="912.3" x2="586.7" y2="905.9"/>
					</g>
					<g>
						<path class="st0" d="M580.2,918.8L580.2,918.8h-46.5v-60.9h6.5"/>
						<line class="st0" x1="580.2" y1="918.8" x2="580.2" y2="912.3"/>
					</g>
				</g>
				<g>
					<path class="st0" d="M659,905.9h-46.5V845h33.7l6.4,6.4l6.4,6.4L659,905.9L659,905.9z"/>
					<path class="st0" d="M659,857.9h-12.9V845"/>
					<g>
						<path class="st0" d="M652.6,912.3L652.6,912.3h-46.5v-60.9h6.5"/>
						<line class="st0" x1="652.6" y1="912.3" x2="652.6" y2="905.9"/>
					</g>
					<g>
						<path class="st0" d="M646.1,918.8L646.1,918.8h-46.5v-60.9h6.5"/>
						<line class="st0" x1="646.1" y1="918.8" x2="646.1" y2="912.3"/>
					</g>
				</g>
			</g>
		</g>
		<g>
			<g>
				<g>
					<path class="st0" d="M527.4,986.4h-46.5v-60.9h33.7l6.4,6.4l6.4,6.4L527.4,986.4L527.4,986.4z"/>
					<path class="st0" d="M527.4,938.3h-12.9v-12.9"/>
					<g>
						<path class="st0" d="M521,992.8L521,992.8h-46.5v-60.9h6.5"/>
						<line class="st0" x1="521" y1="992.8" x2="521" y2="986.4"/>
					</g>
					<g>
						<path class="st0" d="M514.5,999.2L514.5,999.2H468v-60.9h6.5"/>
						<line class="st0" x1="514.5" y1="999.2" x2="514.5" y2="992.8"/>
					</g>
				</g>
				<g>
					<path class="st0" d="M461.5,986.4H415v-60.9h33.7l6.4,6.4l6.4,6.4L461.5,986.4L461.5,986.4z"/>
					<path class="st0" d="M461.5,938.3h-12.9v-12.9"/>
					<g>
						<path class="st0" d="M455.1,992.8L455.1,992.8h-46.5v-60.9h6.5"/>
						<line class="st0" x1="455.1" y1="992.8" x2="455.1" y2="986.4"/>
					</g>
					<g>
						<path class="st0" d="M448.6,999.2L448.6,999.2h-46.5v-60.9h6.5"/>
						<line class="st0" x1="448.6" y1="999.2" x2="448.6" y2="992.8"/>
					</g>
				</g>
				<g>
					<path class="st0" d="M527.4,1066.6h-46.5v-60.9h33.7l6.4,6.4l6.4,6.4L527.4,1066.6L527.4,1066.6z"/>
					<path class="st0" d="M527.4,1018.6h-12.9v-12.9"/>
					<g>
						<path class="st0" d="M521,1073.1L521,1073.1h-46.5v-60.9h6.5"/>
						<line class="st0" x1="521" y1="1073.1" x2="521" y2="1066.6"/>
					</g>
					<g>
						<path class="st0" d="M514.5,1079.5L514.5,1079.5H468v-60.9h6.5"/>
						<line class="st0" x1="514.5" y1="1079.5" x2="514.5" y2="1073.1"/>
					</g>
				</g>
				<g>
					<path class="st0" d="M461.5,1066.6H415v-60.9h33.7l6.4,6.4l6.4,6.4L461.5,1066.6L461.5,1066.6z"/>
					<path class="st0" d="M461.5,1018.6h-12.9v-12.9"/>
					<g>
						<path class="st0" d="M455.1,1073.1L455.1,1073.1h-46.5v-60.9h6.5"/>
						<line class="st0" x1="455.1" y1="1073.1" x2="455.1" y2="1066.6"/>
					</g>
					<g>
						<path class="st0" d="M448.6,1079.5L448.6,1079.5h-46.5v-60.9h6.5"/>
						<line class="st0" x1="448.6" y1="1079.5" x2="448.6" y2="1073.1"/>
					</g>
				</g>
			</g>
			<g>
				<g>
					<path class="st0" d="M593.7,986.4h-46.5v-60.9h33.7l6.4,6.4l6.4,6.4L593.7,986.4L593.7,986.4z"/>
					<path class="st0" d="M593.7,938.3h-12.9v-12.9"/>
					<g>
						<path class="st0" d="M587.3,992.8L587.3,992.8h-46.5v-60.9h6.5"/>
						<line class="st0" x1="587.3" y1="992.8" x2="587.3" y2="986.4"/>
					</g>
					<g>
						<path class="st0" d="M580.8,999.2L580.8,999.2h-46.5v-60.9h6.5"/>
						<line class="st0" x1="580.8" y1="999.2" x2="580.8" y2="992.8"/>
					</g>
				</g>
				<g>
					<path class="st0" d="M593.7,1066.6h-46.5v-60.9h33.7l6.4,6.4l6.4,6.4L593.7,1066.6L593.7,1066.6z"/>
					<path class="st0" d="M593.7,1018.6h-12.9v-12.9"/>
					<g>
						<path class="st0" d="M587.3,1073.1L587.3,1073.1h-46.5v-60.9h6.5"/>
						<line class="st0" x1="587.3" y1="1073.1" x2="587.3" y2="1066.6"/>
					</g>
					<g>
						<path class="st0" d="M580.8,1079.5L580.8,1079.5h-46.5v-60.9h6.5"/>
						<line class="st0" x1="580.8" y1="1079.5" x2="580.8" y2="1073.1"/>
					</g>
				</g>
				<g>
					<path class="st0" d="M659.6,1066.6h-46.5v-60.9h33.7l6.4,6.4l6.4,6.4L659.6,1066.6L659.6,1066.6z"/>
					<path class="st0" d="M659.6,1018.6h-12.9v-12.9"/>
					<g>
						<path class="st0" d="M653.2,1073.1L653.2,1073.1h-46.5v-60.9h6.5"/>
						<line class="st0" x1="653.2" y1="1073.1" x2="653.2" y2="1066.6"/>
					</g>
					<g>
						<path class="st0" d="M646.7,1079.5L646.7,1079.5h-46.5v-60.9h6.5"/>
						<line class="st0" x1="646.7" y1="1079.5" x2="646.7" y2="1073.1"/>
					</g>
				</g>
			</g>
			<g>
				<g>
					<path class="st0" d="M527.1,1146.9h-46.5V1086h33.7l6.4,6.4l6.4,6.4L527.1,1146.9L527.1,1146.9z"/>
					<path class="st0" d="M527.1,1098.8h-12.9v-12.9"/>
					<g>
						<path class="st0" d="M520.7,1153.3L520.7,1153.3h-46.5v-60.9h6.5"/>
						<line class="st0" x1="520.7" y1="1153.3" x2="520.7" y2="1146.9"/>
					</g>
					<g>
						<path class="st0" d="M514.2,1159.7L514.2,1159.7h-46.5v-60.9h6.5"/>
						<line class="st0" x1="514.2" y1="1159.7" x2="514.2" y2="1153.3"/>
					</g>
				</g>
				<g>
					<path class="st0" d="M461.2,1146.9h-46.5V1086h33.7l6.4,6.4l6.4,6.4L461.2,1146.9L461.2,1146.9z"/>
					<path class="st0" d="M461.2,1098.8h-12.9v-12.9"/>
					<g>
						<path class="st0" d="M454.8,1153.3L454.8,1153.3h-46.5v-60.9h6.5"/>
						<line class="st0" x1="454.8" y1="1153.3" x2="454.8" y2="1146.9"/>
					</g>
					<g>
						<path class="st0" d="M448.3,1159.7L448.3,1159.7h-46.5v-60.9h6.5"/>
						<line class="st0" x1="448.3" y1="1159.7" x2="448.3" y2="1153.3"/>
					</g>
				</g>
				<g>
					<path class="st0" d="M527.1,1227.1h-46.5v-60.9h33.7l6.4,6.4l6.4,6.4L527.1,1227.1L527.1,1227.1z"/>
					<path class="st0" d="M527.1,1179.1h-12.9v-12.9"/>
					<g>
						<path class="st0" d="M520.7,1233.6L520.7,1233.6h-46.5v-60.9h6.5"/>
					</g>
					<g>
						<path class="st0" d="M514.2,1240L514.2,1240h-46.5v-60.9h6.5"/>
					</g>
				</g>
				<g>
					<path class="st0" d="M461.2,1227.1h-46.5v-60.9h33.7l6.4,6.4l6.4,6.4L461.2,1227.1L461.2,1227.1z"/>
					<path class="st0" d="M461.2,1179.1h-12.9v-12.9"/>
					<g>
						<path class="st0" d="M454.8,1233.6L454.8,1233.6h-46.5v-60.9h6.5"/>
					</g>
					<g>
						<path class="st0" d="M448.3,1240L448.3,1240h-46.5v-60.9h6.5"/>
					</g>
				</g>
			</g>
			<g>
				<g>
					<path class="st0" d="M593.4,1146.9h-46.5V1086h33.7l6.4,6.4l6.4,6.4L593.4,1146.9L593.4,1146.9z"/>
					<path class="st0" d="M593.4,1098.8h-12.9v-12.9"/>
					<g>
						<path class="st0" d="M587,1153.3L587,1153.3h-46.5v-60.9h6.5"/>
						<line class="st0" x1="587" y1="1153.3" x2="587" y2="1146.9"/>
					</g>
					<g>
						<path class="st0" d="M580.5,1159.7L580.5,1159.7H534v-60.9h6.5"/>
						<line class="st0" x1="580.5" y1="1159.7" x2="580.5" y2="1153.3"/>
					</g>
				</g>
				<g>
					<path class="st0" d="M659.3,1146.9h-46.5V1086h33.7l6.4,6.4l6.4,6.4L659.3,1146.9L659.3,1146.9z"/>
					<path class="st0" d="M659.3,1098.8h-12.9v-12.9"/>
					<g>
						<path class="st0" d="M652.9,1153.3L652.9,1153.3h-46.5v-60.9h6.5"/>
						<line class="st0" x1="652.9" y1="1153.3" x2="652.9" y2="1146.9"/>
					</g>
					<g>
						<path class="st0" d="M646.4,1159.7L646.4,1159.7h-46.5v-60.9h6.5"/>
						<line class="st0" x1="646.4" y1="1159.7" x2="646.4" y2="1153.3"/>
					</g>
				</g>
				<g>
					<path class="st0" d="M593.4,1227.1h-46.5v-60.9h33.7l6.4,6.4l6.4,6.4L593.4,1227.1L593.4,1227.1z"/>
					<path class="st0" d="M593.4,1179.1h-12.9v-12.9"/>
					<g>
						<path class="st0" d="M587,1233.6L587,1233.6h-46.5v-60.9h6.5"/>
					</g>
					<g>
						<path class="st0" d="M580.5,1240L580.5,1240H534v-60.9h6.5"/>
					</g>
				</g>
			</g>
		</g>
		<g>
			<g>
				<g>
					<path class="st0" d="M725.8,986.4h-46.5v-60.9H713l6.4,6.4l6.4,6.4V986.4L725.8,986.4z"/>
					<path class="st0" d="M725.8,938.3h-12.9v-12.9"/>
					<g>
						<path class="st0" d="M719.4,992.8L719.4,992.8h-46.5v-60.9h6.5"/>
						<line class="st0" x1="719.4" y1="992.8" x2="719.4" y2="986.4"/>
					</g>
					<g>
						<path class="st0" d="M712.9,999.2L712.9,999.2h-46.5v-60.9h6.5"/>
						<line class="st0" x1="712.9" y1="999.2" x2="712.9" y2="992.8"/>
					</g>
				</g>
				<g>
					<path class="st0" d="M791.7,986.4h-46.5v-60.9h33.7l6.4,6.4l6.4,6.4L791.7,986.4L791.7,986.4z"/>
					<path class="st0" d="M791.7,938.3h-12.9v-12.9"/>
					<g>
						<path class="st0" d="M785.3,992.8L785.3,992.8h-46.5v-60.9h6.5"/>
						<line class="st0" x1="785.3" y1="992.8" x2="785.3" y2="986.4"/>
					</g>
					<g>
						<path class="st0" d="M778.8,999.2L778.8,999.2h-46.5v-60.9h6.5"/>
						<line class="st0" x1="778.8" y1="999.2" x2="778.8" y2="992.8"/>
					</g>
				</g>
				<g>
					<path class="st0" d="M725.8,1066.6h-46.5v-60.9H713l6.4,6.4l6.4,6.4V1066.6L725.8,1066.6z"/>
					<path class="st0" d="M725.8,1018.6h-12.9v-12.9"/>
					<g>
						<path class="st0" d="M719.4,1073.1L719.4,1073.1h-46.5v-60.9h6.5"/>
						<line class="st0" x1="719.4" y1="1073.1" x2="719.4" y2="1066.6"/>
					</g>
					<g>
						<path class="st0" d="M712.9,1079.5L712.9,1079.5h-46.5v-60.9h6.5"/>
						<line class="st0" x1="712.9" y1="1079.5" x2="712.9" y2="1073.1"/>
					</g>
				</g>
				<g>
					<path class="st0" d="M791.7,1066.6h-46.5v-60.9h33.7l6.4,6.4l6.4,6.4L791.7,1066.6L791.7,1066.6z"/>
					<path class="st0" d="M791.7,1018.6h-12.9v-12.9"/>
					<g>
						<path class="st0" d="M785.3,1073.1L785.3,1073.1h-46.5v-60.9h6.5"/>
						<line class="st0" x1="785.3" y1="1073.1" x2="785.3" y2="1066.6"/>
					</g>
					<g>
						<path class="st0" d="M778.8,1079.5L778.8,1079.5h-46.5v-60.9h6.5"/>
						<line class="st0" x1="778.8" y1="1079.5" x2="778.8" y2="1073.1"/>
					</g>
				</g>
			</g>
		</g>
	</g>
</g>
<g>
	<path class="st0" d="M659.3,1227.1h-46.5v-60.9h33.7l6.4,6.4l6.4,6.4L659.3,1227.1L659.3,1227.1z"/>
	<path class="st0" d="M659.3,1179.1h-12.9v-12.9"/>
	<g>
		<path class="st0" d="M652.9,1233.6L652.9,1233.6h-46.5v-60.9h6.5"/>
	</g>
	<g>
		<path class="st0" d="M646.4,1240L646.4,1240h-46.5v-60.9h6.5"/>
	</g>
</g>
<g>
	<path class="st0" d="M725.2,1227.1h-46.5v-60.9h33.7l6.4,6.4l6.4,6.4V1227.1L725.2,1227.1z"/>
	<path class="st0" d="M725.2,1179.1h-12.9v-12.9"/>
	<g>
		<path class="st0" d="M718.7,1233.6L718.7,1233.6h-46.5v-60.9h6.5"/>
	</g>
	<g>
		<path class="st0" d="M712.3,1240L712.3,1240h-46.5v-60.9h6.5"/>
	</g>
</g>
<g>
	<path class="st0" d="M791.5,1227.1H745v-60.9h33.7l6.4,6.4l6.4,6.4L791.5,1227.1L791.5,1227.1z"/>
	<path class="st0" d="M791.5,1179.1h-12.9v-12.9"/>
	<g>
		<path class="st0" d="M785.1,1233.6L785.1,1233.6h-46.5v-60.9h6.5"/>
	</g>
	<g>
		<path class="st0" d="M778.6,1240L778.6,1240h-46.5v-60.9h6.5"/>
	</g>
</g>
<g>
	<path class="st0" d="M857.4,1227.1h-46.5v-60.9h33.7l6.4,6.4l6.4,6.4V1227.1L857.4,1227.1z"/>
	<path class="st0" d="M857.4,1179.1h-12.9v-12.9"/>
	<g>
		<path class="st0" d="M851,1233.6L851,1233.6h-46.5v-60.9h6.5"/>
	</g>
	<g>
		<path class="st0" d="M844.5,1240L844.5,1240H798v-60.9h6.5"/>
	</g>
</g>
<g>
	<path class="st0" d="M923.3,1227.1h-46.5v-60.9h33.7l6.4,6.4l6.4,6.4V1227.1L923.3,1227.1z"/>
	<path class="st0" d="M923.3,1179.1h-12.9v-12.9"/>
	<g>
		<path class="st0" d="M916.9,1233.6L916.9,1233.6h-46.5v-60.9h6.5"/>
	</g>
	<g>
		<path class="st0" d="M910.4,1240L910.4,1240h-46.5v-60.9h6.5"/>
	</g>
</g>
</svg>
