<?xml version="1.0" encoding="utf-8"?>
<!-- Generator: Adobe Illustrator 24.0.2, SVG Export Plug-In . SVG Version: 6.00 Build 0)  -->
<svg version="1.1" id="Layer_1" xmlns="http://www.w3.org/2000/svg" xmlns:xlink="http://www.w3.org/1999/xlink" x="0px" y="0px"
	 viewBox="0 0 100 100" style="enable-background:new 0 0 100 100;" xml:space="preserve">
<style type="text/css">
	.st0{fill:#000111;}
</style>
<path class="st0" d="M81.4,33.9c3.2-2.3,5.9-5.1,8.1-8.4v0c-2.9,1.3-6.1,2.1-9.4,2.6c3.4-2,5.9-5.1,7.1-8.9
	c-3.1,1.9-6.6,3.2-10.3,3.9c-3-3.2-7.2-5.1-11.9-5.1c-9,0-16.2,7.3-16.2,16.2c0,1.3,0.1,2.5,0.4,3.7C35.9,37.2,24,30.7,15.9,20.9
	c-1.4,2.4-2.2,5.2-2.2,8.2c0,5.6,2.9,10.6,7.2,13.4c-2.6,0-5.2-0.8-7.3-2v0.2c0,7.9,5.6,14.4,13,15.9c-1.3,0.4-2.8,0.5-4.3,0.5
	c-1,0-2.1-0.1-3.1-0.3c2.1,6.4,8.1,11.1,15.2,11.3C28.9,72.4,21.9,75,14.3,75c-1.3,0-2.6-0.1-3.9-0.2c7.2,4.6,15.7,7.3,24.9,7.3
	C64,82,82.6,58.2,81.4,33.9z"/>
</svg>
