<?xml version="1.0" encoding="utf-8"?>
<!-- Generator: Adobe Illustrator 24.0.2, SVG Export Plug-In . SVG Version: 6.00 Build 0)  -->
<svg version="1.1" id="Layer_1" xmlns="http://www.w3.org/2000/svg" xmlns:xlink="http://www.w3.org/1999/xlink" x="0px" y="0px"
	 viewBox="0 0 100 100" style="enable-background:new 0 0 100 100;" xml:space="preserve">
<style type="text/css">
	.st0{fill:#111111;}
</style>
<path class="st0" d="M32.5,45.6h35v8.7h-35V45.6z M45.6,63.1H28.1C20.9,63.1,15,57.2,15,50s5.9-13.1,13.1-13.1h17.5v-8.7H28.1
	C16.1,28.1,6.3,37.9,6.3,50s9.8,21.9,21.9,21.9h17.5V63.1z M71.9,28.1H54.4v8.7h17.5C79.1,36.9,85,42.8,85,50s-5.9,13.1-13.1,13.1
	H54.4v8.7h17.5c12.1,0,21.9-9.8,21.9-21.9S83.9,28.1,71.9,28.1z"/>
</svg>
