<?xml version="1.0" encoding="utf-8"?>
<!-- Generator: Adobe Illustrator 24.0.2, SVG Export Plug-In . SVG Version: 6.00 Build 0)  -->
<svg version="1.1" id="Layer_1" xmlns="http://www.w3.org/2000/svg" xmlns:xlink="http://www.w3.org/1999/xlink" x="0px" y="0px"
	 viewBox="0 0 100 100" style="enable-background:new 0 0 100 100;" xml:space="preserve">
<style type="text/css">
	.st0{fill:#000111;}
</style>
<path class="st0" d="M68.9,11.4l-9.8,0c-11,0-18.1,7.5-18.1,19v8.8h-9.8c-0.8,0-1.5,0.7-1.5,1.6v12.7c0,0.9,0.7,1.6,1.5,1.6H41v32
	c0,0.9,0.7,1.6,1.5,1.6h12.8c0.8,0,1.5-0.7,1.5-1.6V55h11.5c0.8,0,1.5-0.7,1.5-1.6l0-12.7c0-0.4-0.2-0.8-0.5-1.1
	c-0.3-0.3-0.7-0.5-1.1-0.5H56.9v-7.4c0-3.6,0.8-5.4,5.4-5.4l6.6,0c0.8,0,1.5-0.7,1.5-1.6V13C70.4,12.1,69.7,11.4,68.9,11.4z"/>
</svg>
