<?xml version="1.0" encoding="utf-8"?>
<!-- Generator: Adobe Illustrator 24.0.2, SVG Export Plug-In . SVG Version: 6.00 Build 0)  -->
<svg version="1.1" id="Layer_1" xmlns="http://www.w3.org/2000/svg" xmlns:xlink="http://www.w3.org/1999/xlink" x="0px" y="0px"
	 viewBox="0 0 481 100" style="enable-background:new 0 0 481 100;" xml:space="preserve">
<style type="text/css">
	.st0{fill:#FFFFFF;}
</style>
<g>
	<polygon class="st0" points="100.1,69.8 88.4,69.8 88.4,47.9 77.3,63.2 66.1,47.9 66.1,69.8 54.5,69.8 54.5,28 65.2,28 77.3,44.3 
		89.3,28 100.1,28 100.1,69.8 	"/>
	<polygon class="st0" points="313.4,69.8 301.7,69.8 301.7,47.9 290.6,63.2 279.4,47.9 279.4,69.8 267.8,69.8 267.8,28 278.5,28 
		290.6,44.3 302.6,28 313.4,28 313.4,69.8 	"/>
	<path class="st0" d="M213.3,28v20.9c0,12.6,9.5,21.5,22.8,21.5c13.2,0,22.8-8.9,22.8-21.5V28h-11.6v20.7c0,6.7-4.7,10.9-11.2,10.9
		c-6.4,0-11.2-4.2-11.2-10.9V28H213.3L213.3,28z M172.2,46.8v-8.6h18c2.3,0,4.1,1.8,4.1,4.4c0,2.4-1.7,4.3-4.1,4.3H172.2L172.2,46.8
		z M193.9,69.8h13.4l-8.5-14.7c4.5-2.4,7.3-7.1,7.3-12.6c0-8.2-6.3-14.5-14.9-14.5h-30.7v41.7h11.6V56.9H187L193.9,69.8L193.9,69.8z
		 M120.7,47.4v-9.2h17.7c2.5,0,4.4,2,4.4,4.7c0,2.6-1.8,4.6-4.4,4.6H120.7L120.7,47.4z M109,69.8h11.6V57.5h18.7
		c8.8,0,15.2-6.4,15.2-14.7c0-8.4-6.4-14.8-15.2-14.8H109V69.8L109,69.8z M0,28v20.9c0,12.6,9.5,21.5,22.8,21.5
		c13.2,0,22.8-8.9,22.8-21.5V28H33.9v20.7c0,6.7-4.7,10.9-11.2,10.9c-6.4,0-11.2-4.2-11.2-10.9V28H0L0,28z"/>
	<path class="st0" d="M324.7,69.8h2.2v-7.3h-2.2V69.8L324.7,69.8z M324.6,60.4c0,0.7,0.5,1.2,1.2,1.2s1.2-0.5,1.2-1.2
		c0-0.7-0.5-1.2-1.2-1.2S324.6,59.7,324.6,60.4L324.6,60.4z M328.7,69.8h2.2v-4.3c0-0.8,0.6-1.4,1.4-1.4c0.9,0,1.5,0.6,1.5,1.4v4.2
		h2.2v-4.5c0-1.8-1.2-3-2.9-3c-1,0-1.8,0.4-2.3,1.1l-0.3-0.9h-1.8V69.8L328.7,69.8z M341.7,69.8h2.4v-3h2.6c2,0,3.5-1.5,3.5-3.4
		c0-1.9-1.5-3.4-3.5-3.4h-5V69.8L341.7,69.8z M344,64.6V62h2.3c0.7,0,1.3,0.6,1.3,1.3s-0.6,1.3-1.3,1.3H344L344,64.6z M351.2,69.8
		h2.2v-4.1c0-1,1-1.5,2.4-1.3v-2c-1-0.2-1.9,0.2-2.4,1l-0.3-0.9h-1.8V69.8L351.2,69.8z M362.8,69.8h1.8v-7.3h-1.8l-0.3,1.1
		c-0.6-0.7-1.4-1.2-2.5-1.2c-1.9,0-3.3,1.6-3.3,3.8c0,2.2,1.4,3.8,3.3,3.8c1,0,1.9-0.4,2.5-1.2L362.8,69.8L362.8,69.8z M359,66.1
		c0-1.1,0.7-1.9,1.7-1.9c1,0,1.7,0.8,1.8,1.9v0.1c0,1.1-0.7,1.9-1.8,1.9C359.7,68,359,67.2,359,66.1L359,66.1L359,66.1z M366.5,70.5
		c0.4,1.4,1.9,2.2,3.6,2.2c2.3,0,3.9-1.4,3.9-3.6v-6.7h-1.8l-0.3,1c-0.6-0.7-1.5-1.2-2.5-1.2c-1.9,0-3.3,1.5-3.3,3.7
		c0,2.1,1.4,3.7,3.3,3.7c1,0,1.9-0.4,2.4-1.1v0.8c0,1.1-0.6,1.7-1.7,1.7c-0.8,0-1.3-0.4-1.5-0.8L366.5,70.5L366.5,70.5z M368.3,65.9
		c0-1,0.7-1.8,1.8-1.8c1,0,1.8,0.8,1.8,1.8c0,1-0.7,1.8-1.8,1.8C369.1,67.7,368.3,67,368.3,65.9L368.3,65.9z M379.4,69.9
		c2.1,0,3.6-1.4,3.6-3.4v-4h-2.2v4.2c0,0.9-0.6,1.4-1.5,1.4c-0.9,0-1.5-0.6-1.5-1.4v-4.2h-2.2v4C375.7,68.5,377.3,69.9,379.4,69.9
		L379.4,69.9z M384.4,66.1c0,2.2,1.6,3.8,3.9,3.8c1.7,0,2.9-0.9,3.4-2l-2-0.5c-0.3,0.5-0.7,0.8-1.4,0.8c-0.8,0-1.5-0.5-1.7-1.4h5.6
		c0.3-2.5-1.4-4.5-3.8-4.5C386,62.3,384.4,63.9,384.4,66.1L384.4,66.1z M386.6,65.2c0.2-0.7,0.9-1.2,1.7-1.2c0.8,0,1.4,0.5,1.6,1.2
		H386.6L386.6,65.2z"/>
	<path class="st0" d="M323.9,53.8h2.4l0.7-2h4l0.7,2h2.6l-3.8-9.8h-2.8L323.9,53.8L323.9,53.8z M327.8,49.7l1.2-3.3l1.2,3.3H327.8
		L327.8,49.7z M335.2,53.8h2.2v-4.1c0-1,1-1.5,2.4-1.3v-2c-1-0.2-1.9,0.2-2.4,1l-0.3-0.9h-1.8V53.8L335.2,53.8z M340.6,50.1
		c0,2.2,1.6,3.8,3.9,3.8c1.6,0,3.1-0.8,3.5-2.4l-2.1-0.4c-0.2,0.6-0.7,1-1.4,1c-1,0-1.7-0.8-1.7-1.9c0-1.1,0.7-1.9,1.7-1.9
		c0.7,0,1.2,0.4,1.4,1l2.1-0.5c-0.4-1.6-1.9-2.4-3.5-2.4C342.2,46.3,340.6,47.9,340.6,50.1L340.6,50.1z M349.2,53.8h2.2v-4.2
		c0-0.8,0.6-1.4,1.4-1.4c0.9,0,1.5,0.6,1.5,1.4v4.2h2.2v-4.5c0-1.8-1.2-3-2.9-3c-0.9,0-1.7,0.4-2.2,1v-4h-2.2V53.8L349.2,53.8z
		 M358,53.8h2.2v-7.3H358V53.8L358,53.8z M357.9,44.4c0,0.7,0.5,1.2,1.2,1.2c0.7,0,1.2-0.5,1.2-1.2c0-0.7-0.5-1.2-1.2-1.2
		C358.4,43.2,357.9,43.7,357.9,44.4L357.9,44.4z M361.3,48.3h1.2v2.7c0,2,0.9,3.2,4,2.8V52c-1.5,0.2-1.8-0.2-1.8-1v-2.7h1.8v-1.9
		h-1.8V44h-2.2v2.5h-1.2V48.3L361.3,48.3z M367.4,50.1c0,2.2,1.6,3.8,3.9,3.8c1.7,0,2.9-0.9,3.4-2l-2-0.5c-0.3,0.5-0.7,0.8-1.4,0.8
		c-0.8,0-1.5-0.5-1.7-1.4h5.6c0.3-2.5-1.4-4.5-3.8-4.5C369,46.3,367.4,47.9,367.4,50.1L367.4,50.1z M369.7,49.3
		c0.2-0.7,0.9-1.2,1.7-1.2c0.8,0,1.4,0.5,1.6,1.2H369.7L369.7,49.3z M376.2,50.1c0,2.2,1.6,3.8,3.9,3.8c1.6,0,3.1-0.8,3.5-2.4
		l-2.1-0.4c-0.2,0.6-0.7,1-1.4,1c-1,0-1.7-0.8-1.7-1.9c0-1.1,0.7-1.9,1.7-1.9c0.7,0,1.2,0.4,1.4,1l2.1-0.5c-0.4-1.6-1.9-2.4-3.5-2.4
		C377.8,46.3,376.2,47.9,376.2,50.1L376.2,50.1z M384.4,48.3h1.2v2.7c0,2,0.9,3.2,4,2.8V52c-1.5,0.2-1.8-0.2-1.8-1v-2.7h1.8v-1.9
		h-1.8V44h-2.2v2.5h-1.2V48.3L384.4,48.3z M394.5,53.9c2.1,0,3.6-1.4,3.6-3.4v-4H396v4.2c0,0.9-0.6,1.4-1.5,1.4
		c-0.9,0-1.5-0.6-1.5-1.4v-4.2h-2.2v4C390.9,52.5,392.4,53.9,394.5,53.9L394.5,53.9z M399.8,53.8h2.2v-4.1c0-1,1-1.5,2.4-1.3v-2
		c-1-0.2-1.9,0.2-2.4,1l-0.3-0.9h-1.8V53.8L399.8,53.8z M405.1,50.1c0,2.2,1.6,3.8,3.9,3.8c1.7,0,2.9-0.9,3.4-2l-2-0.5
		c-0.3,0.5-0.7,0.8-1.4,0.8c-0.8,0-1.5-0.5-1.7-1.4h5.6c0.3-2.5-1.4-4.5-3.8-4.5C406.7,46.3,405.1,47.9,405.1,50.1L405.1,50.1z
		 M407.4,49.3c0.2-0.7,0.9-1.2,1.7-1.2c0.8,0,1.4,0.5,1.6,1.2H407.4L407.4,49.3z M418,46.6c0,0.7,0.3,1.3,0.8,1.8
		c-1.1,0.6-1.6,1.5-1.6,2.6c0,1.5,1.3,2.9,3.7,2.9c1.4,0,2.6-0.4,3.5-1.1l1.4,1.1l1.3-1.7l-1.3-1c0.4-0.8,0.7-1.8,0.7-2.9H424
		c0,0.6-0.1,1.1-0.2,1.5l-3-2.3c-0.3-0.3-0.5-0.5-0.5-0.9c0-0.4,0.3-0.8,1.1-0.8c0.6,0,1.1,0.2,1.6,0.8l1.9-1.1
		c-0.5-0.7-1.4-1.7-3.3-1.7C419.4,43.8,418,44.9,418,46.6L418,46.6z M421,51.9c-1,0-1.5-0.5-1.5-1.2c0-0.5,0.3-0.9,0.6-1.1l2.5,1.9
		C422.1,51.8,421.5,51.9,421,51.9L421,51.9L421,51.9z M431.3,53.8h4.1c2.9,0,5-2.1,5-4.9c0-2.8-2.1-4.9-5-4.9h-4.1V53.8L431.3,53.8z
		 M433.7,51.7V46h1.6c1.6,0,2.7,1.2,2.7,2.8c0,1.6-1.1,2.8-2.7,2.8H433.7L433.7,51.7z M441.5,50.1c0,2.2,1.6,3.8,3.9,3.8
		c1.7,0,2.9-0.9,3.4-2l-2-0.5c-0.3,0.5-0.7,0.8-1.4,0.8c-0.8,0-1.5-0.5-1.7-1.4h5.6c0.3-2.5-1.4-4.5-3.8-4.5
		C443.1,46.3,441.5,47.9,441.5,50.1L441.5,50.1z M443.7,49.3c0.2-0.7,0.9-1.2,1.7-1.2c0.8,0,1.4,0.5,1.6,1.2H443.7L443.7,49.3z
		 M450.2,51.9c0.1,1.2,1.2,2,3.3,2c2.2,0,3.5-1.1,3.5-2.3c0-3-4.6-1.9-4.6-3.1c0-0.4,0.4-0.5,1.1-0.5c0.8,0,1.3,0.2,1.3,0.8l2.1-0.5
		c-0.1-1-1.2-2-3.3-2c-2.1,0-3.3,1.1-3.3,2.3c0,3,4.6,2,4.6,3.1c0,0.4-0.5,0.5-1.3,0.5c-0.8,0-1.3-0.2-1.3-0.8L450.2,51.9
		L450.2,51.9z M458.4,53.8h2.2v-7.3h-2.2V53.8L458.4,53.8z M458.2,44.4c0,0.7,0.5,1.2,1.2,1.2c0.7,0,1.2-0.5,1.2-1.2
		c0-0.7-0.5-1.2-1.2-1.2C458.8,43.2,458.2,43.7,458.2,44.4L458.2,44.4z M462.2,54.6c0.4,1.4,1.9,2.2,3.6,2.2c2.3,0,3.9-1.4,3.9-3.6
		v-6.7h-1.8l-0.3,1c-0.6-0.7-1.5-1.2-2.5-1.2c-1.9,0-3.3,1.5-3.3,3.7c0,2.1,1.4,3.7,3.3,3.7c1,0,1.9-0.4,2.4-1.1v0.8
		c0,1.1-0.6,1.7-1.7,1.7c-0.8,0-1.3-0.4-1.5-0.8L462.2,54.6L462.2,54.6z M464,50c0-1,0.7-1.8,1.8-1.8c1,0,1.8,0.8,1.8,1.8
		c0,1-0.7,1.8-1.8,1.8C464.8,51.8,464,51,464,50L464,50z M471.4,53.8h2.2v-4.3c0-0.8,0.6-1.4,1.4-1.4c0.9,0,1.5,0.6,1.5,1.4v4.2h2.2
		v-4.5c0-1.8-1.2-3-2.9-3c-1,0-1.8,0.4-2.3,1.1l-0.3-0.9h-1.8V53.8L471.4,53.8z"/>
	<path class="st0" d="M323.9,37.8h2.4l0.7-2h4l0.7,2h2.6l-3.8-9.8h-2.8L323.9,37.8L323.9,37.8z M327.8,33.8l1.2-3.3l1.2,3.3H327.8
		L327.8,33.8z M334.8,34.2c0,2.2,1.6,3.8,3.9,3.8c1.6,0,3.1-0.8,3.5-2.4l-2.1-0.4c-0.2,0.6-0.7,1-1.4,1c-1,0-1.7-0.8-1.7-1.9
		c0-1.1,0.7-1.9,1.7-1.9c0.7,0,1.2,0.4,1.4,1l2.1-0.5c-0.4-1.6-1.9-2.4-3.5-2.4C336.5,30.4,334.8,32,334.8,34.2L334.8,34.2z
		 M349.3,37.8h1.8v-7.3h-1.8l-0.3,1.1c-0.6-0.7-1.4-1.2-2.5-1.2c-1.9,0-3.3,1.6-3.3,3.8c0,2.2,1.4,3.8,3.3,3.8c1,0,1.9-0.4,2.5-1.2
		L349.3,37.8L349.3,37.8z M345.5,34.2c0-1.1,0.7-1.9,1.7-1.9c1,0,1.7,0.8,1.8,1.9v0.1c0,1.1-0.7,1.9-1.8,1.9
		C346.2,36.1,345.5,35.3,345.5,34.2L345.5,34.2L345.5,34.2z M358.7,37.8h1.8V27.4h-2.2v4.1c-0.6-0.7-1.4-1.2-2.4-1.2
		c-1.9,0-3.3,1.6-3.3,3.8c0,2.2,1.4,3.8,3.3,3.8c1,0,1.9-0.4,2.5-1.2L358.7,37.8L358.7,37.8z M354.8,34.2c0-1.1,0.7-1.9,1.7-1.9
		c1,0,1.8,0.8,1.8,1.9c0,1.1-0.7,1.9-1.8,1.9C355.6,36.1,354.8,35.3,354.8,34.2L354.8,34.2L354.8,34.2z M362,34.2
		c0,2.2,1.6,3.8,3.9,3.8c1.7,0,2.9-0.9,3.4-2l-2-0.5c-0.3,0.5-0.7,0.8-1.4,0.8c-0.8,0-1.5-0.5-1.7-1.4h5.6c0.3-2.5-1.4-4.5-3.8-4.5
		C363.6,30.4,362,32,362,34.2L362,34.2z M364.2,33.3c0.2-0.7,0.9-1.2,1.7-1.2c0.8,0,1.4,0.5,1.6,1.2H364.2L364.2,33.3z M371.1,37.8
		h2.2v-4.4c0-0.8,0.5-1.2,1.2-1.2c0.7,0,1.2,0.4,1.2,1.3v4.4h2.2v-4.4c0-0.8,0.5-1.3,1.2-1.3c0.7,0,1.2,0.4,1.2,1.3v4.4h2.2v-4.6
		c0-1.8-1.2-2.9-2.8-2.9c-1,0-1.8,0.4-2.2,1.1c-0.5-0.7-1.2-1.1-2.1-1.1c-0.8,0-1.6,0.4-2,1l-0.3-0.8h-1.8V37.8L371.1,37.8z
		 M385.3,40.6h2.2l3.9-10.1h-2.2l-1.9,5.2l-1.9-5.2H383l3.1,8.1L385.3,40.6L385.3,40.6z M396,34.2c0,2.2,1.6,3.8,3.9,3.8
		c2.3,0,3.9-1.6,3.9-3.8c0-2.2-1.6-3.8-3.9-3.8C397.7,30.4,396,32,396,34.2L396,34.2z M398.3,34.2c0-1.1,0.7-1.9,1.7-1.9
		s1.7,0.8,1.7,1.9c0,1.1-0.7,1.9-1.7,1.9S398.3,35.3,398.3,34.2L398.3,34.2z M406,37.8h2.2v-5.5h1.8v-1.9h-1.8v-0.3
		c0-0.9,0.3-1.3,1.8-1v-1.8c-3.1-0.4-4,0.8-4,2.8v0.4h-1.3v1.9h1.3V37.8L406,37.8z M414.4,37.8h2.4l0.7-2h4l0.7,2h2.6L421,28h-2.8
		L414.4,37.8L414.4,37.8z M418.3,33.8l1.2-3.3l1.2,3.3H418.3L418.3,33.8z M425.8,37.8h2.2v-4.1c0-1,1-1.5,2.4-1.3v-2
		c-1-0.2-1.9,0.2-2.4,1l-0.3-0.9h-1.8V37.8L425.8,37.8z M431.4,32.4h1.2v2.7c0,2,0.9,3.2,4,2.8v-1.8c-1.5,0.2-1.8-0.2-1.8-1v-2.7
		h1.8v-1.9h-1.8V28h-2.2v2.5h-1.2V32.4L431.4,32.4z M437.9,36c0.1,1.2,1.2,2,3.3,2c2.2,0,3.5-1.1,3.5-2.3c0-3-4.6-1.9-4.6-3.1
		c0-0.4,0.4-0.5,1.1-0.5c0.8,0,1.3,0.2,1.3,0.8l2.1-0.5c-0.1-1-1.2-2-3.3-2c-2.1,0-3.3,1.1-3.3,2.3c0,3,4.6,2,4.6,3.1
		c0,0.4-0.5,0.5-1.3,0.5c-0.8,0-1.3-0.2-1.3-0.8L437.9,36L437.9,36z"/>
</g>
</svg>
