<?xml version="1.0" encoding="utf-8"?>
<!-- Generator: Adobe Illustrator 24.0.2, SVG Export Plug-In . SVG Version: 6.00 Build 0)  -->
<svg version="1.1" id="Layer_1" xmlns="http://www.w3.org/2000/svg" xmlns:xlink="http://www.w3.org/1999/xlink" x="0px" y="0px"
	 viewBox="0 0 420 100" style="enable-background:new 0 0 420 100;" xml:space="preserve">
<style type="text/css">
	.st0{fill:#FFFFFF;}
</style>
<g>
	<g>
		<path class="st0" d="M26.3,55.5l-14.7,0l0,14.4l14.7,0c4.8,0,7.4-2.4,7.4-7.2C33.7,58.1,31.1,55.5,26.3,55.5 M24.9,33l-13.3,0
			l0,13.7l13.3,0c4.6,0,7.2-2.2,7.2-6.8C32,35.3,29.5,33,24.9,33 M41.9,38.5c0,5.6-1.8,9.3-5.9,11.7v0.3c5.1,1.8,7.9,6.4,7.9,13.5
			c0,9.8-7.3,15.2-17.5,15.2H4.5c-2.1,0-2.7-0.7-2.7-2.6l0-49.8c0-2,0.7-2.6,2.7-2.6L26,24C36.1,24,41.9,29.2,41.9,38.5"/>
		<path class="st0" d="M56.4,79h-4.2c-1.8,0-2.4-0.6-2.4-2.4l0-52.7c0-1.8,0.5-2.4,2.4-2.4l4.2,0c1.8,0,2.4,0.6,2.4,2.4l0,52.7
			C58.8,78.4,58.3,79,56.4,79"/>
		<path class="st0" d="M100,41.2v31.9c0,2.4-0.5,3.4-3,4.3c-3.1,1.2-7.8,2.7-15.2,2.7c-11.1,0-16.3-5.9-16.3-15.6V41.2
			c0-1.8,0.6-2.3,2.4-2.3h4.2c1.8,0,2.3,0.5,2.3,2.3l0,23.1c0,5.2,2.8,7.7,8.5,7.7c3,0,5.1-0.3,7.2-1c0.7-0.2,0.9-0.7,0.9-1.3V41.2
			c0-1.8,0.6-2.3,2.4-2.3h4.2C99.4,38.8,100,39.4,100,41.2"/>
		<path class="st0" d="M123.8,45.3c-5.9,0-9,2.9-9,7.9v1.7l17.9,0v-1.7C132.7,48.2,129.7,45.3,123.8,45.3 M123.8,37.7
			c12.4,0,17.9,7.2,17.9,16.1v4.8c0,2.1-0.8,3.4-3.5,3.4l-23.4,0v2.9c0,5.1,3.2,7.8,8.9,7.8c4.6,0,7.5-1.5,9.2-4.1
			c1.2-1.7,2.1-2,4-1l2.7,1.5c1.8,0.9,2.1,2.2,1,3.9c-2.9,4.5-8.1,7.4-16.8,7.4c-12.7,0-17.9-7.1-17.9-16.6v-9.2
			C105.7,43.7,112,37.7,123.8,37.7"/>
		<path class="st0" d="M191.3,51.5v10.4c0,10.5-7.9,18.4-22.1,18.4c-14.2,0-22.2-7.8-22.2-20.2V43c0-12.4,7.9-20.1,22.2-20.1
			c11.4,0,18.2,4.6,21.1,13c0.7,1.9,0.2,2.7-1.6,3.4l-4.2,1.5c-1.8,0.7-2.6,0.3-3.4-1.6c-1.7-4.8-5.4-7.2-11.9-7.2
			c-8.1,0-12.4,3.9-12.4,11.1v17.2c0,7.3,4.5,11.1,12.4,11.1c7.9,0,12.6-3.9,12.6-9.2v-4l-11.7,0c-2,0-2.6-0.7-2.6-2.7v-3.7
			c0-2.1,0.7-2.6,2.6-2.6l18.7,0C190.6,48.9,191.3,49.5,191.3,51.5"/>
		<path class="st0" d="M206.4,24v14.8c0.7-0.4,4.8-1.1,9.3-1.1c11.1,0,16.2,5.8,16.2,15.6v23.3c0,1.8-0.7,2.4-2.4,2.4h-4.2
			c-1.8,0-2.4-0.6-2.4-2.4V53.5c0-5-2.9-7.6-8.5-7.6c-3.8,0-7.3,0.8-8,1.2v29.5c0,1.8-0.5,2.4-2.3,2.4l-4.2,0
			c-1.8,0-2.4-0.6-2.4-2.4V24c0-1.8,0.7-2.4,2.4-2.4h4.2C205.9,21.6,206.4,22.2,206.4,24"/>
		<path class="st0" d="M255.5,45.9c-5.6,0-8.9,2.6-8.9,7.4v11.5c0,4.7,3.2,7.4,8.9,7.4c5.8,0,8.9-2.7,8.9-7.4V53.3
			C264.3,48.5,261.1,45.9,255.5,45.9 M255.5,37.7c11.6,0,17.9,5.9,17.9,15.5v11.5c0,9.7-6.3,15.5-17.9,15.5
			c-11.5,0-17.9-5.9-17.9-15.5V53.3C237.6,43.6,244,37.7,255.5,37.7"/>
		<path class="st0" d="M294.4,37.7c9,0,14.1,3.3,16.6,8.3c1,1.8,0.4,2.7-1.2,3.5l-3.5,1.4c-1.7,0.8-2.3,0.5-3.3-1.1
			c-1.3-2.3-3.4-4-8.4-4c-5.1,0-7.3,1.4-7.3,4.2c0,3.7,3.1,4.2,9.1,4.8c9.2,1,15.8,3,15.8,12.5c0,7.6-5.7,13-16.8,13
			c-9.2,0-15-3.4-17.4-9.4c-0.6-1.6-0.2-2.6,1.5-3.3l3.5-1.1c1.5-0.5,2.4-0.3,3.2,1.5c1.2,3,4,4.2,8.8,4.2c5.5,0,8.3-1.5,8.3-4.6
			c0-3.7-3-4.3-9.3-5c-7.6-0.8-15.7-2.4-15.7-12.5C278.4,42.9,283.7,37.7,294.4,37.7"/>
		<path class="st0" d="M331.9,31.9v7l8.9,0c1.8,0,2.4,0.5,2.4,2.3v3.6c0,1.8-0.7,2.4-2.4,2.4l-8.9,0v15.5c0,7.6,2.3,8.9,8.8,8.9
			c1.8,0,2.5,0.5,2.5,2.4v3.6c0,1.9-0.7,2.4-2.5,2.5c-12.8,0.4-17.8-3.7-17.8-17.1V47.2l-5.3,0c-1.8,0-2.3-0.7-2.3-2.4v-3.6
			c0-1.8,0.5-2.3,2.3-2.3l5.3,0v-7c0-1.8,0.6-2.3,2.4-2.3l4.2,0C331.3,29.5,331.9,30.1,331.9,31.9"/>
		<path class="st0" d="M342.9,22.4c-2.1,0-3.9,1.8-3.9,3.9s1.8,3.9,3.9,3.9c2.1,0,3.9-1.8,3.9-3.9S345,22.4,342.9,22.4 M342.9,31
			c-2.6,0-4.7-2.1-4.7-4.7s2.1-4.7,4.7-4.7c2.6,0,4.7,2.1,4.7,4.7C347.5,28.9,345.4,31,342.9,31"/>
		<path class="st0" d="M343.1,24.5l-1.2,0V26h1.2c0.5,0,0.7-0.3,0.7-0.7C344,24.8,343.7,24.5,343.1,24.5 M344.9,25.4
			c0,0.7-0.4,1.2-1,1.5c0.1,0.1,0.1,0.1,0.2,0.3l0.8,1.5c0.1,0.1,0.1,0.2-0.1,0.2h-0.4c-0.3,0-0.4,0-0.5-0.2l-0.6-1.2
			c-0.2-0.4-0.4-0.5-0.9-0.5h-0.5v1.7c0,0.1-0.1,0.2-0.2,0.2h-0.4c-0.2,0-0.2-0.1-0.2-0.2V24c0-0.1,0.1-0.2,0.2-0.2l2,0
			C344.2,23.7,344.9,24.3,344.9,25.4"/>
	</g>
	<path class="st0" d="M389,28c0.1-1.4,1.1-2.4,2-2.2s1.4,1.3,1.2,2.9c-0.1,1.4-0.8,2.4-1.8,2.3C389.7,30.8,388.8,29.4,389,28
		 M394.4,29.6c-0.2-1.2,0.1-2.3,0.7-2.3c0.7-0.1,1.5,0.9,1.8,2.1c0.2,1.2-0.3,2.3-1,2.3C395.3,31.8,394.7,31,394.4,29.6 M374.9,46.4
		c-5.4,21.4-19.1,21.8-21.4,21.8c-0.1,0-0.3,0.1-0.2,0.3c1,2.6,4.3,3.1,4.3,3.1c4.2,8.4,13,7,13,7c11.9,11.2,18.2,3.4,18.2,3.4
		c4,5.1,7.5-0.1,7.5-0.1c6.2-10.1,8.1-26.1,8.1-26.1c3.2,0.5,3.6-3.6,3.6-3.6c5.9,1.2,5.7-4.7,5.7-4.7c5.3-1.5,4.6-5.5,4.1-7
		c-0.1-0.2-0.4-0.3-0.5-0.1c-2.8,3-6.2,3-6.2,3c-6.3,0.4-9.4-3.7-10.4-9.4c-0.7-3.1-2.9-12-11.2-13.5c-8.4-1.5-9.2,8.4-9.3,10.8
		c-0.1,2.3-0.4,4.8-4.3,4.6c-3.5-0.1-8.5-4.8-9.7-5.9c-0.1-0.1-0.3-0.1-0.4,0.1c-1.5,5.1,2.6,6.9,2.6,6.9c0,4.8,4.2,4.8,4.2,4.8
		C372,45,374.9,46.4,374.9,46.4"/>
</g>
</svg>
