<?xml version="1.0" encoding="utf-8"?>
<!-- Generator: Adobe Illustrator 24.0.2, SVG Export Plug-In . SVG Version: 6.00 Build 0)  -->
<svg version="1.1" id="Layer_1" xmlns="http://www.w3.org/2000/svg" xmlns:xlink="http://www.w3.org/1999/xlink" x="0px" y="0px"
	 viewBox="0 0 211 100" style="enable-background:new 0 0 211 100;" xml:space="preserve">
<style type="text/css">
	.st0{fill:#FFFFFF;}
</style>
<path class="st0" d="M42.3,52.7h31.5v13H47.7v5.4h26.1v13H42.3V52.7z M42.3,19.6L70,47.3H42.3V19.6z M5.4,15.8h31.5v31.5H5.4V15.8z
	 M46.1,15.8h27.6v27.6L46.1,15.8z M0,10.4v42.3h36.9v31.5H5.4V58.1H0v31.5h79.2V10.4H0z M111.1,17.2c0-1.5-1.4-2.8-3.2-2.8
	c-1.9,0-3,1.1-3,2.6c0,1.4,0.9,2.4,2.9,2.9c0.7,0.2,1.4,0.3,2,0.5c2.5,0.6,4.5,2.2,4.5,5.3c0,2.8-2.3,5.5-6.2,5.5
	c-3.4,0-6.4-2.7-6.4-5.5l2.7-1c-0.1,2.5,1.9,4,3.8,4c2.1,0,3.5-1.2,3.5-3c0-1.9-1.6-2.5-2.9-2.8c-0.6-0.1-1.4-0.3-2-0.5
	c-2.4-0.7-4.5-2.4-4.5-5.5c0-2.9,2.5-5,5.7-5c3.3,0,5.9,2.2,5.9,5.3H111.1z M120.3,28.6l0.2,2.3H118l-0.3-2.3V11.6h2.5V28.6z
	 M129.4,18.7c3.3,0,6.2,2.5,6.2,6.2c0,3.7-2.9,6.2-6.2,6.2c-3.3,0-6.2-2.5-6.2-6.2C123.2,21.2,126.1,18.7,129.4,18.7z M129.4,28.8
	c2.4,0,3.7-1.8,3.7-3.9s-1.3-3.9-3.7-3.9c-2.4,0-3.7,1.8-3.7,3.9S127,28.8,129.4,28.8z M145.2,19h2.5l-4.3,11.9h-2.3L136.8,19h2.5
	l2.9,8.5L145.2,19z M151.6,25.5c0,1.8,1.3,3.3,3.4,3.3c1.5,0,2.6-0.8,2.9-1.8l2.1,1c-1,1.8-2.8,3-5.2,3c-3.2,0-5.8-2.5-5.8-6.2
	c0-3.7,2.5-6.2,5.8-6.2c3,0,5.6,2.4,5.6,6.1l-0.2,0.8H151.6z M151.8,23.3h6.1c-0.1-1.3-1.4-2.3-2.9-2.3
	C153.2,21,152.1,22,151.8,23.3z M163.3,19h2.3l0.3,1l0.1,0.1L166,20c0.5-0.8,1.8-1.3,2.8-1.3c3,0,4.8,2,4.8,4.8v7.3h-2.5v-7.3
	c-0.1-1.6-0.9-2.5-2.5-2.5c-1.5,0-2.7,1.2-2.8,2.7v7.2h-2.5V19z M176,27.6l2.3-0.9c0.1,1.3,1.1,2.2,2.4,2.2c1.3,0,1.9-0.7,1.9-1.4
	c0-0.7-0.5-1.1-1.5-1.3c-0.4-0.1-0.9-0.2-1.3-0.3c-2-0.5-3.4-1.7-3.4-3.6c0-2.3,2.1-3.5,4.2-3.5c2.1,0,4,1.4,4.3,3.5h-2.5
	c0-0.8-0.8-1.3-1.8-1.3c-1,0-1.8,0.6-1.8,1.3c0,0.8,0.6,1.2,1.5,1.4l1.3,0.3c2,0.4,3.4,1.5,3.4,3.6c0,2-1.9,3.7-4.3,3.7
	S176.5,29.7,176,27.6z M195.2,19h3.3l-5.7,5.7l6,6.2h-3.3l-5-5.1v5.1h-2.5V11.6h2.5v12.1L195.2,19z M211.4,30.8h-2.3l-0.3-1
	l-0.1-0.1l-0.1,0.1c-0.8,0.8-2,1.3-3.3,1.3c-3.3,0-6.1-2.5-6.1-6.2c0-3.7,2.8-6.2,6.1-6.2c1.3,0,2.5,0.5,3.3,1.3l0.1,0.1l0.1-0.1
	l0.3-1h2.3V30.8z M209.1,24.9c0-2.1-1.5-3.9-3.7-3.9c-2.4,0-3.7,1.8-3.7,3.9s1.3,3.9,3.7,3.9C207.6,28.8,209.1,27.1,209.1,24.9z
	 M207.1,12.8l-3.2,4.8h2.5l2.5-3.5L207.1,12.8z M102.2,45.7h2.3l0.3,1l0.1,0.1l0.1-0.1c0.5-0.8,1.8-1.3,2.8-1.3c3,0,4.8,2,4.8,4.8
	v7.3h-2.5v-7.3c-0.1-1.6-0.9-2.5-2.5-2.5c-1.5,0-2.7,1.2-2.8,2.7v7.2h-2.5V45.7z M127.4,57.5h-2.3l-0.3-1l-0.1-0.1l-0.1,0.1
	c-0.8,0.8-2,1.3-3.3,1.3c-3.3,0-6.1-2.5-6.1-6.2c0-3.7,2.8-6.2,6.1-6.2c1.3,0,2.5,0.5,3.3,1.3l0.1,0.1l0.1-0.1l0.3-1h2.3V57.5z
	 M125.1,51.6c0-2.1-1.5-3.9-3.7-3.9c-2.4,0-3.7,1.8-3.7,3.9c0,2.1,1.3,3.9,3.7,3.9C123.6,55.5,125.1,53.8,125.1,51.6z M123.1,39.5
	l-3.2,4.8h2.5l2.5-3.5L123.1,39.5z M131,45.7h2.3l0.3,1.3l0.1,0.1l0.1-0.1c0.8-1,1.8-1.5,2.8-1.5c0.5,0,0.8,0,1.3,0.3v2.3h-1.5
	c-1.5,0-2.7,1.2-2.8,2.7v6.9H131V45.7z M145.2,45.4c3.3,0,6.2,2.5,6.2,6.2c0,3.7-2.9,6.2-6.2,6.2c-3.3,0-6.2-2.5-6.2-6.2
	C139,47.9,141.9,45.4,145.2,45.4z M145.2,55.5c2.4,0,3.7-1.8,3.7-3.9c0-2.1-1.3-3.9-3.7-3.9c-2.4,0-3.7,1.8-3.7,3.9
	C141.5,53.8,142.8,55.5,145.2,55.5z M165.7,57.5h-2.3l-0.3-1l-0.1-0.1l-0.1,0.1c-0.8,0.8-2,1.3-3.3,1.3c-3.3,0-6.1-2.5-6.1-6.2
	c0-3.7,2.8-6.2,6.1-6.2c1.2,0,2.5,0.5,3.3,1.3l0.1,0.1l0.1-0.1v-8.3h2.5V57.5z M159.7,47.7c-2.4,0-3.7,1.8-3.7,3.9
	c0,2.1,1.3,3.9,3.7,3.9c2.1,0,3.7-1.8,3.7-3.9C163.4,49.5,161.9,47.7,159.7,47.7z M169.3,45.7h2.3l0.3,1l0.1,0.1l0.1-0.1
	c0.5-0.8,1.8-1.3,2.8-1.3c3,0,4.8,2,4.8,4.8v7.3h-2.5v-7.3c-0.1-1.6-0.9-2.5-2.5-2.5c-1.5,0-2.7,1.2-2.8,2.7v7.2h-2.5V45.7z
	 M194.5,57.5h-2.3l-0.3-1l-0.1-0.1l-0.1,0.1c-0.7,0.8-2,1.3-3.3,1.3c-3.3,0-6.1-2.5-6.1-6.2c0-3.7,2.8-6.2,6.1-6.2
	c1.3,0,2.5,0.5,3.3,1.3l0.1,0.1l0.1-0.1l0.3-1h2.3V57.5z M192.2,51.6c0-2.1-1.5-3.9-3.7-3.9c-2.4,0-3.7,1.8-3.7,3.9
	c0,2.1,1.3,3.9,3.7,3.9C190.7,55.5,192.2,53.8,192.2,51.6z M190.2,39.5l-3.2,4.8h2.5l2.5-3.5L190.2,39.5z M103.7,81.3
	c-1.4-0.8-2.3-2.2-2.3-4c0-2.9,2.3-5.2,5.2-5.2c1.1,0,2.4,0.5,2.9,1.3l0.1,0.1l0.1-0.1l0.3-1h1.8v4.9c0,1.8-0.9,3.2-2.3,4
	c1.4,0.7,2.3,2,2.3,3.7c0,2.8-2.5,4.5-5.2,4.5c-2.7,0-5.2-1.7-5.2-4.5C101.5,83.3,102.4,82.1,103.7,81.3z M106.7,80.2
	c1.6,0,2.8-1.3,2.8-2.9c0-1.6-1.1-2.9-2.8-2.9c-1.6,0-2.8,1.3-2.8,2.9C103.9,78.9,105,80.2,106.7,80.2z M106.7,87.4
	c1.6,0,2.8-1,2.8-2.4c0-1.4-1.1-2.4-2.8-2.4c-1.6,0-2.8,1-2.8,2.4C103.9,86.4,105,87.4,106.7,87.4z M126.5,84.3h-2.3l-0.3-1
	l-0.1-0.1l-0.1,0.1c-0.8,0.8-2,1.3-3.3,1.3c-3.3,0-6.1-2.5-6.1-6.2c0-3.7,2.8-6.2,6.1-6.2c1.3,0,2.5,0.5,3.3,1.3l0.1,0.1l0.1-0.1
	l0.3-1h2.3V84.3z M120.5,74.4c-2.4,0-3.7,1.8-3.7,3.9c0,2.2,1.3,3.9,3.7,3.9c2.1,0,3.7-1.8,3.7-3.9
	C124.2,76.2,122.7,74.4,120.5,74.4z M132.7,82l0.2,2.3h-2.5l-0.3-2.3V65.1h2.5V82z M138.1,78.9c0,1.8,1.3,3.3,3.4,3.3
	c1.5,0,2.6-0.8,2.9-1.8l2.1,1c-1,1.8-2.8,3-5.2,3c-3.2,0-5.8-2.5-5.8-6.2c0-3.7,2.5-6.2,5.8-6.2c3,0,5.6,2.4,5.6,6.1l-0.3,0.7H138.1
	z M138.2,76.7h6.1c-0.1-1.3-1.4-2.3-2.9-2.3C139.6,74.4,138.6,75.4,138.2,76.7z M145.1,67.5l-2.5,3.5h-2.5l3.2-4.8L145.1,67.5z
	 M149.7,72.4h2.3l0.3,1.3l0.1,0.1l0.1-0.1c0.7-1,1.8-1.5,2.8-1.5c0.5,0,0.8,0,1.3,0.2v2.3H155c-1.5,0-2.7,1.2-2.8,2.7v6.9h-2.5V72.4
	z M159,67.3h2.5v2.8H159V67.3z M159,72.4h2.5v11.9H159V72.4z M176.5,84.3h-2.3l-0.3-1l-0.1-0.1l-0.1,0.1c-0.7,0.8-2,1.3-3.3,1.3
	c-3.3,0-6.1-2.5-6.1-6.2c0-3.7,2.8-6.2,6.1-6.2c1.3,0,2.5,0.5,3.3,1.3l0.1,0.1l0.1-0.1l0.3-1h2.3V84.3z M170.6,74.4
	c-2.4,0-3.7,1.8-3.7,3.9c0,2.2,1.3,3.9,3.7,3.9c2.1,0,3.7-1.8,3.7-3.9C174.2,76.2,172.7,74.4,170.6,74.4z"/>
</svg>
