<?xml version="1.0" encoding="utf-8"?>
<!-- Generator: Adobe Illustrator 24.0.2, SVG Export Plug-In . SVG Version: 6.00 Build 0)  -->
<svg version="1.1" id="Layer_1" xmlns="http://www.w3.org/2000/svg" xmlns:xlink="http://www.w3.org/1999/xlink" x="0px" y="0px"
	 viewBox="0 0 148 100" style="enable-background:new 0 0 148 100;" xml:space="preserve">
<style type="text/css">
	.st0{fill:#FFFFFF;}
</style>
<path class="st0" d="M102.7,54.6v-10H91.9L83.1,56c-3.7-0.9-6.9-2.6-9.4-5.1l-4.5,1.7c2.9,2.8,7.1,4.6,12.2,5.6l-17,22h-0.3L36.5,45
	L67.9,5.2v38.7h9.2V33.2c4.9,1.9,11.5,3.2,18.3,4.7c10,2.1,13,6,13,9.6C108.3,50.4,106.3,52.9,102.7,54.6 M106.2,57.1
	c6.5-2.1,11.4-5.8,12.1-10.9c0-7.3-8.5-10.2-16.9-11.9c-12.2-2.4-20.8-4.4-22.2-9.7C79,23.8,79,23.5,79,22.9
	c0.3-5.7,8.2-9.2,15.5-9.2c7.4,0,12.2,1,16.9,5.4l4-1.3c-5.3-4.7-12.4-6-20.9-6c-7.1,0-13.1,1.2-17.5,3.3v-15H66.3L38.8,35.8h-0.3
	l-28-35.6H0.1v43.6h5.1V5.7L36,44.6h-9.5v43.6h4.3V50.1L62,89.4h0.1l31.4-39.9v38.7h9.2v-29H119v40.7h9.5V59.2H148v-2.1H106.2z
	 M99,9.1l14.9-8.9h-4.7L95.5,6.4l-14-6.2h-4.5l15,8.9H99z"/>
</svg>
