<?xml version="1.0" standalone="no"?>
<!DOCTYPE svg PUBLIC "-//W3C//DTD SVG 20010904//EN"
 "http://www.w3.org/TR/2001/REC-SVG-20010904/DTD/svg10.dtd">
<svg version="1.0" xmlns="http://www.w3.org/2000/svg"
 width="700.000000pt" height="700.000000pt" viewBox="0 0 700.000000 700.000000"
 preserveAspectRatio="xMidYMid meet">
<metadata>
Created by potrace 1.14, written by Peter Selinger 2001-2017
</metadata>
<g transform="translate(0.000000,700.000000) scale(0.100000,-0.100000)"
fill="#000000" stroke="none">
<path d="M3427 5834 c-1 -1 -60 -4 -132 -8 -71 -3 -141 -8 -155 -10 -14 -2
-52 -7 -85 -11 -32 -4 -68 -9 -80 -11 -26 -5 -120 -22 -165 -29 -105 -18 -466
-122 -535 -155 -11 -5 -60 -25 -110 -45 -214 -87 -465 -228 -675 -379 -218
-156 -489 -409 -635 -591 -22 -28 -43 -52 -46 -55 -14 -12 -151 -202 -201
-280 -107 -166 -185 -309 -264 -489 l-55 -124 37 -86 c135 -317 346 -655 563
-906 61 -70 334 -339 386 -380 27 -22 55 -44 61 -50 181 -164 589 -403 889
-520 277 -109 612 -195 850 -220 288 -30 651 -27 892 6 443 60 910 223 1293
451 49 30 233 151 246 163 6 5 22 17 34 25 130 87 394 330 555 510 216 241
439 596 575 913 39 93 40 98 26 129 -8 18 -24 56 -36 83 -99 226 -278 529
-424 715 -269 345 -541 590 -936 846 -105 68 -376 205 -503 254 -45 18 -91 36
-102 41 -43 19 -254 85 -335 105 -68 16 -243 54 -275 58 -23 4 -52 8 -65 11
-14 3 -50 8 -80 11 -30 3 -68 7 -85 10 -80 10 -420 25 -428 18z m358 -597 c22
-3 65 -8 95 -12 66 -7 293 -52 336 -66 17 -5 42 -12 55 -14 45 -9 214 -67 320
-110 412 -168 771 -428 1080 -780 77 -88 269 -352 269 -370 0 -2 15 -28 34
-57 18 -29 48 -81 65 -116 l32 -63 -30 -62 c-51 -106 -195 -335 -263 -420 -98
-122 -147 -177 -252 -283 -209 -209 -362 -326 -621 -476 -34 -19 -211 -107
-265 -131 -182 -80 -474 -165 -660 -193 -19 -3 -62 -9 -95 -15 -138 -22 -404
-29 -595 -16 -541 35 -1090 242 -1521 572 -243 185 -475 431 -638 674 -67 100
-147 235 -180 303 l-23 48 52 97 c155 291 372 565 625 789 443 392 1044 652
1620 700 39 3 71 7 73 9 5 5 441 -3 487 -8z"/>
<path d="M3345 4953 c-57 -8 -208 -44 -269 -64 -419 -141 -752 -507 -853 -939
-24 -106 -28 -147 -28 -305 0 -149 6 -220 24 -282 5 -18 8 -33 6 -33 -11 0 61
-185 106 -276 161 -322 483 -585 829 -674 155 -41 326 -54 482 -37 504 53 947
412 1103 891 48 149 59 223 60 396 0 174 -4 214 -29 323 -118 492 -525 882
-1026 982 -80 16 -333 27 -405 18z m343 -604 c241 -64 424 -240 507 -487 24
-68 30 -116 29 -227 -2 -267 -148 -506 -384 -629 -118 -62 -175 -76 -320 -82
-202 -7 -381 61 -525 201 -117 114 -184 242 -215 410 -9 52 -7 236 3 252 4 5
9 25 12 43 15 83 91 222 167 306 118 128 283 215 443 231 28 3 51 6 53 8 9 8
170 -10 230 -26z"/>
</g>
</svg>
